<?xml version="1.0" encoding="UTF-8" standalone="yes"?><svg xmlns="http://www.w3.org/2000/svg" xmlns:xlink="http://www.w3.org/1999/xlink" height="825px" style="width:896px;height:825px;" version="1.1" viewBox="0 0 896 825" width="896px"><defs><filter height="300%" id="f1" width="300%" x="-1" y="-1"><feGaussianBlur result="blurOut" stdDeviation="2.0"/><feColorMatrix in="blurOut" result="blurOut2" type="matrix" values="0 0 0 0 0 0 0 0 0 0 0 0 0 0 0 0 0 0 .4 0"/><feOffset dx="4.0" dy="4.0" in="blurOut2" result="blurOut3"/><feBlend in="SourceGraphic" in2="blurOut3" mode="normal"/></filter></defs><g><text fill="#000000" font-family="sans-serif" font-size="18" lengthAdjust="spacingAndGlyphs" textLength="179" x="372" y="16.708">Command Structure</text><polygon fill="#FFFFFF" filter="url(#f1)" points="22,44.9531,162,44.9531,169,67.25,889,67.25,889,818.9531,22,818.9531,22,44.9531" style="stroke: #000000; stroke-width: 2.0;"/><line style="stroke: #000000; stroke-width: 2.0;" x1="22" x2="169" y1="67.25" y2="67.25"/><text fill="#000000" font-family="sans-serif" font-size="14" font-weight="bold" lengthAdjust="spacingAndGlyphs" textLength="134" x="25" y="60.9482">Joomla.Command</text><rect fill="#FEFECE" filter="url(#f1)" height="112.0234" style="stroke: #A80036; stroke-width: 1.5;" width="209" x="101.75" y="80.9531"/><ellipse cx="171.5" cy="96.9531" fill="#B4A7E5" rx="11" ry="11" style="stroke: #A80036; stroke-width: 1.0;"/><path d="M167.4219,92.7188 L167.4219,90.5625 L174.8125,90.5625 L174.8125,92.7188 L172.3438,92.7188 L172.3438,100.7969 L174.8125,100.7969 L174.8125,102.9531 L167.4219,102.9531 L167.4219,100.7969 L169.8906,100.7969 L169.8906,92.7188 L167.4219,92.7188 Z "/><text fill="#000000" font-family="sans-serif" font-size="12" font-style="italic" lengthAdjust="spacingAndGlyphs" textLength="61" x="192" y="101.1074">Controller</text><line style="stroke: #A80036; stroke-width: 1.5;" x1="102.75" x2="309.75" y1="112.9531" y2="112.9531"/><rect fill="none" height="6" style="stroke: #C82930; stroke-width: 1.0;" width="6" x="109.75" y="121.8555"/><text fill="#000000" font-family="sans-serif" font-size="11" lengthAdjust="spacingAndGlyphs" textLength="116" x="121.75" y="127.1636">CommandProcessor</text><text fill="#000000" font-family="sans-serif" font-size="11" font-weight="bold" lengthAdjust="spacingAndGlyphs" textLength="63" x="241.75" y="127.1636">processor</text><rect fill="none" height="6" style="stroke: #C82930; stroke-width: 1.0;" width="6" x="109.75" y="134.6602"/><text fill="#000000" font-family="sans-serif" font-size="11" lengthAdjust="spacingAndGlyphs" textLength="61" x="121.75" y="139.9683">Dispatcher</text><text fill="#000000" font-family="sans-serif" font-size="11" font-weight="bold" lengthAdjust="spacingAndGlyphs" textLength="68" x="186.75" y="139.9683">dispatcher</text><rect fill="none" height="6" style="stroke: #C82930; stroke-width: 1.0;" width="6" x="109.75" y="147.4648"/><text fill="#000000" font-family="sans-serif" font-size="11" lengthAdjust="spacingAndGlyphs" textLength="28" x="121.75" y="152.7729">Input</text><text fill="#000000" font-family="sans-serif" font-size="11" font-weight="bold" lengthAdjust="spacingAndGlyphs" textLength="33" x="153.75" y="152.7729">input</text><rect fill="none" height="6" style="stroke: #C82930; stroke-width: 1.0;" width="6" x="109.75" y="160.2695"/><text fill="#000000" font-family="sans-serif" font-size="11" lengthAdjust="spacingAndGlyphs" textLength="38" x="121.75" y="165.5776">Output</text><text fill="#000000" font-family="sans-serif" font-size="11" font-weight="bold" lengthAdjust="spacingAndGlyphs" textLength="42" x="163.75" y="165.5776">output</text><line style="stroke: #A80036; stroke-width: 1.5;" x1="102.75" x2="309.75" y1="172.1719" y2="172.1719"/><ellipse cx="112.75" cy="184.0742" fill="#84BE84" rx="3" ry="3" style="stroke: #038048; stroke-width: 1.0;"/><text fill="#000000" font-family="sans-serif" font-size="11" font-weight="bold" lengthAdjust="spacingAndGlyphs" textLength="21" x="121.75" y="186.3823">run</text><text fill="#000000" font-family="sans-serif" font-size="11" lengthAdjust="spacingAndGlyphs" textLength="8" x="142.75" y="186.3823">()</text><polygon fill="#FBFB77" filter="url(#f1)" points="477.75,86.4531,477.75,187.25,774.75,187.25,774.75,96.4531,764.75,86.4531,477.75,86.4531" style="stroke: #A80036; stroke-width: 1.0;"/><polygon fill="#FBFB77" points="477.75,86.4531,477.75,132.9531,310.59,136.9531,477.75,140.9531,477.75,187.25,774.75,187.25,774.75,96.4531,764.75,86.4531,477.75,86.4531" style="stroke: #A80036; stroke-width: 1.0;"/><line style="stroke: #A80036; stroke-width: 1.0;" x1="764.75" x2="764.75" y1="86.4531" y2="96.4531"/><line style="stroke: #A80036; stroke-width: 1.0;" x1="774.75" x2="764.75" y1="96.4531" y2="96.4531"/><text fill="#000000" font-family="sans-serif" font-size="13" lengthAdjust="spacingAndGlyphs" textLength="43" x="483.75" y="103.52">run() {</text><text fill="#000000" font-family="sans-serif" font-size="13" lengthAdjust="spacingAndGlyphs" textLength="260" x="499.75" y="118.6528">// Determine command name from input</text><text fill="#000000" font-family="sans-serif" font-size="13" lengthAdjust="spacingAndGlyphs" textLength="249" x="499.75" y="133.7856">$this-&gt;processor-&gt;executeCommand(</text><text fill="#000000" font-family="sans-serif" font-size="13" lengthAdjust="spacingAndGlyphs" textLength="241" x="515.75" y="148.9185">$this-&gt;commands[$commandName]</text><text fill="#000000" font-family="sans-serif" font-size="13" lengthAdjust="spacingAndGlyphs" textLength="9" x="499.75" y="164.0513">);</text><text fill="#000000" font-family="sans-serif" font-size="13" lengthAdjust="spacingAndGlyphs" textLength="8" x="483.75" y="179.1841">}</text><rect fill="#FEFECE" filter="url(#f1)" height="86.4141" style="stroke: #A80036; stroke-width: 1.5;" width="159" x="445.75" y="432.9531"/><ellipse cx="490" cy="448.9531" fill="#B4A7E5" rx="11" ry="11" style="stroke: #A80036; stroke-width: 1.0;"/><path d="M485.9219,444.7188 L485.9219,442.5625 L493.3125,442.5625 L493.3125,444.7188 L490.8438,444.7188 L490.8438,452.7969 L493.3125,452.7969 L493.3125,454.9531 L485.9219,454.9531 L485.9219,452.7969 L488.3906,452.7969 L488.3906,444.7188 L485.9219,444.7188 Z "/><text fill="#000000" font-family="sans-serif" font-size="12" font-style="italic" lengthAdjust="spacingAndGlyphs" textLength="62" x="510.5" y="453.1074">Command</text><line style="stroke: #A80036; stroke-width: 1.5;" x1="446.75" x2="603.75" y1="464.9531" y2="464.9531"/><rect fill="none" height="6" style="stroke: #C82930; stroke-width: 1.0;" width="6" x="453.75" y="473.8555"/><text fill="#000000" font-family="sans-serif" font-size="11" lengthAdjust="spacingAndGlyphs" textLength="33" x="465.75" y="479.1636">string</text><text fill="#000000" font-family="sans-serif" font-size="11" font-weight="bold" lengthAdjust="spacingAndGlyphs" textLength="35" x="502.75" y="479.1636">name</text><rect fill="none" height="6" style="stroke: #C82930; stroke-width: 1.0;" width="6" x="453.75" y="486.6602"/><text fill="#000000" font-family="sans-serif" font-size="11" lengthAdjust="spacingAndGlyphs" textLength="33" x="465.75" y="491.9683">string</text><text fill="#000000" font-family="sans-serif" font-size="11" font-weight="bold" lengthAdjust="spacingAndGlyphs" textLength="72" x="502.75" y="491.9683">description</text><line style="stroke: #A80036; stroke-width: 1.5;" x1="446.75" x2="603.75" y1="498.5625" y2="498.5625"/><ellipse cx="456.75" cy="510.4648" fill="#84BE84" rx="3" ry="3" style="stroke: #038048; stroke-width: 1.0;"/><text fill="#000000" font-family="sans-serif" font-size="11" font-weight="bold" lengthAdjust="spacingAndGlyphs" textLength="51" x="465.75" y="512.7729">execute</text><text fill="#000000" font-family="sans-serif" font-size="11" lengthAdjust="spacingAndGlyphs" textLength="82" x="516.75" y="512.7729">(Input, Output)</text><rect fill="#FEFECE" filter="url(#f1)" height="73.6094" style="stroke: #A80036; stroke-width: 1.5;" width="171" x="439.75" y="580.9531"/><ellipse cx="454.75" cy="596.9531" fill="#B4A7E5" rx="11" ry="11" style="stroke: #A80036; stroke-width: 1.0;"/><path d="M450.6719,592.7188 L450.6719,590.5625 L458.0625,590.5625 L458.0625,592.7188 L455.5938,592.7188 L455.5938,600.7969 L458.0625,600.7969 L458.0625,602.9531 L450.6719,602.9531 L450.6719,600.7969 L453.1406,600.7969 L453.1406,592.7188 L450.6719,592.7188 Z "/><text fill="#000000" font-family="sans-serif" font-size="12" font-style="italic" lengthAdjust="spacingAndGlyphs" textLength="139" x="468.75" y="601.1074">RecoverableCommand</text><line style="stroke: #A80036; stroke-width: 1.5;" x1="440.75" x2="609.75" y1="612.9531" y2="612.9531"/><line style="stroke: #A80036; stroke-width: 1.5;" x1="440.75" x2="609.75" y1="620.9531" y2="620.9531"/><ellipse cx="450.75" cy="632.8555" fill="#84BE84" rx="3" ry="3" style="stroke: #038048; stroke-width: 1.0;"/><text fill="#000000" font-family="sans-serif" font-size="11" font-weight="bold" lengthAdjust="spacingAndGlyphs" textLength="32" x="459.75" y="635.1636">undo</text><text fill="#000000" font-family="sans-serif" font-size="11" lengthAdjust="spacingAndGlyphs" textLength="8" x="491.75" y="635.1636">()</text><ellipse cx="450.75" cy="645.6602" fill="#84BE84" rx="3" ry="3" style="stroke: #038048; stroke-width: 1.0;"/><text fill="#000000" font-family="sans-serif" font-size="11" font-weight="bold" lengthAdjust="spacingAndGlyphs" textLength="29" x="459.75" y="647.9683">redo</text><text fill="#000000" font-family="sans-serif" font-size="11" lengthAdjust="spacingAndGlyphs" textLength="8" x="488.75" y="647.9683">()</text><rect fill="#FEFECE" filter="url(#f1)" height="60.8047" style="stroke: #A80036; stroke-width: 1.5;" width="164" x="709" y="445.4531"/><ellipse cx="753.25" cy="461.4531" fill="#B4A7E5" rx="11" ry="11" style="stroke: #A80036; stroke-width: 1.0;"/><path d="M749.1719,457.2188 L749.1719,455.0625 L756.5625,455.0625 L756.5625,457.2188 L754.0938,457.2188 L754.0938,465.2969 L756.5625,465.2969 L756.5625,467.4531 L749.1719,467.4531 L749.1719,465.2969 L751.6406,465.2969 L751.6406,457.2188 L749.1719,457.2188 Z "/><text fill="#000000" font-family="sans-serif" font-size="12" font-style="italic" lengthAdjust="spacingAndGlyphs" textLength="67" x="773.75" y="465.6074">Dispatcher</text><line style="stroke: #A80036; stroke-width: 1.5;" x1="710" x2="872" y1="477.4531" y2="477.4531"/><line style="stroke: #A80036; stroke-width: 1.5;" x1="710" x2="872" y1="485.4531" y2="485.4531"/><ellipse cx="720" cy="497.3555" fill="#84BE84" rx="3" ry="3" style="stroke: #038048; stroke-width: 1.0;"/><text fill="#000000" font-family="sans-serif" font-size="11" font-weight="bold" lengthAdjust="spacingAndGlyphs" textLength="43" x="729" y="499.6636">trigger</text><text fill="#000000" font-family="sans-serif" font-size="11" lengthAdjust="spacingAndGlyphs" textLength="95" x="772" y="499.6636">(string, mixed...)</text><rect fill="#FEFECE" filter="url(#f1)" height="60.8047" style="stroke: #A80036; stroke-width: 1.5;" width="159" x="183.75" y="587.4531"/><ellipse cx="210.9" cy="603.4531" fill="#ADD1B2" rx="11" ry="11" style="stroke: #A80036; stroke-width: 1.0;"/><path d="M213.8688,609.0938 Q213.2906,609.3906 212.65,609.5391 Q212.0094,609.6875 211.3063,609.6875 Q208.8063,609.6875 207.4859,608.0391 Q206.1656,606.3906 206.1656,603.2656 Q206.1656,600.1406 207.4859,598.4844 Q208.8063,596.8281 211.3063,596.8281 Q212.0094,596.8281 212.6578,596.9844 Q213.3063,597.1406 213.8688,597.4375 L213.8688,600.1563 Q213.2438,599.5781 212.65,599.3047 Q212.0563,599.0313 211.4313,599.0313 Q210.0875,599.0313 209.4,600.1016 Q208.7125,601.1719 208.7125,603.2656 Q208.7125,605.3594 209.4,606.4297 Q210.0875,607.5 211.4313,607.5 Q212.0563,607.5 212.65,607.2266 Q213.2438,606.9531 213.8688,606.375 L213.8688,609.0938 Z "/><text fill="#000000" font-family="sans-serif" font-size="12" lengthAdjust="spacingAndGlyphs" textLength="100" x="227.6" y="607.6074">MacroCommand</text><line style="stroke: #A80036; stroke-width: 1.5;" x1="184.75" x2="341.75" y1="619.4531" y2="619.4531"/><line style="stroke: #A80036; stroke-width: 1.5;" x1="184.75" x2="341.75" y1="627.4531" y2="627.4531"/><ellipse cx="194.75" cy="639.3555" fill="#84BE84" rx="3" ry="3" style="stroke: #038048; stroke-width: 1.0;"/><text fill="#000000" font-family="sans-serif" font-size="11" font-weight="bold" lengthAdjust="spacingAndGlyphs" textLength="51" x="203.75" y="641.6636">execute</text><text fill="#000000" font-family="sans-serif" font-size="11" lengthAdjust="spacingAndGlyphs" textLength="82" x="254.75" y="641.6636">(Input, Output)</text><polygon fill="#FBFB77" filter="url(#f1)" points="100,716.9531,100,802.6172,426,802.6172,426,726.9531,416,716.9531,100,716.9531" style="stroke: #A80036; stroke-width: 1.0;"/><polygon fill="#FBFB77" points="100,716.9531,100,802.6172,426,802.6172,426,726.9531,416,716.9531,267,716.9531,263,648.6431,259,716.9531,100,716.9531" style="stroke: #A80036; stroke-width: 1.0;"/><line style="stroke: #A80036; stroke-width: 1.0;" x1="416" x2="416" y1="716.9531" y2="726.9531"/><line style="stroke: #A80036; stroke-width: 1.0;" x1="426" x2="416" y1="726.9531" y2="726.9531"/><text fill="#000000" font-family="sans-serif" font-size="13" lengthAdjust="spacingAndGlyphs" textLength="255" x="106" y="734.02">execute(Input $input, Output $output) {</text><text fill="#000000" font-family="sans-serif" font-size="13" lengthAdjust="spacingAndGlyphs" textLength="289" x="122" y="749.1528">foreach ($this-&gt;commands as $command) {</text><text fill="#000000" font-family="sans-serif" font-size="13" lengthAdjust="spacingAndGlyphs" textLength="252" x="138" y="764.2856">$command-&gt;execute($input, $output);</text><text fill="#000000" font-family="sans-serif" font-size="13" lengthAdjust="spacingAndGlyphs" textLength="8" x="122" y="779.4185">}</text><text fill="#000000" font-family="sans-serif" font-size="13" lengthAdjust="spacingAndGlyphs" textLength="8" x="106" y="794.5513">}</text><rect fill="#FEFECE" filter="url(#f1)" height="99.2188" style="stroke: #A80036; stroke-width: 1.5;" width="206" x="166" y="263.4531"/><ellipse cx="203.05" cy="279.4531" fill="#ADD1B2" rx="11" ry="11" style="stroke: #A80036; stroke-width: 1.0;"/><path d="M206.0188,285.0938 Q205.4406,285.3906 204.8,285.5391 Q204.1594,285.6875 203.4563,285.6875 Q200.9563,285.6875 199.6359,284.0391 Q198.3156,282.3906 198.3156,279.2656 Q198.3156,276.1406 199.6359,274.4844 Q200.9563,272.8281 203.4563,272.8281 Q204.1594,272.8281 204.8078,272.9844 Q205.4563,273.1406 206.0188,273.4375 L206.0188,276.1563 Q205.3938,275.5781 204.8,275.3047 Q204.2063,275.0313 203.5813,275.0313 Q202.2375,275.0313 201.55,276.1016 Q200.8625,277.1719 200.8625,279.2656 Q200.8625,281.3594 201.55,282.4297 Q202.2375,283.5 203.5813,283.5 Q204.2063,283.5 204.8,283.2266 Q205.3938,282.9531 206.0188,282.375 L206.0188,285.0938 Z "/><text fill="#000000" font-family="sans-serif" font-size="12" lengthAdjust="spacingAndGlyphs" textLength="125" x="221.95" y="283.6074">CommandProcessor</text><line style="stroke: #A80036; stroke-width: 1.5;" x1="167" x2="371" y1="295.4531" y2="295.4531"/><rect fill="none" height="6" style="stroke: #C82930; stroke-width: 1.0;" width="6" x="174" y="304.3555"/><text fill="#000000" font-family="sans-serif" font-size="11" lengthAdjust="spacingAndGlyphs" textLength="61" x="186" y="309.6636">Dispatcher</text><text fill="#000000" font-family="sans-serif" font-size="11" font-weight="bold" lengthAdjust="spacingAndGlyphs" textLength="68" x="251" y="309.6636">dispatcher</text><rect fill="none" height="6" style="stroke: #C82930; stroke-width: 1.0;" width="6" x="174" y="317.1602"/><text fill="#000000" font-family="sans-serif" font-size="11" lengthAdjust="spacingAndGlyphs" textLength="28" x="186" y="322.4683">Input</text><text fill="#000000" font-family="sans-serif" font-size="11" font-weight="bold" lengthAdjust="spacingAndGlyphs" textLength="33" x="218" y="322.4683">input</text><rect fill="none" height="6" style="stroke: #C82930; stroke-width: 1.0;" width="6" x="174" y="329.9648"/><text fill="#000000" font-family="sans-serif" font-size="11" lengthAdjust="spacingAndGlyphs" textLength="38" x="186" y="335.2729">Output</text><text fill="#000000" font-family="sans-serif" font-size="11" font-weight="bold" lengthAdjust="spacingAndGlyphs" textLength="42" x="228" y="335.2729">output</text><line style="stroke: #A80036; stroke-width: 1.5;" x1="167" x2="371" y1="341.8672" y2="341.8672"/><ellipse cx="177" cy="353.7695" fill="#84BE84" rx="3" ry="3" style="stroke: #038048; stroke-width: 1.0;"/><text fill="#000000" font-family="sans-serif" font-size="11" font-weight="bold" lengthAdjust="spacingAndGlyphs" textLength="114" x="186" y="356.0776">executeCommand</text><text fill="#000000" font-family="sans-serif" font-size="11" lengthAdjust="spacingAndGlyphs" textLength="66" x="300" y="356.0776">(Command)</text><polygon fill="#FBFB77" filter="url(#f1)" points="441.75,254.9531,441.75,370.8828,872.75,370.8828,872.75,264.9531,862.75,254.9531,441.75,254.9531" style="stroke: #A80036; stroke-width: 1.0;"/><polygon fill="#FBFB77" points="441.75,254.9531,441.75,308.9531,372.062,312.9531,441.75,316.9531,441.75,370.8828,872.75,370.8828,872.75,264.9531,862.75,254.9531,441.75,254.9531" style="stroke: #A80036; stroke-width: 1.0;"/><line style="stroke: #A80036; stroke-width: 1.0;" x1="862.75" x2="862.75" y1="254.9531" y2="264.9531"/><line style="stroke: #A80036; stroke-width: 1.0;" x1="872.75" x2="862.75" y1="264.9531" y2="264.9531"/><text fill="#000000" font-family="sans-serif" font-size="13" lengthAdjust="spacingAndGlyphs" textLength="284" x="447.75" y="272.02">executeCommand(Command $command) {</text><text fill="#000000" font-family="sans-serif" font-size="13" lengthAdjust="spacingAndGlyphs" textLength="394" x="463.75" y="287.1528">if ($this-&gt;dispatcher-&gt;trigger('beforeExecute', $command)) {</text><text fill="#000000" font-family="sans-serif" font-size="13" lengthAdjust="spacingAndGlyphs" textLength="306" x="479.75" y="302.2856">$command-&gt;setDispatcher($this-&gt;dispatcher);</text><text fill="#000000" font-family="sans-serif" font-size="13" lengthAdjust="spacingAndGlyphs" textLength="330" x="479.75" y="317.4185">$command-&gt;execute($this-&gt;input, $this-&gt;output);</text><text fill="#000000" font-family="sans-serif" font-size="13" lengthAdjust="spacingAndGlyphs" textLength="354" x="479.75" y="332.5513">$this-&gt;dispatcher-&gt;trigger('afterExecute', $command);</text><text fill="#000000" font-family="sans-serif" font-size="13" lengthAdjust="spacingAndGlyphs" textLength="8" x="463.75" y="347.6841">}</text><text fill="#000000" font-family="sans-serif" font-size="13" lengthAdjust="spacingAndGlyphs" textLength="8" x="447.75" y="362.8169">}</text><rect fill="#FEFECE" filter="url(#f1)" height="73.6094" style="stroke: #A80036; stroke-width: 1.5;" width="297" x="38.75" y="438.9531"/><ellipse cx="53.75" cy="454.9531" fill="#ADD1B2" rx="11" ry="11" style="stroke: #A80036; stroke-width: 1.0;"/><path d="M56.7188,460.5938 Q56.1406,460.8906 55.5,461.0391 Q54.8594,461.1875 54.1563,461.1875 Q51.6563,461.1875 50.3359,459.5391 Q49.0156,457.8906 49.0156,454.7656 Q49.0156,451.6406 50.3359,449.9844 Q51.6563,448.3281 54.1563,448.3281 Q54.8594,448.3281 55.5078,448.4844 Q56.1563,448.6406 56.7188,448.9375 L56.7188,451.6563 Q56.0938,451.0781 55.5,450.8047 Q54.9063,450.5313 54.2813,450.5313 Q52.9375,450.5313 52.25,451.6016 Q51.5625,452.6719 51.5625,454.7656 Q51.5625,456.8594 52.25,457.9297 Q52.9375,459 54.2813,459 Q54.9063,459 55.5,458.7266 Q56.0938,458.4531 56.7188,457.875 L56.7188,460.5938 Z "/><text fill="#000000" font-family="sans-serif" font-size="12" lengthAdjust="spacingAndGlyphs" textLength="265" x="67.75" y="459.1074">CommandCollectionDefaultImplementation</text><line style="stroke: #A80036; stroke-width: 1.5;" x1="39.75" x2="334.75" y1="470.9531" y2="470.9531"/><line style="stroke: #A80036; stroke-width: 1.5;" x1="39.75" x2="334.75" y1="478.9531" y2="478.9531"/><polygon fill="#FFFF44" points="49.75,485.8555,53.75,489.8555,49.75,493.8555,45.75,489.8555" style="stroke: #B38D22; stroke-width: 1.0;"/><text fill="#000000" font-family="sans-serif" font-size="11" font-weight="bold" lengthAdjust="spacingAndGlyphs" textLength="24" x="58.75" y="493.1636">add</text><text fill="#000000" font-family="sans-serif" font-size="11" lengthAdjust="spacingAndGlyphs" textLength="66" x="82.75" y="493.1636">(Command)</text><polygon fill="#FFFF44" points="49.75,498.6602,53.75,502.6602,49.75,506.6602,45.75,502.6602" style="stroke: #B38D22; stroke-width: 1.0;"/><text fill="#000000" font-family="sans-serif" font-size="11" font-weight="bold" lengthAdjust="spacingAndGlyphs" textLength="94" x="58.75" y="505.9683">addCommands</text><text fill="#000000" font-family="sans-serif" font-size="11" lengthAdjust="spacingAndGlyphs" textLength="74" x="152.75" y="505.9683">(Command[])</text><path d="M525,539.1651 C525,553.3571 525,567.9821 525,580.6661 " fill="none" style="stroke: #A80036; stroke-width: 1.0;"/><polygon fill="none" points="518,538.9581,525,518.9581,532,538.9581,518,538.9581" style="stroke: #A80036; stroke-width: 1.0;"/><path d="M604.448,475.9531 C635.691,475.9531 671.667,475.9531 703.638,475.9531 " fill="none" style="stroke: #A80036; stroke-width: 1.0;"/><polygon fill="#A80036" points="708.734,475.9531,699.734,471.9531,703.734,475.9531,699.734,479.9531,708.734,475.9531" style="stroke: #A80036; stroke-width: 1.0;"/><text fill="#000000" font-family="sans-serif" font-size="13" lengthAdjust="spacingAndGlyphs" textLength="67" x="622.5" y="468.02">dispatcher</text><path d="M428.532,528.5011 C391.382,548.3521 350.241,570.3351 318.268,587.4201 " fill="none" style="stroke: #A80036; stroke-width: 1.0; stroke-dasharray: 7.0,7.0;"/><polygon fill="none" points="425.453,522.2101,446.391,518.9581,432.051,534.5571,425.453,522.2101" style="stroke: #A80036; stroke-width: 1.0;"/><path d="M225.934,193.0081 C233.509,213.9311 242.122,237.7171 249.643,258.4911 " fill="none" style="stroke: #A80036; stroke-width: 1.0;"/><polygon fill="#A80036" points="251.43,263.4261,252.126,253.6019,249.7273,258.725,244.6041,256.3263,251.43,263.4261" style="stroke: #A80036; stroke-width: 1.0;"/><path d="M346.156,362.4771 C380.252,383.9201 420.097,408.9791 453.512,429.9941 " fill="none" style="stroke: #A80036; stroke-width: 1.0;"/><polygon fill="#A80036" points="457.973,432.7991,452.483,424.6223,453.7402,430.1377,448.2248,431.3948,457.973,432.7991" style="stroke: #A80036; stroke-width: 1.0;"/><path d="M348.642,475.9531 C377.347,475.9531 406.336,475.9531 432.287,475.9531 " fill="none" style="stroke: #A80036; stroke-width: 1.0;"/><polygon fill="#A80036" points="445.564,475.9531,436.564,471.9531,440.564,475.9531,436.564,479.9531,445.564,475.9531" style="stroke: #A80036; stroke-width: 1.0;"/><line style="stroke: #A80036; stroke-width: 1.0;" x1="440.564" x2="432.564" y1="475.9531" y2="475.9531"/><polygon fill="none" points="335.252,475.9531,341.252,479.9531,347.252,475.9531,341.252,471.9531,335.252,475.9531" style="stroke: #A80036; stroke-width: 1.0;"/><text fill="#000000" font-family="sans-serif" font-size="13" lengthAdjust="spacingAndGlyphs" textLength="72" x="353.75" y="468.02">commands</text><text fill="#000000" font-family="sans-serif" font-size="13" lengthAdjust="spacingAndGlyphs" textLength="24" x="413.7574" y="488.5605">1..n</text><path d="M240.473,575.4571 C231.782,559.4471 221.789,541.0381 212.811,524.5001 " fill="none" style="stroke: #A80036; stroke-width: 1.0;"/><polygon fill="#A80036" points="206.572,513.0061,207.3497,522.8242,208.9571,517.4006,214.3808,519.008,206.572,513.0061" style="stroke: #A80036; stroke-width: 1.0;"/><line style="stroke: #A80036; stroke-width: 1.0;" x1="208.9571" x2="212.774" y1="517.4006" y2="524.4316"/><polygon fill="#A80036" points="246.827,587.1611,247.4797,579.9796,241.1017,576.615,240.449,583.7965,246.827,587.1611" style="stroke: #A80036; stroke-width: 1.0;"/><path d="M166.957,205.0121 C159.537,220.8861 152.885,238.1101 149,254.9531 C137.414,305.1901 140.016,320.1861 149,370.9531 C152.299,389.5971 158.685,409.2901 165.294,426.4651 " fill="none" style="stroke: #A80036; stroke-width: 1.0;"/><polygon fill="#A80036" points="170.224,438.7601,170.5878,428.918,168.3634,434.1192,163.1623,431.8949,170.224,438.7601" style="stroke: #A80036; stroke-width: 1.0;"/><line style="stroke: #A80036; stroke-width: 1.0;" x1="168.3634" x2="165.386" y1="434.1192" y2="426.6941"/><polygon fill="#A80036" points="172.748,193.1651,166.5196,196.7993,167.4787,203.9463,173.7071,200.3122,172.748,193.1651" style="stroke: #A80036; stroke-width: 1.0;"/></g></svg>