<?xml version="1.0" encoding="UTF-8" standalone="yes"?><svg xmlns="http://www.w3.org/2000/svg" xmlns:xlink="http://www.w3.org/1999/xlink" height="269px" style="width:1119px;height:269px;" version="1.1" viewBox="0 0 1119 269" width="1119px"><defs/><g><text fill="#000000" font-family="sans-serif" font-size="18" lengthAdjust="spacingAndGlyphs" textLength="88" x="532" y="16.708">Frontends</text><polygon fill="#FFFFFF" points="22,168.9531,194,168.9531,201,191.25,386,191.25,386,268.9531,22,268.9531,22,168.9531" style="stroke: #000000; stroke-width: 2.0;"/><line style="stroke: #000000; stroke-width: 2.0;" x1="22" x2="201" y1="191.25" y2="191.25"/><text fill="#000000" font-family="sans-serif" font-size="14" font-weight="bold" lengthAdjust="spacingAndGlyphs" textLength="166" x="25" y="184.9482">Joomla.Frontend.Http</text><polygon fill="#FFFFFF" points="532,44.9531,666,44.9531,673,67.25,739,67.25,739,144.9531,532,144.9531,532,44.9531" style="stroke: #000000; stroke-width: 2.0;"/><line style="stroke: #000000; stroke-width: 2.0;" x1="532" x2="673" y1="67.25" y2="67.25"/><text fill="#000000" font-family="sans-serif" font-size="14" font-weight="bold" lengthAdjust="spacingAndGlyphs" textLength="128" x="535" y="60.9482">Joomla.Frontend</text><polygon fill="#FFFFFF" points="410,168.9531,584,168.9531,591,191.25,758,191.25,758,268.9531,410,268.9531,410,168.9531" style="stroke: #000000; stroke-width: 2.0;"/><line style="stroke: #000000; stroke-width: 2.0;" x1="410" x2="591" y1="191.25" y2="191.25"/><text fill="#000000" font-family="sans-serif" font-size="14" font-weight="bold" lengthAdjust="spacingAndGlyphs" textLength="168" x="413" y="184.9482">Joomla.Frontend.Rest</text><polygon fill="#FFFFFF" points="782,168.9531,940,168.9531,947,191.25,1118,191.25,1118,268.9531,782,268.9531,782,168.9531" style="stroke: #000000; stroke-width: 2.0;"/><line style="stroke: #000000; stroke-width: 2.0;" x1="782" x2="947" y1="191.25" y2="191.25"/><text fill="#000000" font-family="sans-serif" font-size="14" font-weight="bold" lengthAdjust="spacingAndGlyphs" textLength="152" x="785" y="184.9482">Joomla.Frontend.Cli</text><rect fill="#FFFFFF" height="48" style="stroke: #000000; stroke-width: 1.5;" width="84" x="286.5" y="204.9531"/><ellipse cx="301.5" cy="220.9531" fill="#FFFFFF" rx="11" ry="11" style="stroke: #000000; stroke-width: 1.0;"/><path d="M304.4688,226.5938 Q303.8906,226.8906 303.25,227.0391 Q302.6094,227.1875 301.9063,227.1875 Q299.4063,227.1875 298.0859,225.5391 Q296.7656,223.8906 296.7656,220.7656 Q296.7656,217.6406 298.0859,215.9844 Q299.4063,214.3281 301.9063,214.3281 Q302.6094,214.3281 303.2578,214.4844 Q303.9063,214.6406 304.4688,214.9375 L304.4688,217.6563 Q303.8438,217.0781 303.25,216.8047 Q302.6563,216.5313 302.0313,216.5313 Q300.6875,216.5313 300,217.6016 Q299.3125,218.6719 299.3125,220.7656 Q299.3125,222.8594 300,223.9297 Q300.6875,225 302.0313,225 Q302.6563,225 303.25,224.7266 Q303.8438,224.4531 304.4688,223.875 L304.4688,226.5938 Z "/><text fill="#000000" font-family="Verdana" font-size="12" lengthAdjust="spacingAndGlyphs" textLength="52" x="315.5" y="225.7256">Request</text><line style="stroke: #000000; stroke-width: 1.5;" x1="287.5" x2="369.5" y1="236.9531" y2="236.9531"/><line style="stroke: #000000; stroke-width: 1.5;" x1="287.5" x2="369.5" y1="244.9531" y2="244.9531"/><rect fill="#FFFFFF" height="48" style="stroke: #000000; stroke-width: 1.5;" width="94" x="157" y="204.9531"/><ellipse cx="172" cy="220.9531" fill="#FFFFFF" rx="11" ry="11" style="stroke: #000000; stroke-width: 1.0;"/><path d="M174.9688,226.5938 Q174.3906,226.8906 173.75,227.0391 Q173.1094,227.1875 172.4063,227.1875 Q169.9063,227.1875 168.5859,225.5391 Q167.2656,223.8906 167.2656,220.7656 Q167.2656,217.6406 168.5859,215.9844 Q169.9063,214.3281 172.4063,214.3281 Q173.1094,214.3281 173.7578,214.4844 Q174.4063,214.6406 174.9688,214.9375 L174.9688,217.6563 Q174.3438,217.0781 173.75,216.8047 Q173.1563,216.5313 172.5313,216.5313 Q171.1875,216.5313 170.5,217.6016 Q169.8125,218.6719 169.8125,220.7656 Q169.8125,222.8594 170.5,223.9297 Q171.1875,225 172.5313,225 Q173.1563,225 173.75,224.7266 Q174.3438,224.4531 174.9688,223.875 L174.9688,226.5938 Z "/><text fill="#000000" font-family="Verdana" font-size="12" lengthAdjust="spacingAndGlyphs" textLength="62" x="186" y="225.7256">Response</text><line style="stroke: #000000; stroke-width: 1.5;" x1="158" x2="250" y1="236.9531" y2="236.9531"/><line style="stroke: #000000; stroke-width: 1.5;" x1="158" x2="250" y1="244.9531" y2="244.9531"/><polygon fill="#FFFFFF" points="38.75,216.4531,38.75,241.0371,121.75,241.0371,121.75,226.4531,111.75,216.4531,38.75,216.4531" style="stroke: #000000; stroke-width: 1.0;"/><line style="stroke: #000000; stroke-width: 1.0;" x1="111.75" x2="111.75" y1="216.4531" y2="226.4531"/><line style="stroke: #000000; stroke-width: 1.0;" x1="121.75" x2="111.75" y1="226.4531" y2="226.4531"/><text fill="#000000" font-family="Verdana" font-size="12" lengthAdjust="spacingAndGlyphs" textLength="62" x="44.75" y="233.5176">index.php</text><rect fill="#FFFFFF" height="48" style="stroke: #000000; stroke-width: 1.5;" width="65" x="657.75" y="80.9531"/><ellipse cx="672.75" cy="96.9531" fill="#FFFFFF" rx="11" ry="11" style="stroke: #000000; stroke-width: 1.0;"/><path d="M668.6719,92.7188 L668.6719,90.5625 L676.0625,90.5625 L676.0625,92.7188 L673.5938,92.7188 L673.5938,100.7969 L676.0625,100.7969 L676.0625,102.9531 L668.6719,102.9531 L668.6719,100.7969 L671.1406,100.7969 L671.1406,92.7188 L668.6719,92.7188 Z "/><text fill="#000000" font-family="Verdana" font-size="12" font-style="italic" lengthAdjust="spacingAndGlyphs" textLength="33" x="686.75" y="101.7256">Input</text><line style="stroke: #000000; stroke-width: 1.5;" x1="658.75" x2="721.75" y1="112.9531" y2="112.9531"/><line style="stroke: #000000; stroke-width: 1.5;" x1="658.75" x2="721.75" y1="120.9531" y2="120.9531"/><rect fill="#FFFFFF" height="48" style="stroke: #000000; stroke-width: 1.5;" width="74" x="548" y="80.9531"/><ellipse cx="563" cy="96.9531" fill="#FFFFFF" rx="11" ry="11" style="stroke: #000000; stroke-width: 1.0;"/><path d="M558.9219,92.7188 L558.9219,90.5625 L566.3125,90.5625 L566.3125,92.7188 L563.8438,92.7188 L563.8438,100.7969 L566.3125,100.7969 L566.3125,102.9531 L558.9219,102.9531 L558.9219,100.7969 L561.3906,100.7969 L561.3906,92.7188 L558.9219,92.7188 Z "/><text fill="#000000" font-family="Verdana" font-size="12" font-style="italic" lengthAdjust="spacingAndGlyphs" textLength="42" x="577" y="101.7256">Output</text><line style="stroke: #000000; stroke-width: 1.5;" x1="549" x2="621" y1="112.9531" y2="112.9531"/><line style="stroke: #000000; stroke-width: 1.5;" x1="549" x2="621" y1="120.9531" y2="120.9531"/><rect fill="#FFFFFF" height="48" style="stroke: #000000; stroke-width: 1.5;" width="84" x="658.5" y="204.9531"/><ellipse cx="673.5" cy="220.9531" fill="#FFFFFF" rx="11" ry="11" style="stroke: #000000; stroke-width: 1.0;"/><path d="M676.4688,226.5938 Q675.8906,226.8906 675.25,227.0391 Q674.6094,227.1875 673.9063,227.1875 Q671.4063,227.1875 670.0859,225.5391 Q668.7656,223.8906 668.7656,220.7656 Q668.7656,217.6406 670.0859,215.9844 Q671.4063,214.3281 673.9063,214.3281 Q674.6094,214.3281 675.2578,214.4844 Q675.9063,214.6406 676.4688,214.9375 L676.4688,217.6563 Q675.8438,217.0781 675.25,216.8047 Q674.6563,216.5313 674.0313,216.5313 Q672.6875,216.5313 672,217.6016 Q671.3125,218.6719 671.3125,220.7656 Q671.3125,222.8594 672,223.9297 Q672.6875,225 674.0313,225 Q674.6563,225 675.25,224.7266 Q675.8438,224.4531 676.4688,223.875 L676.4688,226.5938 Z "/><text fill="#000000" font-family="Verdana" font-size="12" lengthAdjust="spacingAndGlyphs" textLength="52" x="687.5" y="225.7256">Request</text><line style="stroke: #000000; stroke-width: 1.5;" x1="659.5" x2="741.5" y1="236.9531" y2="236.9531"/><line style="stroke: #000000; stroke-width: 1.5;" x1="659.5" x2="741.5" y1="244.9531" y2="244.9531"/><rect fill="#FFFFFF" height="48" style="stroke: #000000; stroke-width: 1.5;" width="94" x="529" y="204.9531"/><ellipse cx="544" cy="220.9531" fill="#FFFFFF" rx="11" ry="11" style="stroke: #000000; stroke-width: 1.0;"/><path d="M546.9688,226.5938 Q546.3906,226.8906 545.75,227.0391 Q545.1094,227.1875 544.4063,227.1875 Q541.9063,227.1875 540.5859,225.5391 Q539.2656,223.8906 539.2656,220.7656 Q539.2656,217.6406 540.5859,215.9844 Q541.9063,214.3281 544.4063,214.3281 Q545.1094,214.3281 545.7578,214.4844 Q546.4063,214.6406 546.9688,214.9375 L546.9688,217.6563 Q546.3438,217.0781 545.75,216.8047 Q545.1563,216.5313 544.5313,216.5313 Q543.1875,216.5313 542.5,217.6016 Q541.8125,218.6719 541.8125,220.7656 Q541.8125,222.8594 542.5,223.9297 Q543.1875,225 544.5313,225 Q545.1563,225 545.75,224.7266 Q546.3438,224.4531 546.9688,223.875 L546.9688,226.5938 Z "/><text fill="#000000" font-family="Verdana" font-size="12" lengthAdjust="spacingAndGlyphs" textLength="62" x="558" y="225.7256">Response</text><line style="stroke: #000000; stroke-width: 1.5;" x1="530" x2="622" y1="236.9531" y2="236.9531"/><line style="stroke: #000000; stroke-width: 1.5;" x1="530" x2="622" y1="244.9531" y2="244.9531"/><polygon fill="#FFFFFF" points="426,216.4531,426,241.0371,494,241.0371,494,226.4531,484,216.4531,426,216.4531" style="stroke: #000000; stroke-width: 1.0;"/><line style="stroke: #000000; stroke-width: 1.0;" x1="484" x2="484" y1="216.4531" y2="226.4531"/><line style="stroke: #000000; stroke-width: 1.0;" x1="494" x2="484" y1="226.4531" y2="226.4531"/><text fill="#000000" font-family="Verdana" font-size="12" lengthAdjust="spacingAndGlyphs" textLength="47" x="432" y="233.5176">api.php</text><rect fill="#FFFFFF" height="48" style="stroke: #000000; stroke-width: 1.5;" width="66" x="1036" y="204.9531"/><ellipse cx="1051" cy="220.9531" fill="#FFFFFF" rx="11" ry="11" style="stroke: #000000; stroke-width: 1.0;"/><path d="M1053.9688,226.5938 Q1053.3906,226.8906 1052.75,227.0391 Q1052.1094,227.1875 1051.4063,227.1875 Q1048.9063,227.1875 1047.5859,225.5391 Q1046.2656,223.8906 1046.2656,220.7656 Q1046.2656,217.6406 1047.5859,215.9844 Q1048.9063,214.3281 1051.4063,214.3281 Q1052.1094,214.3281 1052.7578,214.4844 Q1053.4063,214.6406 1053.9688,214.9375 L1053.9688,217.6563 Q1053.3438,217.0781 1052.75,216.8047 Q1052.1563,216.5313 1051.5313,216.5313 Q1050.1875,216.5313 1049.5,217.6016 Q1048.8125,218.6719 1048.8125,220.7656 Q1048.8125,222.8594 1049.5,223.9297 Q1050.1875,225 1051.5313,225 Q1052.1563,225 1052.75,224.7266 Q1053.3438,224.4531 1053.9688,223.875 L1053.9688,226.5938 Z "/><text fill="#000000" font-family="Verdana" font-size="12" lengthAdjust="spacingAndGlyphs" textLength="34" x="1065" y="225.7256">Input</text><line style="stroke: #000000; stroke-width: 1.5;" x1="1037" x2="1101" y1="236.9531" y2="236.9531"/><line style="stroke: #000000; stroke-width: 1.5;" x1="1037" x2="1101" y1="244.9531" y2="244.9531"/><rect fill="#FFFFFF" height="48" style="stroke: #000000; stroke-width: 1.5;" width="76" x="925" y="204.9531"/><ellipse cx="940" cy="220.9531" fill="#FFFFFF" rx="11" ry="11" style="stroke: #000000; stroke-width: 1.0;"/><path d="M942.9688,226.5938 Q942.3906,226.8906 941.75,227.0391 Q941.1094,227.1875 940.4063,227.1875 Q937.9063,227.1875 936.5859,225.5391 Q935.2656,223.8906 935.2656,220.7656 Q935.2656,217.6406 936.5859,215.9844 Q937.9063,214.3281 940.4063,214.3281 Q941.1094,214.3281 941.7578,214.4844 Q942.4063,214.6406 942.9688,214.9375 L942.9688,217.6563 Q942.3438,217.0781 941.75,216.8047 Q941.1563,216.5313 940.5313,216.5313 Q939.1875,216.5313 938.5,217.6016 Q937.8125,218.6719 937.8125,220.7656 Q937.8125,222.8594 938.5,223.9297 Q939.1875,225 940.5313,225 Q941.1563,225 941.75,224.7266 Q942.3438,224.4531 942.9688,223.875 L942.9688,226.5938 Z "/><text fill="#000000" font-family="Verdana" font-size="12" lengthAdjust="spacingAndGlyphs" textLength="44" x="954" y="225.7256">Output</text><line style="stroke: #000000; stroke-width: 1.5;" x1="926" x2="1000" y1="236.9531" y2="236.9531"/><line style="stroke: #000000; stroke-width: 1.5;" x1="926" x2="1000" y1="244.9531" y2="244.9531"/><polygon fill="#FFFFFF" points="798.75,216.4531,798.75,241.0371,889.75,241.0371,889.75,226.4531,879.75,216.4531,798.75,216.4531" style="stroke: #000000; stroke-width: 1.0;"/><line style="stroke: #000000; stroke-width: 1.0;" x1="879.75" x2="879.75" y1="216.4531" y2="226.4531"/><line style="stroke: #000000; stroke-width: 1.0;" x1="889.75" x2="879.75" y1="226.4531" y2="226.4531"/><text fill="#000000" font-family="Verdana" font-size="12" lengthAdjust="spacingAndGlyphs" textLength="70" x="804.75" y="233.5176">joomla.php</text><path d="M657.155,142.6901 C651.833,146.8111 646.063,150.4281 640,152.9531 C592.789,172.6151 457.865,142.9411 410,160.9531 C385.912,170.0181 363.646,189.2058 348.414,204.7338 " fill="none" style="stroke: #000000; stroke-width: 1.0; stroke-dasharray: 7.0,7.0;"/><polygon fill="none" points="652.583,137.3841,672.029,128.9671,662.076,147.6741,652.583,137.3841" style="stroke: #000000; stroke-width: 1.0;"/><path d="M527.345,105.4951 C461.255,107.2631 351.441,117.3571 269,160.9531 C249.373,171.3321 232.137,189.7909 220.355,204.7088 " fill="none" style="stroke: #000000; stroke-width: 1.0; stroke-dasharray: 7.0,7.0;"/><polygon fill="none" points="527.472,98.4921,547.578,105.1801,527.69,112.4911,527.472,98.4921" style="stroke: #000000; stroke-width: 1.0;"/><path d="M693.547,149.2281 C695.083,167.9611 696.818,189.1377 698.103,204.8052 " fill="none" style="stroke: #000000; stroke-width: 1.0; stroke-dasharray: 7.0,7.0;"/><polygon fill="none" points="686.562,149.6921,691.904,129.1871,700.515,148.5491,686.562,149.6921" style="stroke: #000000; stroke-width: 1.0;"/><path d="M581.808,149.2281 C580.426,167.9611 578.863,189.1377 577.708,204.8052 " fill="none" style="stroke: #000000; stroke-width: 1.0; stroke-dasharray: 7.0,7.0;"/><polygon fill="none" points="574.833,148.6181,583.286,129.1871,588.796,149.6481,574.833,148.6181" style="stroke: #000000; stroke-width: 1.0;"/><path d="M742.527,109.9651 C823.312,116.9201 973.493,133.1991 1019,160.9531 C1035.98,171.3071 1049.1,189.7669 1057.64,204.692 " fill="none" style="stroke: #000000; stroke-width: 1.0; stroke-dasharray: 7.0,7.0;"/><polygon fill="none" points="741.779,116.9271,722.424,108.3031,742.932,102.9741,741.779,116.9271" style="stroke: #000000; stroke-width: 1.0;"/><path d="M620.692,142.1551 C626.721,146.5141 633.234,150.3401 640,152.9531 C667.687,163.6451 880.304,147.9831 907,160.9531 C926.09,170.2281 941.048,189.3965 950.685,204.8634 " fill="none" style="stroke: #000000; stroke-width: 1.0; stroke-dasharray: 7.0,7.0;"/><polygon fill="none" points="615.921,147.2881,605.173,129.0261,624.963,136.5991,615.921,147.2881" style="stroke: #000000; stroke-width: 1.0;"/></g></svg>