<?xml version="1.0" encoding="UTF-8" standalone="yes"?><svg xmlns="http://www.w3.org/2000/svg" xmlns:xlink="http://www.w3.org/1999/xlink" height="577px" style="width:1282px;height:577px;" version="1.1" viewBox="0 0 1282 577" width="1282px"><defs/><g><text fill="#000000" font-family="sans-serif" font-size="18" lengthAdjust="spacingAndGlyphs" textLength="161" x="577" y="16.708">Content Renderer</text><polygon fill="#FFFFFF" points="226,44.9531,351,44.9531,358,67.25,362,67.25,362,144.9531,226,144.9531,226,44.9531" style="stroke: #000000; stroke-width: 2.0;"/><line style="stroke: #000000; stroke-width: 2.0;" x1="226" x2="358" y1="67.25" y2="67.25"/><text fill="#000000" font-family="sans-serif" font-size="14" font-weight="bold" lengthAdjust="spacingAndGlyphs" textLength="119" x="229" y="60.9482">Joomla.Content</text><polygon fill="#FFFFFF" points="235,194.9531,369,194.9531,376,217.25,675,217.25,675,332.9531,235,332.9531,235,194.9531" style="stroke: #000000; stroke-width: 2.0;"/><line style="stroke: #000000; stroke-width: 2.0;" x1="235" x2="376" y1="217.25" y2="217.25"/><text fill="#000000" font-family="sans-serif" font-size="14" font-weight="bold" lengthAdjust="spacingAndGlyphs" textLength="128" x="238" y="210.9482">Joomla.Frontend</text><polygon fill="#FFFFFF" points="699,44.9531,871,44.9531,878,67.25,1281,67.25,1281,326.9531,699,326.9531,699,44.9531" style="stroke: #000000; stroke-width: 2.0;"/><line style="stroke: #000000; stroke-width: 2.0;" x1="699" x2="878" y1="67.25" y2="67.25"/><text fill="#000000" font-family="sans-serif" font-size="14" font-weight="bold" lengthAdjust="spacingAndGlyphs" textLength="166" x="702" y="60.9482">Joomla.Frontend.Http</text><polygon fill="#FFFFFF" points="22,366.9531,196,366.9531,203,389.25,319,389.25,319,576.9531,22,576.9531,22,366.9531" style="stroke: #000000; stroke-width: 2.0;"/><line style="stroke: #000000; stroke-width: 2.0;" x1="22" x2="203" y1="389.25" y2="389.25"/><text fill="#000000" font-family="sans-serif" font-size="14" font-weight="bold" lengthAdjust="spacingAndGlyphs" textLength="168" x="25" y="382.9482">Joomla.Frontend.Rest</text><polygon fill="#FFFFFF" points="343,366.9531,501,366.9531,508,389.25,512,389.25,512,576.9531,343,576.9531,343,366.9531" style="stroke: #000000; stroke-width: 2.0;"/><line style="stroke: #000000; stroke-width: 2.0;" x1="343" x2="508" y1="389.25" y2="389.25"/><text fill="#000000" font-family="sans-serif" font-size="14" font-weight="bold" lengthAdjust="spacingAndGlyphs" textLength="152" x="346" y="382.9482">Joomla.Frontend.Cli</text><rect fill="#FFFFFF" height="48" style="stroke: #000000; stroke-width: 1.5;" width="80" x="254" y="80.9531"/><ellipse cx="269" cy="96.9531" fill="#FFFFFF" rx="11" ry="11" style="stroke: #000000; stroke-width: 1.0;"/><path d="M264.9219,92.7188 L264.9219,90.5625 L272.3125,90.5625 L272.3125,92.7188 L269.8438,92.7188 L269.8438,100.7969 L272.3125,100.7969 L272.3125,102.9531 L264.9219,102.9531 L264.9219,100.7969 L267.3906,100.7969 L267.3906,92.7188 L264.9219,92.7188 Z "/><text fill="#000000" font-family="Verdana" font-size="12" font-style="italic" lengthAdjust="spacingAndGlyphs" textLength="48" x="283" y="101.7256">Content</text><line style="stroke: #000000; stroke-width: 1.5;" x1="255" x2="333" y1="112.9531" y2="112.9531"/><line style="stroke: #000000; stroke-width: 1.5;" x1="255" x2="333" y1="120.9531" y2="120.9531"/><rect fill="#FFFFFF" height="48" style="stroke: #000000; stroke-width: 1.5;" width="86" x="251" y="249.9531"/><ellipse cx="266" cy="265.9531" fill="#FFFFFF" rx="11" ry="11" style="stroke: #000000; stroke-width: 1.0;"/><path d="M266.1094,261.2969 L264.9531,266.375 L267.2813,266.375 L266.1094,261.2969 Z M264.625,259.0625 L267.6094,259.0625 L270.9688,271.4531 L268.5156,271.4531 L267.75,268.3906 L264.4688,268.3906 L263.7188,271.4531 L261.2813,271.4531 L264.625,259.0625 Z "/><text fill="#000000" font-family="Verdana" font-size="12" font-style="italic" lengthAdjust="spacingAndGlyphs" textLength="54" x="280" y="270.7256">Renderer</text><line style="stroke: #000000; stroke-width: 1.5;" x1="252" x2="336" y1="281.9531" y2="281.9531"/><line style="stroke: #000000; stroke-width: 1.5;" x1="252" x2="336" y1="289.9531" y2="289.9531"/><rect fill="#FFFFFF" height="86.4141" style="stroke: #000000; stroke-width: 1.5;" width="252" x="407" y="230.9531"/><ellipse cx="426.95" cy="246.9531" fill="#FFFFFF" rx="11" ry="11" style="stroke: #000000; stroke-width: 1.0;"/><path d="M427.7938,253.7031 L425.3406,253.7031 L425.3406,243.4531 L422.2,243.4531 L422.2,241.3125 L430.9344,241.3125 L430.9344,243.4531 L427.7938,243.4531 L427.7938,253.7031 Z "/><text fill="#000000" font-family="Verdana" font-size="12" lengthAdjust="spacingAndGlyphs" textLength="209" x="442.05" y="251.7256">DynamicRendererImplementation</text><line style="stroke: #000000; stroke-width: 1.5;" x1="408" x2="658" y1="262.9531" y2="262.9531"/><rect fill="none" height="6" style="stroke: #C82930; stroke-width: 1.0;" width="6" x="415" y="271.8555"/><text fill="#000000" font-family="sans-serif" font-size="11" lengthAdjust="spacingAndGlyphs" textLength="53" x="427" y="277.1636">Callable[]</text><text fill="#000000" font-family="sans-serif" font-size="11" font-weight="bold" lengthAdjust="spacingAndGlyphs" textLength="56" x="484" y="277.1636">handlers</text><line style="stroke: #000000; stroke-width: 1.5;" x1="408" x2="658" y1="283.7578" y2="283.7578"/><ellipse cx="418" cy="295.6602" fill="#84BE84" rx="3" ry="3" style="stroke: #038048; stroke-width: 1.0;"/><text fill="#000000" font-family="sans-serif" font-size="11" font-weight="bold" lengthAdjust="spacingAndGlyphs" textLength="132" x="427" y="297.9683">registerContentType</text><text fill="#000000" font-family="sans-serif" font-size="11" lengthAdjust="spacingAndGlyphs" textLength="94" x="559" y="297.9683">(string, Callable)</text><ellipse cx="418" cy="308.4648" fill="#84BE84" rx="3" ry="3" style="stroke: #038048; stroke-width: 1.0;"/><text fill="#000000" font-family="sans-serif" font-size="11" font-weight="bold" lengthAdjust="spacingAndGlyphs" textLength="35" x="427" y="310.7729">__call</text><text fill="#000000" font-family="sans-serif" font-size="11" lengthAdjust="spacingAndGlyphs" textLength="73" x="462" y="310.7729">(string [, ...])</text><rect fill="#FFFFFF" height="48" style="stroke: #000000; stroke-width: 1.5;" width="86" x="887" y="80.9531"/><ellipse cx="902" cy="96.9531" fill="#FFFFFF" rx="11" ry="11" style="stroke: #000000; stroke-width: 1.0;"/><path d="M902.1094,92.2969 L900.9531,97.375 L903.2813,97.375 L902.1094,92.2969 Z M900.625,90.0625 L903.6094,90.0625 L906.9688,102.4531 L904.5156,102.4531 L903.75,99.3906 L900.4688,99.3906 L899.7188,102.4531 L897.2813,102.4531 L900.625,90.0625 Z "/><text fill="#000000" font-family="Verdana" font-size="12" font-style="italic" lengthAdjust="spacingAndGlyphs" textLength="54" x="916" y="101.7256">Renderer</text><line style="stroke: #000000; stroke-width: 1.5;" x1="888" x2="972" y1="112.9531" y2="112.9531"/><line style="stroke: #000000; stroke-width: 1.5;" x1="888" x2="972" y1="120.9531" y2="120.9531"/><rect fill="#FFFFFF" height="73.6094" style="stroke: #000000; stroke-width: 1.5;" width="226" x="715" y="236.9531"/><ellipse cx="780.75" cy="252.9531" fill="#FFFFFF" rx="11" ry="11" style="stroke: #000000; stroke-width: 1.0;"/><path d="M783.7188,258.5938 Q783.1406,258.8906 782.5,259.0391 Q781.8594,259.1875 781.1563,259.1875 Q778.6563,259.1875 777.3359,257.5391 Q776.0156,255.8906 776.0156,252.7656 Q776.0156,249.6406 777.3359,247.9844 Q778.6563,246.3281 781.1563,246.3281 Q781.8594,246.3281 782.5078,246.4844 Q783.1563,246.6406 783.7188,246.9375 L783.7188,249.6563 Q783.0938,249.0781 782.5,248.8047 Q781.9063,248.5313 781.2813,248.5313 Q779.9375,248.5313 779.25,249.6016 Q778.5625,250.6719 778.5625,252.7656 Q778.5625,254.8594 779.25,255.9297 Q779.9375,257 781.2813,257 Q781.9063,257 782.5,256.7266 Q783.0938,256.4531 783.7188,255.875 L783.7188,258.5938 Z "/><text fill="#000000" font-family="Verdana" font-size="12" lengthAdjust="spacingAndGlyphs" textLength="86" x="801.25" y="257.7256">HtmlRenderer</text><line style="stroke: #000000; stroke-width: 1.5;" x1="716" x2="940" y1="268.9531" y2="268.9531"/><rect fill="none" height="6" style="stroke: #C82930; stroke-width: 1.0;" width="6" x="723" y="277.8555"/><text fill="#000000" font-family="sans-serif" font-size="11" lengthAdjust="spacingAndGlyphs" textLength="81" x="735" y="283.1636">ScriptStrategy</text><text fill="#000000" font-family="sans-serif" font-size="11" font-weight="bold" lengthAdjust="spacingAndGlyphs" textLength="73" x="820" y="283.1636">clientScript</text><line style="stroke: #000000; stroke-width: 1.5;" x1="716" x2="940" y1="289.7578" y2="289.7578"/><ellipse cx="726" cy="301.6602" fill="#84BE84" rx="3" ry="3" style="stroke: #038048; stroke-width: 1.0;"/><text fill="#000000" font-family="sans-serif" font-size="11" font-weight="bold" lengthAdjust="spacingAndGlyphs" textLength="111" x="735" y="303.9683">setScriptStrategy</text><text fill="#000000" font-family="sans-serif" font-size="11" lengthAdjust="spacingAndGlyphs" textLength="89" x="846" y="303.9683">(ScriptStrategy)</text><rect fill="#FFFFFF" height="48" style="stroke: #000000; stroke-width: 1.5;" width="110" x="976" y="249.9531"/><ellipse cx="991" cy="265.9531" fill="#FFFFFF" rx="11" ry="11" style="stroke: #000000; stroke-width: 1.0;"/><path d="M993.9688,271.5938 Q993.3906,271.8906 992.75,272.0391 Q992.1094,272.1875 991.4063,272.1875 Q988.9063,272.1875 987.5859,270.5391 Q986.2656,268.8906 986.2656,265.7656 Q986.2656,262.6406 987.5859,260.9844 Q988.9063,259.3281 991.4063,259.3281 Q992.1094,259.3281 992.7578,259.4844 Q993.4063,259.6406 993.9688,259.9375 L993.9688,262.6563 Q993.3438,262.0781 992.75,261.8047 Q992.1563,261.5313 991.5313,261.5313 Q990.1875,261.5313 989.5,262.6016 Q988.8125,263.6719 988.8125,265.7656 Q988.8125,267.8594 989.5,268.9297 Q990.1875,270 991.5313,270 Q992.1563,270 992.75,269.7266 Q993.3438,269.4531 993.9688,268.875 L993.9688,271.5938 Z "/><text fill="#000000" font-family="Verdana" font-size="12" lengthAdjust="spacingAndGlyphs" textLength="78" x="1005" y="270.7256">PdfRenderer</text><line style="stroke: #000000; stroke-width: 1.5;" x1="977" x2="1085" y1="281.9531" y2="281.9531"/><line style="stroke: #000000; stroke-width: 1.5;" x1="977" x2="1085" y1="289.9531" y2="289.9531"/><rect fill="#FFFFFF" height="48" style="stroke: #000000; stroke-width: 1.5;" width="144" x="1121" y="249.9531"/><ellipse cx="1136" cy="265.9531" fill="#FFFFFF" rx="11" ry="11" style="stroke: #000000; stroke-width: 1.0;"/><path d="M1138.9688,271.5938 Q1138.3906,271.8906 1137.75,272.0391 Q1137.1094,272.1875 1136.4063,272.1875 Q1133.9063,272.1875 1132.5859,270.5391 Q1131.2656,268.8906 1131.2656,265.7656 Q1131.2656,262.6406 1132.5859,260.9844 Q1133.9063,259.3281 1136.4063,259.3281 Q1137.1094,259.3281 1137.7578,259.4844 Q1138.4063,259.6406 1138.9688,259.9375 L1138.9688,262.6563 Q1138.3438,262.0781 1137.75,261.8047 Q1137.1563,261.5313 1136.5313,261.5313 Q1135.1875,261.5313 1134.5,262.6016 Q1133.8125,263.6719 1133.8125,265.7656 Q1133.8125,267.8594 1134.5,268.9297 Q1135.1875,270 1136.5313,270 Q1137.1563,270 1137.75,269.7266 Q1138.3438,269.4531 1138.9688,268.875 L1138.9688,271.5938 Z "/><text fill="#000000" font-family="Verdana" font-size="12" lengthAdjust="spacingAndGlyphs" textLength="112" x="1150" y="270.7256">DocBookRenderer</text><line style="stroke: #000000; stroke-width: 1.5;" x1="1122" x2="1264" y1="281.9531" y2="281.9531"/><line style="stroke: #000000; stroke-width: 1.5;" x1="1122" x2="1264" y1="289.9531" y2="289.9531"/><rect fill="#FFFFFF" height="48" style="stroke: #000000; stroke-width: 1.5;" width="86" x="201" y="402.9531"/><ellipse cx="216" cy="418.9531" fill="#FFFFFF" rx="11" ry="11" style="stroke: #000000; stroke-width: 1.0;"/><path d="M216.1094,414.2969 L214.9531,419.375 L217.2813,419.375 L216.1094,414.2969 Z M214.625,412.0625 L217.6094,412.0625 L220.9688,424.4531 L218.5156,424.4531 L217.75,421.3906 L214.4688,421.3906 L213.7188,424.4531 L211.2813,424.4531 L214.625,412.0625 Z "/><text fill="#000000" font-family="Verdana" font-size="12" font-style="italic" lengthAdjust="spacingAndGlyphs" textLength="54" x="230" y="423.7256">Renderer</text><line style="stroke: #000000; stroke-width: 1.5;" x1="202" x2="286" y1="434.9531" y2="434.9531"/><line style="stroke: #000000; stroke-width: 1.5;" x1="202" x2="286" y1="442.9531" y2="442.9531"/><rect fill="#FFFFFF" height="48" style="stroke: #000000; stroke-width: 1.5;" width="112" x="38.5" y="512.9531"/><ellipse cx="53.5" cy="528.9531" fill="#FFFFFF" rx="11" ry="11" style="stroke: #000000; stroke-width: 1.0;"/><path d="M56.4688,534.5938 Q55.8906,534.8906 55.25,535.0391 Q54.6094,535.1875 53.9063,535.1875 Q51.4063,535.1875 50.0859,533.5391 Q48.7656,531.8906 48.7656,528.7656 Q48.7656,525.6406 50.0859,523.9844 Q51.4063,522.3281 53.9063,522.3281 Q54.6094,522.3281 55.2578,522.4844 Q55.9063,522.6406 56.4688,522.9375 L56.4688,525.6563 Q55.8438,525.0781 55.25,524.8047 Q54.6563,524.5313 54.0313,524.5313 Q52.6875,524.5313 52,525.6016 Q51.3125,526.6719 51.3125,528.7656 Q51.3125,530.8594 52,531.9297 Q52.6875,533 54.0313,533 Q54.6563,533 55.25,532.7266 Q55.8438,532.4531 56.4688,531.875 L56.4688,534.5938 Z "/><text fill="#000000" font-family="Verdana" font-size="12" lengthAdjust="spacingAndGlyphs" textLength="80" x="67.5" y="533.7256">XmlRenderer</text><line style="stroke: #000000; stroke-width: 1.5;" x1="39.5" x2="149.5" y1="544.9531" y2="544.9531"/><line style="stroke: #000000; stroke-width: 1.5;" x1="39.5" x2="149.5" y1="552.9531" y2="552.9531"/><rect fill="#FFFFFF" height="48" style="stroke: #000000; stroke-width: 1.5;" width="118" x="185" y="512.9531"/><ellipse cx="200" cy="528.9531" fill="#FFFFFF" rx="11" ry="11" style="stroke: #000000; stroke-width: 1.0;"/><path d="M202.9688,534.5938 Q202.3906,534.8906 201.75,535.0391 Q201.1094,535.1875 200.4063,535.1875 Q197.9063,535.1875 196.5859,533.5391 Q195.2656,531.8906 195.2656,528.7656 Q195.2656,525.6406 196.5859,523.9844 Q197.9063,522.3281 200.4063,522.3281 Q201.1094,522.3281 201.7578,522.4844 Q202.4063,522.6406 202.9688,522.9375 L202.9688,525.6563 Q202.3438,525.0781 201.75,524.8047 Q201.1563,524.5313 200.5313,524.5313 Q199.1875,524.5313 198.5,525.6016 Q197.8125,526.6719 197.8125,528.7656 Q197.8125,530.8594 198.5,531.9297 Q199.1875,533 200.5313,533 Q201.1563,533 201.75,532.7266 Q202.3438,532.4531 202.9688,531.875 L202.9688,534.5938 Z "/><text fill="#000000" font-family="Verdana" font-size="12" lengthAdjust="spacingAndGlyphs" textLength="86" x="214" y="533.7256">JsonRenderer</text><line style="stroke: #000000; stroke-width: 1.5;" x1="186" x2="302" y1="544.9531" y2="544.9531"/><line style="stroke: #000000; stroke-width: 1.5;" x1="186" x2="302" y1="552.9531" y2="552.9531"/><rect fill="#FFFFFF" height="48" style="stroke: #000000; stroke-width: 1.5;" width="90" x="365" y="402.9531"/><ellipse cx="380" cy="418.9531" fill="#FFFFFF" rx="11" ry="11" style="stroke: #000000; stroke-width: 1.0;"/><path d="M382.9688,424.5938 Q382.3906,424.8906 381.75,425.0391 Q381.1094,425.1875 380.4063,425.1875 Q377.9063,425.1875 376.5859,423.5391 Q375.2656,421.8906 375.2656,418.7656 Q375.2656,415.6406 376.5859,413.9844 Q377.9063,412.3281 380.4063,412.3281 Q381.1094,412.3281 381.7578,412.4844 Q382.4063,412.6406 382.9688,412.9375 L382.9688,415.6563 Q382.3438,415.0781 381.75,414.8047 Q381.1563,414.5313 380.5313,414.5313 Q379.1875,414.5313 378.5,415.6016 Q377.8125,416.6719 377.8125,418.7656 Q377.8125,420.8594 378.5,421.9297 Q379.1875,423 380.5313,423 Q381.1563,423 381.75,422.7266 Q382.3438,422.4531 382.9688,421.875 L382.9688,424.5938 Z "/><text fill="#000000" font-family="Verdana" font-size="12" lengthAdjust="spacingAndGlyphs" textLength="58" x="394" y="423.7256">Renderer</text><line style="stroke: #000000; stroke-width: 1.5;" x1="366" x2="454" y1="434.9531" y2="434.9531"/><line style="stroke: #000000; stroke-width: 1.5;" x1="366" x2="454" y1="442.9531" y2="442.9531"/><rect fill="#FFFFFF" height="48" style="stroke: #000000; stroke-width: 1.5;" width="116" x="359.5" y="512.9531"/><ellipse cx="374.5" cy="528.9531" fill="#FFFFFF" rx="11" ry="11" style="stroke: #000000; stroke-width: 1.0;"/><path d="M377.4688,534.5938 Q376.8906,534.8906 376.25,535.0391 Q375.6094,535.1875 374.9063,535.1875 Q372.4063,535.1875 371.0859,533.5391 Q369.7656,531.8906 369.7656,528.7656 Q369.7656,525.6406 371.0859,523.9844 Q372.4063,522.3281 374.9063,522.3281 Q375.6094,522.3281 376.2578,522.4844 Q376.9063,522.6406 377.4688,522.9375 L377.4688,525.6563 Q376.8438,525.0781 376.25,524.8047 Q375.6563,524.5313 375.0313,524.5313 Q373.6875,524.5313 373,525.6016 Q372.3125,526.6719 372.3125,528.7656 Q372.3125,530.8594 373,531.9297 Q373.6875,533 375.0313,533 Q375.6563,533 376.25,532.7266 Q376.8438,532.4531 377.4688,531.875 L377.4688,534.5938 Z "/><text fill="#000000" font-family="Verdana" font-size="12" lengthAdjust="spacingAndGlyphs" textLength="84" x="388.5" y="533.7256">AnsiRenderer</text><line style="stroke: #000000; stroke-width: 1.5;" x1="360.5" x2="474.5" y1="544.9531" y2="544.9531"/><line style="stroke: #000000; stroke-width: 1.5;" x1="360.5" x2="474.5" y1="552.9531" y2="552.9531"/><path d="M294,134.2221 C294,165.0261 294,214.0141 294,244.7801 " fill="none" style="stroke: #000000; stroke-width: 1.0;"/><polygon fill="#000000" points="294,249.9301,298,240.9301,294,244.9301,290,240.9301,294,249.9301" style="stroke: #000000; stroke-width: 1.0;"/><polygon fill="#000000" points="294,129.1741,290,138.1741,294,134.1741,298,138.1741,294,129.1741" style="stroke: #000000; stroke-width: 1.0;"/><text fill="#000000" font-family="Verdana" font-size="12" lengthAdjust="spacingAndGlyphs" textLength="46" x="295" y="174.5176">«uses»</text><path d="M886.675,109.1931 C774.565,118.0881 477.519,145.0451 389,186.9531 C365.171,198.2341 343.046,217.5011 326.153,234.9411 " fill="none" style="stroke: #000000; stroke-width: 1.0; stroke-dasharray: 7.0,7.0;"/><polygon fill="none" points="331.154,239.8451,312.479,249.8561,320.835,230.3841,331.154,239.8451" style="stroke: #000000; stroke-width: 1.0;"/><path d="M905.383,146.2581 C888.536,173.8411 866.388,210.1021 850.105,236.7611 " fill="none" style="stroke: #000000; stroke-width: 1.0; stroke-dasharray: 7.0,7.0;"/><polygon fill="none" points="899.419,142.5931,915.817,129.1741,911.366,149.8911,899.419,142.5931" style="stroke: #000000; stroke-width: 1.0;"/><path d="M954.634,146.6851 C974.25,179.1191 1000.998,223.3451 1017.08,249.9301 " fill="none" style="stroke: #000000; stroke-width: 1.0; stroke-dasharray: 7.0,7.0;"/><polygon fill="none" points="948.404,149.9101,944.044,129.1741,960.384,142.6651,948.404,149.9101" style="stroke: #000000; stroke-width: 1.0;"/><path d="M991.943,128.8761 C1026.43,143.0591 1069.29,163.1041 1104,186.9531 C1130.39,205.0821 1156.21,231.2411 1173.18,249.9411 " fill="none" style="stroke: #000000; stroke-width: 1.0; stroke-dasharray: 7.0,7.0;"/><polygon fill="none" points="989.221,135.3271,973.237,121.4161,994.408,122.3231,989.221,135.3271" style="stroke: #000000; stroke-width: 1.0;"/><path d="M280.001,317.2291 C270.813,344.9771 259.149,380.2041 251.63,402.9121 " fill="none" style="stroke: #000000; stroke-width: 1.0; stroke-dasharray: 7.0,7.0;"/><polygon fill="none" points="273.365,315.0021,286.297,298.2161,286.655,319.4021,273.365,315.0021" style="stroke: #000000; stroke-width: 1.0;"/><path d="M195.352,462.9801 C172.661,479.3171 146.282,498.3097 126.126,512.8227 " fill="none" style="stroke: #000000; stroke-width: 1.0; stroke-dasharray: 7.0,7.0;"/><polygon fill="none" points="191.5,457.1271,211.821,451.1221,199.681,468.4891,191.5,457.1271" style="stroke: #000000; stroke-width: 1.0;"/><path d="M244,471.3371 C244,485.5241 244,500.7286 244,512.8227 " fill="none" style="stroke: #000000; stroke-width: 1.0; stroke-dasharray: 7.0,7.0;"/><polygon fill="none" points="237,471.1221,244,451.1221,251,471.1221,237,471.1221" style="stroke: #000000; stroke-width: 1.0;"/><path d="M324.314,314.4131 C345.934,342.5561 374.259,379.4281 392.299,402.9121 " fill="none" style="stroke: #000000; stroke-width: 1.0; stroke-dasharray: 7.0,7.0;"/><polygon fill="none" points="318.504,318.3411,311.871,298.2161,329.606,309.8121,318.504,318.3411" style="stroke: #000000; stroke-width: 1.0;"/><path d="M412.796,471.0861 C413.72,485.3451 414.712,500.6574 415.501,512.8227 " fill="none" style="stroke: #000000; stroke-width: 1.0;"/><polygon fill="none" points="405.81,471.5331,411.502,451.1221,419.781,470.6271,405.81,471.5331" style="stroke: #000000; stroke-width: 1.0;"/><path d="M350.448,273.9531 C364.865,273.9531 379.281,273.9531 393.698,273.9531 " fill="none" style="stroke: #000000; stroke-width: 1.0;"/><polygon fill="#000000" points="406.937,273.9531,397.937,269.9531,401.937,273.9531,397.937,277.9531,406.937,273.9531" style="stroke: #000000; stroke-width: 1.0;"/><line style="stroke: #000000; stroke-width: 1.0;" x1="401.937" x2="393.9375" y1="273.9531" y2="273.9531"/><polygon fill="#000000" points="337.412,273.9531,343.412,277.9531,349.412,273.9531,343.412,269.9531,337.412,273.9531" style="stroke: #000000; stroke-width: 1.0;"/></g></svg>