<?xml version="1.0" encoding="UTF-8" standalone="yes"?><svg xmlns="http://www.w3.org/2000/svg" xmlns:xlink="http://www.w3.org/1999/xlink" height="553px" style="width:836px;height:553px;" version="1.1" viewBox="0 0 836 553" width="836px"><defs/><g><text fill="#000000" font-family="sans-serif" font-size="18" lengthAdjust="spacingAndGlyphs" textLength="161" x="354" y="16.708">Content Renderer</text><polygon fill="#FFFFFF" points="595,44.9531,720,44.9531,727,67.25,731,67.25,731,144.9531,595,144.9531,595,44.9531" style="stroke: #000000; stroke-width: 2.0;"/><line style="stroke: #000000; stroke-width: 2.0;" x1="595" x2="727" y1="67.25" y2="67.25"/><text fill="#000000" font-family="sans-serif" font-size="14" font-weight="bold" lengthAdjust="spacingAndGlyphs" textLength="119" x="598" y="60.9482">Joomla.Content</text><polygon fill="#FFFFFF" points="588,194.9531,722,194.9531,729,217.25,733,217.25,733,308.9531,588,308.9531,588,194.9531" style="stroke: #000000; stroke-width: 2.0;"/><line style="stroke: #000000; stroke-width: 2.0;" x1="588" x2="729" y1="217.25" y2="217.25"/><text fill="#000000" font-family="sans-serif" font-size="14" font-weight="bold" lengthAdjust="spacingAndGlyphs" textLength="128" x="591" y="210.9482">Joomla.Frontend</text><polygon fill="#FFFFFF" points="22,44.9531,202,44.9531,209,67.25,564,67.25,564,308.9531,22,308.9531,22,44.9531" style="stroke: #000000; stroke-width: 2.0;"/><line style="stroke: #000000; stroke-width: 2.0;" x1="22" x2="209" y1="67.25" y2="67.25"/><text fill="#000000" font-family="sans-serif" font-size="14" font-weight="bold" lengthAdjust="spacingAndGlyphs" textLength="174" x="25" y="60.9482">Joomla.Frontend.HTTP</text><polygon fill="#FFFFFF" points="340,342.9531,518,342.9531,525,365.25,637,365.25,637,552.9531,340,552.9531,340,342.9531" style="stroke: #000000; stroke-width: 2.0;"/><line style="stroke: #000000; stroke-width: 2.0;" x1="340" x2="525" y1="365.25" y2="365.25"/><text fill="#000000" font-family="sans-serif" font-size="14" font-weight="bold" lengthAdjust="spacingAndGlyphs" textLength="172" x="343" y="358.9482">Joomla.Frontend.REST</text><polygon fill="#FFFFFF" points="661,342.9531,824,342.9531,831,365.25,835,365.25,835,552.9531,661,552.9531,661,342.9531" style="stroke: #000000; stroke-width: 2.0;"/><line style="stroke: #000000; stroke-width: 2.0;" x1="661" x2="831" y1="365.25" y2="365.25"/><text fill="#000000" font-family="sans-serif" font-size="14" font-weight="bold" lengthAdjust="spacingAndGlyphs" textLength="157" x="664" y="358.9482">Joomla.Frontend.CLI</text><rect fill="#FFFFFF" height="48" style="stroke: #000000; stroke-width: 1.5;" width="80" x="617" y="80.9531"/><ellipse cx="632" cy="96.9531" fill="#FFFFFF" rx="11" ry="11" style="stroke: #000000; stroke-width: 1.0;"/><path d="M627.9219,92.7188 L627.9219,90.5625 L635.3125,90.5625 L635.3125,92.7188 L632.8438,92.7188 L632.8438,100.7969 L635.3125,100.7969 L635.3125,102.9531 L627.9219,102.9531 L627.9219,100.7969 L630.3906,100.7969 L630.3906,92.7188 L627.9219,92.7188 Z "/><text fill="#000000" font-family="Verdana" font-size="12" font-style="italic" lengthAdjust="spacingAndGlyphs" textLength="48" x="646" y="101.7256">Content</text><line style="stroke: #000000; stroke-width: 1.5;" x1="618" x2="696" y1="112.9531" y2="112.9531"/><line style="stroke: #000000; stroke-width: 1.5;" x1="618" x2="696" y1="120.9531" y2="120.9531"/><rect fill="#FFFFFF" height="60.8047" style="stroke: #000000; stroke-width: 1.5;" width="105" x="604.75" y="231.4531"/><ellipse cx="628.3" cy="247.4531" fill="#FFFFFF" rx="11" ry="11" style="stroke: #000000; stroke-width: 1.0;"/><path d="M624.2219,243.2188 L624.2219,241.0625 L631.6125,241.0625 L631.6125,243.2188 L629.1438,243.2188 L629.1438,251.2969 L631.6125,251.2969 L631.6125,253.4531 L624.2219,253.4531 L624.2219,251.2969 L626.6906,251.2969 L626.6906,243.2188 L624.2219,243.2188 Z "/><text fill="#000000" font-family="Verdana" font-size="12" font-style="italic" lengthAdjust="spacingAndGlyphs" textLength="54" x="644.2" y="252.2256">Renderer</text><line style="stroke: #000000; stroke-width: 1.5;" x1="605.75" x2="708.75" y1="263.4531" y2="263.4531"/><line style="stroke: #000000; stroke-width: 1.5;" x1="605.75" x2="708.75" y1="271.4531" y2="271.4531"/><ellipse cx="615.75" cy="283.3555" fill="#84BE84" rx="3" ry="3" style="stroke: #038048; stroke-width: 1.0;"/><text fill="#000000" font-family="sans-serif" font-size="11" font-style="italic" font-weight="bold" lengthAdjust="spacingAndGlyphs" textLength="27" x="624.75" y="285.6636">visit</text><text fill="#000000" font-family="sans-serif" font-size="11" font-style="italic" lengthAdjust="spacingAndGlyphs" textLength="52" x="651.75" y="285.6636">(Content)</text><rect fill="#FFFFFF" height="48" style="stroke: #000000; stroke-width: 1.5;" width="86" x="352" y="80.9531"/><ellipse cx="367" cy="96.9531" fill="#FFFFFF" rx="11" ry="11" style="stroke: #000000; stroke-width: 1.0;"/><path d="M362.9219,92.7188 L362.9219,90.5625 L370.3125,90.5625 L370.3125,92.7188 L367.8438,92.7188 L367.8438,100.7969 L370.3125,100.7969 L370.3125,102.9531 L362.9219,102.9531 L362.9219,100.7969 L365.3906,100.7969 L365.3906,92.7188 L362.9219,92.7188 Z "/><text fill="#000000" font-family="Verdana" font-size="12" font-style="italic" lengthAdjust="spacingAndGlyphs" textLength="54" x="381" y="101.7256">Renderer</text><line style="stroke: #000000; stroke-width: 1.5;" x1="353" x2="437" y1="112.9531" y2="112.9531"/><line style="stroke: #000000; stroke-width: 1.5;" x1="353" x2="437" y1="120.9531" y2="120.9531"/><rect fill="#FFFFFF" height="60.8047" style="stroke: #000000; stroke-width: 1.5;" width="186" x="38.5" y="231.4531"/><ellipse cx="81.85" cy="247.4531" fill="#FFFFFF" rx="11" ry="11" style="stroke: #000000; stroke-width: 1.0;"/><path d="M84.8188,253.0938 Q84.2406,253.3906 83.6,253.5391 Q82.9594,253.6875 82.2563,253.6875 Q79.7563,253.6875 78.4359,252.0391 Q77.1156,250.3906 77.1156,247.2656 Q77.1156,244.1406 78.4359,242.4844 Q79.7563,240.8281 82.2563,240.8281 Q82.9594,240.8281 83.6078,240.9844 Q84.2563,241.1406 84.8188,241.4375 L84.8188,244.1563 Q84.1938,243.5781 83.6,243.3047 Q83.0063,243.0313 82.3813,243.0313 Q81.0375,243.0313 80.35,244.1016 Q79.6625,245.1719 79.6625,247.2656 Q79.6625,249.3594 80.35,250.4297 Q81.0375,251.5 82.3813,251.5 Q83.0063,251.5 83.6,251.2266 Q84.1938,250.9531 84.8188,250.375 L84.8188,253.0938 Z "/><text fill="#000000" font-family="Verdana" font-size="12" lengthAdjust="spacingAndGlyphs" textLength="91" x="102.15" y="252.2256">HTMLRenderer</text><line style="stroke: #000000; stroke-width: 1.5;" x1="39.5" x2="223.5" y1="263.4531" y2="263.4531"/><polygon fill="none" points="49.5,270.3555,53.5,274.3555,49.5,278.3555,45.5,274.3555" style="stroke: #B38D22; stroke-width: 1.0;"/><text fill="#000000" font-family="sans-serif" font-size="11" lengthAdjust="spacingAndGlyphs" textLength="120" x="58.5" y="277.6636">ClientScriptStragtegy</text><text fill="#000000" font-family="sans-serif" font-size="11" font-weight="bold" lengthAdjust="spacingAndGlyphs" textLength="36" x="182.5" y="277.6636">script</text><line style="stroke: #000000; stroke-width: 1.5;" x1="39.5" x2="223.5" y1="284.2578" y2="284.2578"/><rect fill="#FFFFFF" height="48" style="stroke: #000000; stroke-width: 1.5;" width="110" x="259" y="237.9531"/><ellipse cx="274" cy="253.9531" fill="#FFFFFF" rx="11" ry="11" style="stroke: #000000; stroke-width: 1.0;"/><path d="M276.9688,259.5938 Q276.3906,259.8906 275.75,260.0391 Q275.1094,260.1875 274.4063,260.1875 Q271.9063,260.1875 270.5859,258.5391 Q269.2656,256.8906 269.2656,253.7656 Q269.2656,250.6406 270.5859,248.9844 Q271.9063,247.3281 274.4063,247.3281 Q275.1094,247.3281 275.7578,247.4844 Q276.4063,247.6406 276.9688,247.9375 L276.9688,250.6563 Q276.3438,250.0781 275.75,249.8047 Q275.1563,249.5313 274.5313,249.5313 Q273.1875,249.5313 272.5,250.6016 Q271.8125,251.6719 271.8125,253.7656 Q271.8125,255.8594 272.5,256.9297 Q273.1875,258 274.5313,258 Q275.1563,258 275.75,257.7266 Q276.3438,257.4531 276.9688,256.875 L276.9688,259.5938 Z "/><text fill="#000000" font-family="Verdana" font-size="12" lengthAdjust="spacingAndGlyphs" textLength="78" x="288" y="258.7256">PdfRenderer</text><line style="stroke: #000000; stroke-width: 1.5;" x1="260" x2="368" y1="269.9531" y2="269.9531"/><line style="stroke: #000000; stroke-width: 1.5;" x1="260" x2="368" y1="277.9531" y2="277.9531"/><rect fill="#FFFFFF" height="48" style="stroke: #000000; stroke-width: 1.5;" width="144" x="404" y="237.9531"/><ellipse cx="419" cy="253.9531" fill="#FFFFFF" rx="11" ry="11" style="stroke: #000000; stroke-width: 1.0;"/><path d="M421.9688,259.5938 Q421.3906,259.8906 420.75,260.0391 Q420.1094,260.1875 419.4063,260.1875 Q416.9063,260.1875 415.5859,258.5391 Q414.2656,256.8906 414.2656,253.7656 Q414.2656,250.6406 415.5859,248.9844 Q416.9063,247.3281 419.4063,247.3281 Q420.1094,247.3281 420.7578,247.4844 Q421.4063,247.6406 421.9688,247.9375 L421.9688,250.6563 Q421.3438,250.0781 420.75,249.8047 Q420.1563,249.5313 419.5313,249.5313 Q418.1875,249.5313 417.5,250.6016 Q416.8125,251.6719 416.8125,253.7656 Q416.8125,255.8594 417.5,256.9297 Q418.1875,258 419.5313,258 Q420.1563,258 420.75,257.7266 Q421.3438,257.4531 421.9688,256.875 L421.9688,259.5938 Z "/><text fill="#000000" font-family="Verdana" font-size="12" lengthAdjust="spacingAndGlyphs" textLength="112" x="433" y="258.7256">DocBookRenderer</text><line style="stroke: #000000; stroke-width: 1.5;" x1="405" x2="547" y1="269.9531" y2="269.9531"/><line style="stroke: #000000; stroke-width: 1.5;" x1="405" x2="547" y1="277.9531" y2="277.9531"/><rect fill="#FFFFFF" height="48" style="stroke: #000000; stroke-width: 1.5;" width="86" x="519" y="378.9531"/><ellipse cx="534" cy="394.9531" fill="#FFFFFF" rx="11" ry="11" style="stroke: #000000; stroke-width: 1.0;"/><path d="M529.9219,390.7188 L529.9219,388.5625 L537.3125,388.5625 L537.3125,390.7188 L534.8438,390.7188 L534.8438,398.7969 L537.3125,398.7969 L537.3125,400.9531 L529.9219,400.9531 L529.9219,398.7969 L532.3906,398.7969 L532.3906,390.7188 L529.9219,390.7188 Z "/><text fill="#000000" font-family="Verdana" font-size="12" font-style="italic" lengthAdjust="spacingAndGlyphs" textLength="54" x="548" y="399.7256">Renderer</text><line style="stroke: #000000; stroke-width: 1.5;" x1="520" x2="604" y1="410.9531" y2="410.9531"/><line style="stroke: #000000; stroke-width: 1.5;" x1="520" x2="604" y1="418.9531" y2="418.9531"/><rect fill="#FFFFFF" height="48" style="stroke: #000000; stroke-width: 1.5;" width="112" x="356.5" y="488.9531"/><ellipse cx="371.5" cy="504.9531" fill="#FFFFFF" rx="11" ry="11" style="stroke: #000000; stroke-width: 1.0;"/><path d="M374.4688,510.5938 Q373.8906,510.8906 373.25,511.0391 Q372.6094,511.1875 371.9063,511.1875 Q369.4063,511.1875 368.0859,509.5391 Q366.7656,507.8906 366.7656,504.7656 Q366.7656,501.6406 368.0859,499.9844 Q369.4063,498.3281 371.9063,498.3281 Q372.6094,498.3281 373.2578,498.4844 Q373.9063,498.6406 374.4688,498.9375 L374.4688,501.6563 Q373.8438,501.0781 373.25,500.8047 Q372.6563,500.5313 372.0313,500.5313 Q370.6875,500.5313 370,501.6016 Q369.3125,502.6719 369.3125,504.7656 Q369.3125,506.8594 370,507.9297 Q370.6875,509 372.0313,509 Q372.6563,509 373.25,508.7266 Q373.8438,508.4531 374.4688,507.875 L374.4688,510.5938 Z "/><text fill="#000000" font-family="Verdana" font-size="12" lengthAdjust="spacingAndGlyphs" textLength="80" x="385.5" y="509.7256">XmlRenderer</text><line style="stroke: #000000; stroke-width: 1.5;" x1="357.5" x2="467.5" y1="520.9531" y2="520.9531"/><line style="stroke: #000000; stroke-width: 1.5;" x1="357.5" x2="467.5" y1="528.9531" y2="528.9531"/><rect fill="#FFFFFF" height="48" style="stroke: #000000; stroke-width: 1.5;" width="118" x="503" y="488.9531"/><ellipse cx="518" cy="504.9531" fill="#FFFFFF" rx="11" ry="11" style="stroke: #000000; stroke-width: 1.0;"/><path d="M520.9688,510.5938 Q520.3906,510.8906 519.75,511.0391 Q519.1094,511.1875 518.4063,511.1875 Q515.9063,511.1875 514.5859,509.5391 Q513.2656,507.8906 513.2656,504.7656 Q513.2656,501.6406 514.5859,499.9844 Q515.9063,498.3281 518.4063,498.3281 Q519.1094,498.3281 519.7578,498.4844 Q520.4063,498.6406 520.9688,498.9375 L520.9688,501.6563 Q520.3438,501.0781 519.75,500.8047 Q519.1563,500.5313 518.5313,500.5313 Q517.1875,500.5313 516.5,501.6016 Q515.8125,502.6719 515.8125,504.7656 Q515.8125,506.8594 516.5,507.9297 Q517.1875,509 518.5313,509 Q519.1563,509 519.75,508.7266 Q520.3438,508.4531 520.9688,507.875 L520.9688,510.5938 Z "/><text fill="#000000" font-family="Verdana" font-size="12" lengthAdjust="spacingAndGlyphs" textLength="86" x="532" y="509.7256">JsonRenderer</text><line style="stroke: #000000; stroke-width: 1.5;" x1="504" x2="620" y1="520.9531" y2="520.9531"/><line style="stroke: #000000; stroke-width: 1.5;" x1="504" x2="620" y1="528.9531" y2="528.9531"/><rect fill="#FFFFFF" height="48" style="stroke: #000000; stroke-width: 1.5;" width="90" x="683" y="378.9531"/><ellipse cx="698" cy="394.9531" fill="#FFFFFF" rx="11" ry="11" style="stroke: #000000; stroke-width: 1.0;"/><path d="M700.9688,400.5938 Q700.3906,400.8906 699.75,401.0391 Q699.1094,401.1875 698.4063,401.1875 Q695.9063,401.1875 694.5859,399.5391 Q693.2656,397.8906 693.2656,394.7656 Q693.2656,391.6406 694.5859,389.9844 Q695.9063,388.3281 698.4063,388.3281 Q699.1094,388.3281 699.7578,388.4844 Q700.4063,388.6406 700.9688,388.9375 L700.9688,391.6563 Q700.3438,391.0781 699.75,390.8047 Q699.1563,390.5313 698.5313,390.5313 Q697.1875,390.5313 696.5,391.6016 Q695.8125,392.6719 695.8125,394.7656 Q695.8125,396.8594 696.5,397.9297 Q697.1875,399 698.5313,399 Q699.1563,399 699.75,398.7266 Q700.3438,398.4531 700.9688,397.875 L700.9688,400.5938 Z "/><text fill="#000000" font-family="Verdana" font-size="12" lengthAdjust="spacingAndGlyphs" textLength="58" x="712" y="399.7256">Renderer</text><line style="stroke: #000000; stroke-width: 1.5;" x1="684" x2="772" y1="410.9531" y2="410.9531"/><line style="stroke: #000000; stroke-width: 1.5;" x1="684" x2="772" y1="418.9531" y2="418.9531"/><rect fill="#FFFFFF" height="48" style="stroke: #000000; stroke-width: 1.5;" width="116" x="677.5" y="488.9531"/><ellipse cx="692.5" cy="504.9531" fill="#FFFFFF" rx="11" ry="11" style="stroke: #000000; stroke-width: 1.0;"/><path d="M695.4688,510.5938 Q694.8906,510.8906 694.25,511.0391 Q693.6094,511.1875 692.9063,511.1875 Q690.4063,511.1875 689.0859,509.5391 Q687.7656,507.8906 687.7656,504.7656 Q687.7656,501.6406 689.0859,499.9844 Q690.4063,498.3281 692.9063,498.3281 Q693.6094,498.3281 694.2578,498.4844 Q694.9063,498.6406 695.4688,498.9375 L695.4688,501.6563 Q694.8438,501.0781 694.25,500.8047 Q693.6563,500.5313 693.0313,500.5313 Q691.6875,500.5313 691,501.6016 Q690.3125,502.6719 690.3125,504.7656 Q690.3125,506.8594 691,507.9297 Q691.6875,509 693.0313,509 Q693.6563,509 694.25,508.7266 Q694.8438,508.4531 695.4688,507.875 L695.4688,510.5938 Z "/><text fill="#000000" font-family="Verdana" font-size="12" lengthAdjust="spacingAndGlyphs" textLength="84" x="706.5" y="509.7256">AnsiRenderer</text><line style="stroke: #000000; stroke-width: 1.5;" x1="678.5" x2="792.5" y1="520.9531" y2="520.9531"/><line style="stroke: #000000; stroke-width: 1.5;" x1="678.5" x2="792.5" y1="528.9531" y2="528.9531"/><path d="M438.066,123.3911 C473.082,138.3151 523.19,161.3941 564,186.9531 C578.794,196.2191 593.967,207.4421 607.653,218.3171 " fill="none" style="stroke: #000000; stroke-width: 1.0; stroke-dasharray: 7.0,7.0;"/><polygon fill="none" points="612.426,213.1781,623.483,231.2551,603.567,224.0181,612.426,213.1781" style="stroke: #000000; stroke-width: 1.0;"/><path d="M333.95,136.1431 C305.329,150.7821 271.001,169.0431 241,186.9531 C217.878,200.7571 192.914,217.4001 172.622,231.4041 " fill="none" style="stroke: #000000; stroke-width: 1.0; stroke-dasharray: 7.0,7.0;"/><polygon fill="none" points="330.826,129.8791,351.831,127.0861,337.152,142.3681,330.826,129.8791" style="stroke: #000000; stroke-width: 1.0;"/><path d="M373.474,147.1461 C358.309,176.1631 338.56,213.9551 326.077,237.8431 " fill="none" style="stroke: #000000; stroke-width: 1.0; stroke-dasharray: 7.0,7.0;"/><polygon fill="none" points="367.406,143.6421,382.873,129.1581,379.814,150.1261,367.406,143.6421" style="stroke: #000000; stroke-width: 1.0;"/><path d="M416.526,147.1461 C431.691,176.1631 451.44,213.9551 463.923,237.8431 " fill="none" style="stroke: #000000; stroke-width: 1.0; stroke-dasharray: 7.0,7.0;"/><polygon fill="none" points="410.186,150.1261,407.127,129.1581,422.594,143.6421,410.186,150.1261" style="stroke: #000000; stroke-width: 1.0;"/><path d="M625.139,309.5711 C609.279,332.7761 590.801,359.8131 577.949,378.6181 " fill="none" style="stroke: #000000; stroke-width: 1.0; stroke-dasharray: 7.0,7.0;"/><polygon fill="none" points="619.556,305.3341,636.62,292.7721,631.114,313.2341,619.556,305.3341" style="stroke: #000000; stroke-width: 1.0;"/><path d="M513.352,438.9801 C490.661,455.3171 464.282,474.3097 444.126,488.8227 " fill="none" style="stroke: #000000; stroke-width: 1.0; stroke-dasharray: 7.0,7.0;"/><polygon fill="none" points="509.5,433.1271,529.821,427.1221,517.681,444.4891,509.5,433.1271" style="stroke: #000000; stroke-width: 1.0;"/><path d="M562,447.3371 C562,461.5241 562,476.7286 562,488.8227 " fill="none" style="stroke: #000000; stroke-width: 1.0; stroke-dasharray: 7.0,7.0;"/><polygon fill="none" points="555,447.1221,562,427.1221,569,447.1221,555,447.1221" style="stroke: #000000; stroke-width: 1.0;"/><path d="M681.336,310.5971 C693.07,333.5701 706.617,360.0901 716.081,378.6181 " fill="none" style="stroke: #000000; stroke-width: 1.0; stroke-dasharray: 7.0,7.0;"/><polygon fill="none" points="675.095,313.7671,672.231,292.7721,687.563,307.3991,675.095,313.7671" style="stroke: #000000; stroke-width: 1.0;"/><path d="M730.796,447.0861 C731.72,461.3451 732.712,476.6574 733.501,488.8227 " fill="none" style="stroke: #000000; stroke-width: 1.0;"/><polygon fill="none" points="723.81,447.5331,729.502,427.1221,737.781,446.6271,723.81,447.5331" style="stroke: #000000; stroke-width: 1.0;"/><path d="M657,134.4591 C657,160.3221 657,198.5241 657,226.1751 " fill="none" style="stroke: #000000; stroke-width: 1.0;"/><polygon fill="#000000" points="657,231.2091,661,222.2091,657,226.2091,653,222.2091,657,231.2091" style="stroke: #000000; stroke-width: 1.0;"/><polygon fill="#000000" points="657,129.1581,653,138.1581,657,134.1581,661,138.1581,657,129.1581" style="stroke: #000000; stroke-width: 1.0;"/><text fill="#000000" font-family="Verdana" font-size="12" lengthAdjust="spacingAndGlyphs" textLength="46" x="658" y="174.5176">«uses»</text></g></svg>