<?xml version="1.0" encoding="UTF-8" standalone="yes"?><svg xmlns="http://www.w3.org/2000/svg" xmlns:xlink="http://www.w3.org/1999/xlink" height="825px" style="width:892px;height:825px;" version="1.1" viewBox="0 0 892 825" width="892px"><defs><filter height="300%" id="f1" width="300%" x="-1" y="-1"><feGaussianBlur result="blurOut" stdDeviation="2.0"/><feColorMatrix in="blurOut" result="blurOut2" type="matrix" values="0 0 0 0 0 0 0 0 0 0 0 0 0 0 0 0 0 0 .4 0"/><feOffset dx="4.0" dy="4.0" in="blurOut2" result="blurOut3"/><feBlend in="SourceGraphic" in2="blurOut3" mode="normal"/></filter></defs><g><text fill="#000000" font-family="sans-serif" font-size="18" lengthAdjust="spacingAndGlyphs" textLength="179" x="370" y="16.708">Command Structure</text><polygon fill="#FFFFFF" filter="url(#f1)" points="22,44.9531,162,44.9531,169,67.25,885,67.25,885,818.9531,22,818.9531,22,44.9531" style="stroke: #000000; stroke-width: 2.0;"/><line style="stroke: #000000; stroke-width: 2.0;" x1="22" x2="169" y1="67.25" y2="67.25"/><text fill="#000000" font-family="sans-serif" font-size="14" font-weight="bold" lengthAdjust="spacingAndGlyphs" textLength="134" x="25" y="60.9482">Joomla.Command</text><rect fill="#FEFECE" filter="url(#f1)" height="112.0234" style="stroke: #A80036; stroke-width: 1.5;" width="209" x="99.75" y="80.9531"/><ellipse cx="169.5" cy="96.9531" fill="#B4A7E5" rx="11" ry="11" style="stroke: #A80036; stroke-width: 1.0;"/><path d="M165.4219,92.7188 L165.4219,90.5625 L172.8125,90.5625 L172.8125,92.7188 L170.3438,92.7188 L170.3438,100.7969 L172.8125,100.7969 L172.8125,102.9531 L165.4219,102.9531 L165.4219,100.7969 L167.8906,100.7969 L167.8906,92.7188 L165.4219,92.7188 Z "/><text fill="#000000" font-family="sans-serif" font-size="12" font-style="italic" lengthAdjust="spacingAndGlyphs" textLength="61" x="190" y="101.1074">Controller</text><line style="stroke: #A80036; stroke-width: 1.5;" x1="100.75" x2="307.75" y1="112.9531" y2="112.9531"/><rect fill="none" height="6" style="stroke: #C82930; stroke-width: 1.0;" width="6" x="107.75" y="121.8555"/><text fill="#000000" font-family="sans-serif" font-size="11" lengthAdjust="spacingAndGlyphs" textLength="116" x="119.75" y="127.1636">CommandProcessor</text><text fill="#000000" font-family="sans-serif" font-size="11" font-weight="bold" lengthAdjust="spacingAndGlyphs" textLength="63" x="239.75" y="127.1636">processor</text><rect fill="none" height="6" style="stroke: #C82930; stroke-width: 1.0;" width="6" x="107.75" y="134.6602"/><text fill="#000000" font-family="sans-serif" font-size="11" lengthAdjust="spacingAndGlyphs" textLength="61" x="119.75" y="139.9683">Dispatcher</text><text fill="#000000" font-family="sans-serif" font-size="11" font-weight="bold" lengthAdjust="spacingAndGlyphs" textLength="68" x="184.75" y="139.9683">dispatcher</text><rect fill="none" height="6" style="stroke: #C82930; stroke-width: 1.0;" width="6" x="107.75" y="147.4648"/><text fill="#000000" font-family="sans-serif" font-size="11" lengthAdjust="spacingAndGlyphs" textLength="28" x="119.75" y="152.7729">Input</text><text fill="#000000" font-family="sans-serif" font-size="11" font-weight="bold" lengthAdjust="spacingAndGlyphs" textLength="33" x="151.75" y="152.7729">input</text><rect fill="none" height="6" style="stroke: #C82930; stroke-width: 1.0;" width="6" x="107.75" y="160.2695"/><text fill="#000000" font-family="sans-serif" font-size="11" lengthAdjust="spacingAndGlyphs" textLength="38" x="119.75" y="165.5776">Output</text><text fill="#000000" font-family="sans-serif" font-size="11" font-weight="bold" lengthAdjust="spacingAndGlyphs" textLength="42" x="161.75" y="165.5776">output</text><line style="stroke: #A80036; stroke-width: 1.5;" x1="100.75" x2="307.75" y1="172.1719" y2="172.1719"/><ellipse cx="110.75" cy="184.0742" fill="#84BE84" rx="3" ry="3" style="stroke: #038048; stroke-width: 1.0;"/><text fill="#000000" font-family="sans-serif" font-size="11" font-style="italic" font-weight="bold" lengthAdjust="spacingAndGlyphs" textLength="21" x="119.75" y="186.3823">run</text><text fill="#000000" font-family="sans-serif" font-size="11" font-style="italic" lengthAdjust="spacingAndGlyphs" textLength="8" x="140.75" y="186.3823">()</text><polygon fill="#FBFB77" filter="url(#f1)" points="474.75,86.4531,474.75,187.25,771.75,187.25,771.75,96.4531,761.75,86.4531,474.75,86.4531" style="stroke: #A80036; stroke-width: 1.0;"/><polygon fill="#FBFB77" points="474.75,86.4531,474.75,132.9531,308.341,136.9531,474.75,140.9531,474.75,187.25,771.75,187.25,771.75,96.4531,761.75,86.4531,474.75,86.4531" style="stroke: #A80036; stroke-width: 1.0;"/><line style="stroke: #A80036; stroke-width: 1.0;" x1="761.75" x2="761.75" y1="86.4531" y2="96.4531"/><line style="stroke: #A80036; stroke-width: 1.0;" x1="771.75" x2="761.75" y1="96.4531" y2="96.4531"/><text fill="#000000" font-family="sans-serif" font-size="13" lengthAdjust="spacingAndGlyphs" textLength="43" x="480.75" y="103.52">run() {</text><text fill="#000000" font-family="sans-serif" font-size="13" lengthAdjust="spacingAndGlyphs" textLength="260" x="496.75" y="118.6528">// Determine command name from input</text><text fill="#000000" font-family="sans-serif" font-size="13" lengthAdjust="spacingAndGlyphs" textLength="249" x="496.75" y="133.7856">$this-&gt;processor-&gt;executeCommand(</text><text fill="#000000" font-family="sans-serif" font-size="13" lengthAdjust="spacingAndGlyphs" textLength="241" x="512.75" y="148.9185">$this-&gt;commands[$commandName]</text><text fill="#000000" font-family="sans-serif" font-size="13" lengthAdjust="spacingAndGlyphs" textLength="9" x="496.75" y="164.0513">);</text><text fill="#000000" font-family="sans-serif" font-size="13" lengthAdjust="spacingAndGlyphs" textLength="8" x="480.75" y="179.1841">}</text><rect fill="#FEFECE" filter="url(#f1)" height="86.4141" style="stroke: #A80036; stroke-width: 1.5;" width="156" x="445" y="432.9531"/><ellipse cx="487.9" cy="448.9531" fill="#B4A7E5" rx="11" ry="11" style="stroke: #A80036; stroke-width: 1.0;"/><path d="M483.8219,444.7188 L483.8219,442.5625 L491.2125,442.5625 L491.2125,444.7188 L488.7438,444.7188 L488.7438,452.7969 L491.2125,452.7969 L491.2125,454.9531 L483.8219,454.9531 L483.8219,452.7969 L486.2906,452.7969 L486.2906,444.7188 L483.8219,444.7188 Z "/><text fill="#000000" font-family="sans-serif" font-size="12" font-style="italic" lengthAdjust="spacingAndGlyphs" textLength="62" x="508.1" y="453.1074">Command</text><line style="stroke: #A80036; stroke-width: 1.5;" x1="446" x2="600" y1="464.9531" y2="464.9531"/><rect fill="none" height="6" style="stroke: #C82930; stroke-width: 1.0;" width="6" x="453" y="473.8555"/><text fill="#000000" font-family="sans-serif" font-size="11" lengthAdjust="spacingAndGlyphs" textLength="33" x="465" y="479.1636">string</text><text fill="#000000" font-family="sans-serif" font-size="11" font-weight="bold" lengthAdjust="spacingAndGlyphs" textLength="35" x="502" y="479.1636">name</text><rect fill="none" height="6" style="stroke: #C82930; stroke-width: 1.0;" width="6" x="453" y="486.6602"/><text fill="#000000" font-family="sans-serif" font-size="11" lengthAdjust="spacingAndGlyphs" textLength="33" x="465" y="491.9683">string</text><text fill="#000000" font-family="sans-serif" font-size="11" font-weight="bold" lengthAdjust="spacingAndGlyphs" textLength="72" x="502" y="491.9683">description</text><line style="stroke: #A80036; stroke-width: 1.5;" x1="446" x2="600" y1="498.5625" y2="498.5625"/><ellipse cx="456" cy="510.4648" fill="#84BE84" rx="3" ry="3" style="stroke: #038048; stroke-width: 1.0;"/><text fill="#000000" font-family="sans-serif" font-size="11" font-style="italic" font-weight="bold" lengthAdjust="spacingAndGlyphs" textLength="48" x="465" y="512.7729">execute</text><text fill="#000000" font-family="sans-serif" font-size="11" font-style="italic" lengthAdjust="spacingAndGlyphs" textLength="82" x="513" y="512.7729">(Input, Output)</text><rect fill="#FEFECE" filter="url(#f1)" height="73.6094" style="stroke: #A80036; stroke-width: 1.5;" width="171" x="437.75" y="580.9531"/><ellipse cx="452.75" cy="596.9531" fill="#B4A7E5" rx="11" ry="11" style="stroke: #A80036; stroke-width: 1.0;"/><path d="M448.6719,592.7188 L448.6719,590.5625 L456.0625,590.5625 L456.0625,592.7188 L453.5938,592.7188 L453.5938,600.7969 L456.0625,600.7969 L456.0625,602.9531 L448.6719,602.9531 L448.6719,600.7969 L451.1406,600.7969 L451.1406,592.7188 L448.6719,592.7188 Z "/><text fill="#000000" font-family="sans-serif" font-size="12" font-style="italic" lengthAdjust="spacingAndGlyphs" textLength="139" x="466.75" y="601.1074">RecoverableCommand</text><line style="stroke: #A80036; stroke-width: 1.5;" x1="438.75" x2="607.75" y1="612.9531" y2="612.9531"/><line style="stroke: #A80036; stroke-width: 1.5;" x1="438.75" x2="607.75" y1="620.9531" y2="620.9531"/><ellipse cx="448.75" cy="632.8555" fill="#84BE84" rx="3" ry="3" style="stroke: #038048; stroke-width: 1.0;"/><text fill="#000000" font-family="sans-serif" font-size="11" font-style="italic" font-weight="bold" lengthAdjust="spacingAndGlyphs" textLength="32" x="457.75" y="635.1636">undo</text><text fill="#000000" font-family="sans-serif" font-size="11" font-style="italic" lengthAdjust="spacingAndGlyphs" textLength="8" x="489.75" y="635.1636">()</text><ellipse cx="448.75" cy="645.6602" fill="#84BE84" rx="3" ry="3" style="stroke: #038048; stroke-width: 1.0;"/><text fill="#000000" font-family="sans-serif" font-size="11" font-style="italic" font-weight="bold" lengthAdjust="spacingAndGlyphs" textLength="28" x="457.75" y="647.9683">redo</text><text fill="#000000" font-family="sans-serif" font-size="11" font-style="italic" lengthAdjust="spacingAndGlyphs" textLength="8" x="485.75" y="647.9683">()</text><rect fill="#FEFECE" filter="url(#f1)" height="60.8047" style="stroke: #A80036; stroke-width: 1.5;" width="163" x="705.75" y="445.4531"/><ellipse cx="749.55" cy="461.4531" fill="#B4A7E5" rx="11" ry="11" style="stroke: #A80036; stroke-width: 1.0;"/><path d="M745.4719,457.2188 L745.4719,455.0625 L752.8625,455.0625 L752.8625,457.2188 L750.3938,457.2188 L750.3938,465.2969 L752.8625,465.2969 L752.8625,467.4531 L745.4719,467.4531 L745.4719,465.2969 L747.9406,465.2969 L747.9406,457.2188 L745.4719,457.2188 Z "/><text fill="#000000" font-family="sans-serif" font-size="12" font-style="italic" lengthAdjust="spacingAndGlyphs" textLength="67" x="769.95" y="465.6074">Dispatcher</text><line style="stroke: #A80036; stroke-width: 1.5;" x1="706.75" x2="867.75" y1="477.4531" y2="477.4531"/><line style="stroke: #A80036; stroke-width: 1.5;" x1="706.75" x2="867.75" y1="485.4531" y2="485.4531"/><ellipse cx="716.75" cy="497.3555" fill="#84BE84" rx="3" ry="3" style="stroke: #038048; stroke-width: 1.0;"/><text fill="#000000" font-family="sans-serif" font-size="11" font-style="italic" font-weight="bold" lengthAdjust="spacingAndGlyphs" textLength="42" x="725.75" y="499.6636">trigger</text><text fill="#000000" font-family="sans-serif" font-size="11" font-style="italic" lengthAdjust="spacingAndGlyphs" textLength="95" x="767.75" y="499.6636">(string, mixed...)</text><rect fill="#FEFECE" filter="url(#f1)" height="60.8047" style="stroke: #A80036; stroke-width: 1.5;" width="159" x="182.75" y="587.4531"/><ellipse cx="209.9" cy="603.4531" fill="#ADD1B2" rx="11" ry="11" style="stroke: #A80036; stroke-width: 1.0;"/><path d="M212.8688,609.0938 Q212.2906,609.3906 211.65,609.5391 Q211.0094,609.6875 210.3063,609.6875 Q207.8063,609.6875 206.4859,608.0391 Q205.1656,606.3906 205.1656,603.2656 Q205.1656,600.1406 206.4859,598.4844 Q207.8063,596.8281 210.3063,596.8281 Q211.0094,596.8281 211.6578,596.9844 Q212.3063,597.1406 212.8688,597.4375 L212.8688,600.1563 Q212.2438,599.5781 211.65,599.3047 Q211.0563,599.0313 210.4313,599.0313 Q209.0875,599.0313 208.4,600.1016 Q207.7125,601.1719 207.7125,603.2656 Q207.7125,605.3594 208.4,606.4297 Q209.0875,607.5 210.4313,607.5 Q211.0563,607.5 211.65,607.2266 Q212.2438,606.9531 212.8688,606.375 L212.8688,609.0938 Z "/><text fill="#000000" font-family="sans-serif" font-size="12" lengthAdjust="spacingAndGlyphs" textLength="100" x="226.6" y="607.6074">MacroCommand</text><line style="stroke: #A80036; stroke-width: 1.5;" x1="183.75" x2="340.75" y1="619.4531" y2="619.4531"/><line style="stroke: #A80036; stroke-width: 1.5;" x1="183.75" x2="340.75" y1="627.4531" y2="627.4531"/><ellipse cx="193.75" cy="639.3555" fill="#84BE84" rx="3" ry="3" style="stroke: #038048; stroke-width: 1.0;"/><text fill="#000000" font-family="sans-serif" font-size="11" font-weight="bold" lengthAdjust="spacingAndGlyphs" textLength="51" x="202.75" y="641.6636">execute</text><text fill="#000000" font-family="sans-serif" font-size="11" lengthAdjust="spacingAndGlyphs" textLength="82" x="253.75" y="641.6636">(Input, Output)</text><polygon fill="#FBFB77" filter="url(#f1)" points="99,716.9531,99,802.6172,425,802.6172,425,726.9531,415,716.9531,99,716.9531" style="stroke: #A80036; stroke-width: 1.0;"/><polygon fill="#FBFB77" points="99,716.9531,99,802.6172,425,802.6172,425,726.9531,415,716.9531,266,716.9531,262,648.6431,258,716.9531,99,716.9531" style="stroke: #A80036; stroke-width: 1.0;"/><line style="stroke: #A80036; stroke-width: 1.0;" x1="415" x2="415" y1="716.9531" y2="726.9531"/><line style="stroke: #A80036; stroke-width: 1.0;" x1="425" x2="415" y1="726.9531" y2="726.9531"/><text fill="#000000" font-family="sans-serif" font-size="13" lengthAdjust="spacingAndGlyphs" textLength="255" x="105" y="734.02">execute(Input $input, Output $output) {</text><text fill="#000000" font-family="sans-serif" font-size="13" lengthAdjust="spacingAndGlyphs" textLength="289" x="121" y="749.1528">foreach ($this-&gt;commands as $command) {</text><text fill="#000000" font-family="sans-serif" font-size="13" lengthAdjust="spacingAndGlyphs" textLength="252" x="137" y="764.2856">$command-&gt;execute($input, $output);</text><text fill="#000000" font-family="sans-serif" font-size="13" lengthAdjust="spacingAndGlyphs" textLength="8" x="121" y="779.4185">}</text><text fill="#000000" font-family="sans-serif" font-size="13" lengthAdjust="spacingAndGlyphs" textLength="8" x="105" y="794.5513">}</text><rect fill="#FEFECE" filter="url(#f1)" height="99.2188" style="stroke: #A80036; stroke-width: 1.5;" width="206" x="162" y="263.4531"/><ellipse cx="199.05" cy="279.4531" fill="#ADD1B2" rx="11" ry="11" style="stroke: #A80036; stroke-width: 1.0;"/><path d="M202.0188,285.0938 Q201.4406,285.3906 200.8,285.5391 Q200.1594,285.6875 199.4563,285.6875 Q196.9563,285.6875 195.6359,284.0391 Q194.3156,282.3906 194.3156,279.2656 Q194.3156,276.1406 195.6359,274.4844 Q196.9563,272.8281 199.4563,272.8281 Q200.1594,272.8281 200.8078,272.9844 Q201.4563,273.1406 202.0188,273.4375 L202.0188,276.1563 Q201.3938,275.5781 200.8,275.3047 Q200.2063,275.0313 199.5813,275.0313 Q198.2375,275.0313 197.55,276.1016 Q196.8625,277.1719 196.8625,279.2656 Q196.8625,281.3594 197.55,282.4297 Q198.2375,283.5 199.5813,283.5 Q200.2063,283.5 200.8,283.2266 Q201.3938,282.9531 202.0188,282.375 L202.0188,285.0938 Z "/><text fill="#000000" font-family="sans-serif" font-size="12" lengthAdjust="spacingAndGlyphs" textLength="125" x="217.95" y="283.6074">CommandProcessor</text><line style="stroke: #A80036; stroke-width: 1.5;" x1="163" x2="367" y1="295.4531" y2="295.4531"/><rect fill="none" height="6" style="stroke: #C82930; stroke-width: 1.0;" width="6" x="170" y="304.3555"/><text fill="#000000" font-family="sans-serif" font-size="11" lengthAdjust="spacingAndGlyphs" textLength="61" x="182" y="309.6636">Dispatcher</text><text fill="#000000" font-family="sans-serif" font-size="11" font-weight="bold" lengthAdjust="spacingAndGlyphs" textLength="68" x="247" y="309.6636">dispatcher</text><rect fill="none" height="6" style="stroke: #C82930; stroke-width: 1.0;" width="6" x="170" y="317.1602"/><text fill="#000000" font-family="sans-serif" font-size="11" lengthAdjust="spacingAndGlyphs" textLength="28" x="182" y="322.4683">Input</text><text fill="#000000" font-family="sans-serif" font-size="11" font-weight="bold" lengthAdjust="spacingAndGlyphs" textLength="33" x="214" y="322.4683">input</text><rect fill="none" height="6" style="stroke: #C82930; stroke-width: 1.0;" width="6" x="170" y="329.9648"/><text fill="#000000" font-family="sans-serif" font-size="11" lengthAdjust="spacingAndGlyphs" textLength="38" x="182" y="335.2729">Output</text><text fill="#000000" font-family="sans-serif" font-size="11" font-weight="bold" lengthAdjust="spacingAndGlyphs" textLength="42" x="224" y="335.2729">output</text><line style="stroke: #A80036; stroke-width: 1.5;" x1="163" x2="367" y1="341.8672" y2="341.8672"/><ellipse cx="173" cy="353.7695" fill="#84BE84" rx="3" ry="3" style="stroke: #038048; stroke-width: 1.0;"/><text fill="#000000" font-family="sans-serif" font-size="11" font-weight="bold" lengthAdjust="spacingAndGlyphs" textLength="114" x="182" y="356.0776">executeCommand</text><text fill="#000000" font-family="sans-serif" font-size="11" lengthAdjust="spacingAndGlyphs" textLength="66" x="296" y="356.0776">(Command)</text><polygon fill="#FBFB77" filter="url(#f1)" points="437.75,254.9531,437.75,370.8828,868.75,370.8828,868.75,264.9531,858.75,254.9531,437.75,254.9531" style="stroke: #A80036; stroke-width: 1.0;"/><polygon fill="#FBFB77" points="437.75,254.9531,437.75,308.9531,368.062,312.9531,437.75,316.9531,437.75,370.8828,868.75,370.8828,868.75,264.9531,858.75,254.9531,437.75,254.9531" style="stroke: #A80036; stroke-width: 1.0;"/><line style="stroke: #A80036; stroke-width: 1.0;" x1="858.75" x2="858.75" y1="254.9531" y2="264.9531"/><line style="stroke: #A80036; stroke-width: 1.0;" x1="868.75" x2="858.75" y1="264.9531" y2="264.9531"/><text fill="#000000" font-family="sans-serif" font-size="13" lengthAdjust="spacingAndGlyphs" textLength="284" x="443.75" y="272.02">executeCommand(Command $command) {</text><text fill="#000000" font-family="sans-serif" font-size="13" lengthAdjust="spacingAndGlyphs" textLength="394" x="459.75" y="287.1528">if ($this-&gt;dispatcher-&gt;trigger('beforeExecute', $command)) {</text><text fill="#000000" font-family="sans-serif" font-size="13" lengthAdjust="spacingAndGlyphs" textLength="306" x="475.75" y="302.2856">$command-&gt;setDispatcher($this-&gt;dispatcher);</text><text fill="#000000" font-family="sans-serif" font-size="13" lengthAdjust="spacingAndGlyphs" textLength="330" x="475.75" y="317.4185">$command-&gt;execute($this-&gt;input, $this-&gt;output);</text><text fill="#000000" font-family="sans-serif" font-size="13" lengthAdjust="spacingAndGlyphs" textLength="354" x="475.75" y="332.5513">$this-&gt;dispatcher-&gt;trigger('afterExecute', $command);</text><text fill="#000000" font-family="sans-serif" font-size="13" lengthAdjust="spacingAndGlyphs" textLength="8" x="459.75" y="347.6841">}</text><text fill="#000000" font-family="sans-serif" font-size="13" lengthAdjust="spacingAndGlyphs" textLength="8" x="443.75" y="362.8169">}</text><rect fill="#FEFECE" filter="url(#f1)" height="73.6094" style="stroke: #A80036; stroke-width: 1.5;" width="297" x="38.75" y="438.9531"/><ellipse cx="53.75" cy="454.9531" fill="#ADD1B2" rx="11" ry="11" style="stroke: #A80036; stroke-width: 1.0;"/><path d="M56.7188,460.5938 Q56.1406,460.8906 55.5,461.0391 Q54.8594,461.1875 54.1563,461.1875 Q51.6563,461.1875 50.3359,459.5391 Q49.0156,457.8906 49.0156,454.7656 Q49.0156,451.6406 50.3359,449.9844 Q51.6563,448.3281 54.1563,448.3281 Q54.8594,448.3281 55.5078,448.4844 Q56.1563,448.6406 56.7188,448.9375 L56.7188,451.6563 Q56.0938,451.0781 55.5,450.8047 Q54.9063,450.5313 54.2813,450.5313 Q52.9375,450.5313 52.25,451.6016 Q51.5625,452.6719 51.5625,454.7656 Q51.5625,456.8594 52.25,457.9297 Q52.9375,459 54.2813,459 Q54.9063,459 55.5,458.7266 Q56.0938,458.4531 56.7188,457.875 L56.7188,460.5938 Z "/><text fill="#000000" font-family="sans-serif" font-size="12" lengthAdjust="spacingAndGlyphs" textLength="265" x="67.75" y="459.1074">CommandCollectionDefaultImplementation</text><line style="stroke: #A80036; stroke-width: 1.5;" x1="39.75" x2="334.75" y1="470.9531" y2="470.9531"/><line style="stroke: #A80036; stroke-width: 1.5;" x1="39.75" x2="334.75" y1="478.9531" y2="478.9531"/><polygon fill="#FFFF44" points="49.75,485.8555,53.75,489.8555,49.75,493.8555,45.75,489.8555" style="stroke: #B38D22; stroke-width: 1.0;"/><text fill="#000000" font-family="sans-serif" font-size="11" font-weight="bold" lengthAdjust="spacingAndGlyphs" textLength="24" x="58.75" y="493.1636">add</text><text fill="#000000" font-family="sans-serif" font-size="11" lengthAdjust="spacingAndGlyphs" textLength="66" x="82.75" y="493.1636">(Command)</text><polygon fill="#FFFF44" points="49.75,498.6602,53.75,502.6602,49.75,506.6602,45.75,502.6602" style="stroke: #B38D22; stroke-width: 1.0;"/><text fill="#000000" font-family="sans-serif" font-size="11" font-weight="bold" lengthAdjust="spacingAndGlyphs" textLength="94" x="58.75" y="505.9683">addCommands</text><text fill="#000000" font-family="sans-serif" font-size="11" lengthAdjust="spacingAndGlyphs" textLength="74" x="152.75" y="505.9683">(Command[])</text><path d="M523,539.1651 C523,553.3571 523,567.9821 523,580.6661 " fill="none" style="stroke: #A80036; stroke-width: 1.0;"/><polygon fill="none" points="516,538.9581,523,518.9581,530,538.9581,516,538.9581" style="stroke: #A80036; stroke-width: 1.0;"/><path d="M601.137,475.9531 C632.311,475.9531 668.323,475.9531 700.299,475.9531 " fill="none" style="stroke: #A80036; stroke-width: 1.0;"/><polygon fill="#A80036" points="705.395,475.9531,696.395,471.9531,700.395,475.9531,696.395,479.9531,705.395,475.9531" style="stroke: #A80036; stroke-width: 1.0;"/><text fill="#000000" font-family="sans-serif" font-size="13" lengthAdjust="spacingAndGlyphs" textLength="67" x="619.25" y="468.02">dispatcher</text><path d="M426.9,528.5011 C389.892,548.3521 348.908,570.3351 317.057,587.4201 " fill="none" style="stroke: #A80036; stroke-width: 1.0; stroke-dasharray: 7.0,7.0;"/><polygon fill="none" points="423.758,522.2431,444.691,518.9581,430.376,534.5801,423.758,522.2431" style="stroke: #A80036; stroke-width: 1.0;"/><path d="M223.301,193.0081 C230.636,213.9311 238.975,237.7171 246.258,258.4911 " fill="none" style="stroke: #A80036; stroke-width: 1.0;"/><polygon fill="#A80036" points="247.988,263.4261,248.7851,253.6096,246.3338,258.7077,241.2356,256.2564,247.988,263.4261" style="stroke: #A80036; stroke-width: 1.0;"/><path d="M342.758,362.4771 C377.121,383.9201 417.277,408.9791 450.954,429.9941 " fill="none" style="stroke: #A80036; stroke-width: 1.0;"/><polygon fill="#A80036" points="455.449,432.7991,449.9306,424.6415,451.2069,430.1525,445.6959,431.4288,455.449,432.7991" style="stroke: #A80036; stroke-width: 1.0;"/><path d="M348.683,475.9531 C377.255,475.9531 406.07,475.9531 431.817,475.9531 " fill="none" style="stroke: #A80036; stroke-width: 1.0;"/><polygon fill="#A80036" points="444.984,475.9531,435.984,471.9531,439.984,475.9531,435.984,479.9531,444.984,475.9531" style="stroke: #A80036; stroke-width: 1.0;"/><line style="stroke: #A80036; stroke-width: 1.0;" x1="439.984" x2="431.984" y1="475.9531" y2="475.9531"/><polygon fill="none" points="335.353,475.9531,341.353,479.9531,347.353,475.9531,341.353,471.9531,335.353,475.9531" style="stroke: #A80036; stroke-width: 1.0;"/><text fill="#000000" font-family="sans-serif" font-size="13" lengthAdjust="spacingAndGlyphs" textLength="72" x="353.5" y="468.02">commands</text><text fill="#000000" font-family="sans-serif" font-size="13" lengthAdjust="spacingAndGlyphs" textLength="24" x="413.0156" y="488.5835">1..n</text><path d="M239.77,575.4571 C231.193,559.4471 221.331,541.0381 212.472,524.5001 " fill="none" style="stroke: #A80036; stroke-width: 1.0;"/><polygon fill="#A80036" points="206.314,513.0061,207.0381,522.8283,208.6751,517.4135,214.0899,519.0505,206.314,513.0061" style="stroke: #A80036; stroke-width: 1.0;"/><line style="stroke: #A80036; stroke-width: 1.0;" x1="208.6751" x2="212.4535" y1="517.4135" y2="524.4656"/><polygon fill="#A80036" points="246.04,587.1611,246.7329,579.9834,240.3739,576.5831,239.6809,583.7608,246.04,587.1611" style="stroke: #A80036; stroke-width: 1.0;"/><path d="M163.597,204.8821 C155.916,220.7631 149.027,238.0221 145,254.9531 C133.069,305.1091 135.167,320.3441 145,370.9531 C148.676,389.8721 155.788,409.7081 163.129,426.9241 " fill="none" style="stroke: #A80036; stroke-width: 1.0;"/><polygon fill="#A80036" points="168.469,438.9461,168.4714,429.0973,166.4394,434.3766,161.1601,432.3446,168.469,438.9461" style="stroke: #A80036; stroke-width: 1.0;"/><line style="stroke: #A80036; stroke-width: 1.0;" x1="166.4394" x2="163.1915" y1="434.3766" y2="427.0651"/><polygon fill="#A80036" points="169.59,193.0361,163.3119,196.5836,164.1718,203.7433,170.45,200.1958,169.59,193.0361" style="stroke: #A80036; stroke-width: 1.0;"/></g></svg>