<?xml version="1.0" encoding="UTF-8" standalone="yes"?><svg xmlns="http://www.w3.org/2000/svg" xmlns:xlink="http://www.w3.org/1999/xlink" height="715px" style="width:913px;height:715px;" version="1.1" viewBox="0 0 913 715" width="913px"><defs><filter height="300%" id="f1" width="300%" x="-1" y="-1"><feGaussianBlur result="blurOut" stdDeviation="2.0"/><feColorMatrix in="blurOut" result="blurOut2" type="matrix" values="0 0 0 0 0 0 0 0 0 0 0 0 0 0 0 0 0 0 .4 0"/><feOffset dx="4.0" dy="4.0" in="blurOut2" result="blurOut3"/><feBlend in="SourceGraphic" in2="blurOut3" mode="normal"/></filter></defs><g><text fill="#000000" font-family="sans-serif" font-size="18" lengthAdjust="spacingAndGlyphs" textLength="179" x="380.5" y="16.708">Command Structure</text><polygon fill="#FFFFFF" filter="url(#f1)" points="22,44.9531,162,44.9531,169,67.25,906,67.25,906,708.9531,22,708.9531,22,44.9531" style="stroke: #000000; stroke-width: 2.0;"/><line style="stroke: #000000; stroke-width: 2.0;" x1="22" x2="169" y1="67.25" y2="67.25"/><text fill="#000000" font-family="sans-serif" font-size="14" font-weight="bold" lengthAdjust="spacingAndGlyphs" textLength="134" x="25" y="60.9482">Joomla.Command</text><rect fill="#FEFECE" filter="url(#f1)" height="137.6328" style="stroke: #A80036; stroke-width: 1.5;" width="209" x="109.75" y="80.9531"/><ellipse cx="179.5" cy="96.9531" fill="#B4A7E5" rx="11" ry="11" style="stroke: #A80036; stroke-width: 1.0;"/><path d="M175.4219,92.7188 L175.4219,90.5625 L182.8125,90.5625 L182.8125,92.7188 L180.3438,92.7188 L180.3438,100.7969 L182.8125,100.7969 L182.8125,102.9531 L175.4219,102.9531 L175.4219,100.7969 L177.8906,100.7969 L177.8906,92.7188 L175.4219,92.7188 Z "/><text fill="#000000" font-family="sans-serif" font-size="12" font-style="italic" lengthAdjust="spacingAndGlyphs" textLength="61" x="200" y="101.1074">Controller</text><line style="stroke: #A80036; stroke-width: 1.5;" x1="110.75" x2="317.75" y1="112.9531" y2="112.9531"/><rect fill="none" height="6" style="stroke: #C82930; stroke-width: 1.0;" width="6" x="117.75" y="121.8555"/><text fill="#000000" font-family="sans-serif" font-size="11" lengthAdjust="spacingAndGlyphs" textLength="116" x="129.75" y="127.1636">CommandProcessor</text><text fill="#000000" font-family="sans-serif" font-size="11" font-weight="bold" lengthAdjust="spacingAndGlyphs" textLength="63" x="249.75" y="127.1636">processor</text><rect fill="none" height="6" style="stroke: #C82930; stroke-width: 1.0;" width="6" x="117.75" y="134.6602"/><text fill="#000000" font-family="sans-serif" font-size="11" lengthAdjust="spacingAndGlyphs" textLength="61" x="129.75" y="139.9683">Dispatcher</text><text fill="#000000" font-family="sans-serif" font-size="11" font-weight="bold" lengthAdjust="spacingAndGlyphs" textLength="68" x="194.75" y="139.9683">dispatcher</text><rect fill="none" height="6" style="stroke: #C82930; stroke-width: 1.0;" width="6" x="117.75" y="147.4648"/><text fill="#000000" font-family="sans-serif" font-size="11" lengthAdjust="spacingAndGlyphs" textLength="28" x="129.75" y="152.7729">Input</text><text fill="#000000" font-family="sans-serif" font-size="11" font-weight="bold" lengthAdjust="spacingAndGlyphs" textLength="33" x="161.75" y="152.7729">input</text><rect fill="none" height="6" style="stroke: #C82930; stroke-width: 1.0;" width="6" x="117.75" y="160.2695"/><text fill="#000000" font-family="sans-serif" font-size="11" lengthAdjust="spacingAndGlyphs" textLength="38" x="129.75" y="165.5776">Output</text><text fill="#000000" font-family="sans-serif" font-size="11" font-weight="bold" lengthAdjust="spacingAndGlyphs" textLength="42" x="171.75" y="165.5776">output</text><line style="stroke: #A80036; stroke-width: 1.5;" x1="110.75" x2="317.75" y1="172.1719" y2="172.1719"/><polygon fill="#FFFF44" points="120.75,179.0742,124.75,183.0742,120.75,187.0742,116.75,183.0742" style="stroke: #B38D22; stroke-width: 1.0;"/><text fill="#000000" font-family="sans-serif" font-size="11" font-weight="bold" lengthAdjust="spacingAndGlyphs" textLength="24" x="129.75" y="186.3823">add</text><text fill="#000000" font-family="sans-serif" font-size="11" lengthAdjust="spacingAndGlyphs" textLength="66" x="153.75" y="186.3823">(Command)</text><polygon fill="#FFFF44" points="120.75,191.8789,124.75,195.8789,120.75,199.8789,116.75,195.8789" style="stroke: #B38D22; stroke-width: 1.0;"/><text fill="#000000" font-family="sans-serif" font-size="11" font-weight="bold" lengthAdjust="spacingAndGlyphs" textLength="94" x="129.75" y="199.187">addCommands</text><text fill="#000000" font-family="sans-serif" font-size="11" lengthAdjust="spacingAndGlyphs" textLength="74" x="223.75" y="199.187">(Command[])</text><ellipse cx="120.75" cy="209.6836" fill="#84BE84" rx="3" ry="3" style="stroke: #038048; stroke-width: 1.0;"/><text fill="#000000" font-family="sans-serif" font-size="11" font-weight="bold" lengthAdjust="spacingAndGlyphs" textLength="21" x="129.75" y="211.9917">run</text><text fill="#000000" font-family="sans-serif" font-size="11" lengthAdjust="spacingAndGlyphs" textLength="8" x="150.75" y="211.9917">()</text><polygon fill="#FBFB77" filter="url(#f1)" points="490.75,99.4531,490.75,200.25,787.75,200.25,787.75,109.4531,777.75,99.4531,490.75,99.4531" style="stroke: #A80036; stroke-width: 1.0;"/><polygon fill="#FBFB77" points="490.75,99.4531,490.75,145.9531,318.59,149.9531,490.75,153.9531,490.75,200.25,787.75,200.25,787.75,109.4531,777.75,99.4531,490.75,99.4531" style="stroke: #A80036; stroke-width: 1.0;"/><line style="stroke: #A80036; stroke-width: 1.0;" x1="777.75" x2="777.75" y1="99.4531" y2="109.4531"/><line style="stroke: #A80036; stroke-width: 1.0;" x1="787.75" x2="777.75" y1="109.4531" y2="109.4531"/><text fill="#000000" font-family="sans-serif" font-size="13" lengthAdjust="spacingAndGlyphs" textLength="43" x="496.75" y="116.52">run() {</text><text fill="#000000" font-family="sans-serif" font-size="13" lengthAdjust="spacingAndGlyphs" textLength="260" x="512.75" y="131.6528">// Determine command name from input</text><text fill="#000000" font-family="sans-serif" font-size="13" lengthAdjust="spacingAndGlyphs" textLength="249" x="512.75" y="146.7856">$this-&gt;processor-&gt;executeCommand(</text><text fill="#000000" font-family="sans-serif" font-size="13" lengthAdjust="spacingAndGlyphs" textLength="241" x="528.75" y="161.9185">$this-&gt;commands[$commandName]</text><text fill="#000000" font-family="sans-serif" font-size="13" lengthAdjust="spacingAndGlyphs" textLength="9" x="512.75" y="177.0513">);</text><text fill="#000000" font-family="sans-serif" font-size="13" lengthAdjust="spacingAndGlyphs" textLength="8" x="496.75" y="192.1841">}</text><rect fill="#FEFECE" filter="url(#f1)" height="86.4141" style="stroke: #A80036; stroke-width: 1.5;" width="159" x="373.75" y="458.9531"/><ellipse cx="418" cy="474.9531" fill="#B4A7E5" rx="11" ry="11" style="stroke: #A80036; stroke-width: 1.0;"/><path d="M413.9219,470.7188 L413.9219,468.5625 L421.3125,468.5625 L421.3125,470.7188 L418.8438,470.7188 L418.8438,478.7969 L421.3125,478.7969 L421.3125,480.9531 L413.9219,480.9531 L413.9219,478.7969 L416.3906,478.7969 L416.3906,470.7188 L413.9219,470.7188 Z "/><text fill="#000000" font-family="sans-serif" font-size="12" font-style="italic" lengthAdjust="spacingAndGlyphs" textLength="62" x="438.5" y="479.1074">Command</text><line style="stroke: #A80036; stroke-width: 1.5;" x1="374.75" x2="531.75" y1="490.9531" y2="490.9531"/><rect fill="none" height="6" style="stroke: #C82930; stroke-width: 1.0;" width="6" x="381.75" y="499.8555"/><text fill="#000000" font-family="sans-serif" font-size="11" lengthAdjust="spacingAndGlyphs" textLength="33" x="393.75" y="505.1636">string</text><text fill="#000000" font-family="sans-serif" font-size="11" font-weight="bold" lengthAdjust="spacingAndGlyphs" textLength="35" x="430.75" y="505.1636">name</text><rect fill="none" height="6" style="stroke: #C82930; stroke-width: 1.0;" width="6" x="381.75" y="512.6602"/><text fill="#000000" font-family="sans-serif" font-size="11" lengthAdjust="spacingAndGlyphs" textLength="33" x="393.75" y="517.9683">string</text><text fill="#000000" font-family="sans-serif" font-size="11" font-weight="bold" lengthAdjust="spacingAndGlyphs" textLength="72" x="430.75" y="517.9683">description</text><line style="stroke: #A80036; stroke-width: 1.5;" x1="374.75" x2="531.75" y1="524.5625" y2="524.5625"/><ellipse cx="384.75" cy="536.4648" fill="#84BE84" rx="3" ry="3" style="stroke: #038048; stroke-width: 1.0;"/><text fill="#000000" font-family="sans-serif" font-size="11" font-weight="bold" lengthAdjust="spacingAndGlyphs" textLength="51" x="393.75" y="538.7729">execute</text><text fill="#000000" font-family="sans-serif" font-size="11" lengthAdjust="spacingAndGlyphs" textLength="82" x="444.75" y="538.7729">(Input, Output)</text><rect fill="#FEFECE" filter="url(#f1)" height="73.6094" style="stroke: #A80036; stroke-width: 1.5;" width="171" x="399.75" y="612.9531"/><ellipse cx="414.75" cy="628.9531" fill="#B4A7E5" rx="11" ry="11" style="stroke: #A80036; stroke-width: 1.0;"/><path d="M410.6719,624.7188 L410.6719,622.5625 L418.0625,622.5625 L418.0625,624.7188 L415.5938,624.7188 L415.5938,632.7969 L418.0625,632.7969 L418.0625,634.9531 L410.6719,634.9531 L410.6719,632.7969 L413.1406,632.7969 L413.1406,624.7188 L410.6719,624.7188 Z "/><text fill="#000000" font-family="sans-serif" font-size="12" font-style="italic" lengthAdjust="spacingAndGlyphs" textLength="139" x="428.75" y="633.1074">RecoverableCommand</text><line style="stroke: #A80036; stroke-width: 1.5;" x1="400.75" x2="569.75" y1="644.9531" y2="644.9531"/><line style="stroke: #A80036; stroke-width: 1.5;" x1="400.75" x2="569.75" y1="652.9531" y2="652.9531"/><ellipse cx="410.75" cy="664.8555" fill="#84BE84" rx="3" ry="3" style="stroke: #038048; stroke-width: 1.0;"/><text fill="#000000" font-family="sans-serif" font-size="11" font-weight="bold" lengthAdjust="spacingAndGlyphs" textLength="32" x="419.75" y="667.1636">undo</text><text fill="#000000" font-family="sans-serif" font-size="11" lengthAdjust="spacingAndGlyphs" textLength="8" x="451.75" y="667.1636">()</text><ellipse cx="410.75" cy="677.6602" fill="#84BE84" rx="3" ry="3" style="stroke: #038048; stroke-width: 1.0;"/><text fill="#000000" font-family="sans-serif" font-size="11" font-weight="bold" lengthAdjust="spacingAndGlyphs" textLength="29" x="419.75" y="679.9683">redo</text><text fill="#000000" font-family="sans-serif" font-size="11" lengthAdjust="spacingAndGlyphs" textLength="8" x="448.75" y="679.9683">()</text><rect fill="#FEFECE" filter="url(#f1)" height="60.8047" style="stroke: #A80036; stroke-width: 1.5;" width="164" x="681" y="471.4531"/><ellipse cx="725.25" cy="487.4531" fill="#B4A7E5" rx="11" ry="11" style="stroke: #A80036; stroke-width: 1.0;"/><path d="M721.1719,483.2188 L721.1719,481.0625 L728.5625,481.0625 L728.5625,483.2188 L726.0938,483.2188 L726.0938,491.2969 L728.5625,491.2969 L728.5625,493.4531 L721.1719,493.4531 L721.1719,491.2969 L723.6406,491.2969 L723.6406,483.2188 L721.1719,483.2188 Z "/><text fill="#000000" font-family="sans-serif" font-size="12" font-style="italic" lengthAdjust="spacingAndGlyphs" textLength="67" x="745.75" y="491.6074">Dispatcher</text><line style="stroke: #A80036; stroke-width: 1.5;" x1="682" x2="844" y1="503.4531" y2="503.4531"/><line style="stroke: #A80036; stroke-width: 1.5;" x1="682" x2="844" y1="511.4531" y2="511.4531"/><ellipse cx="692" cy="523.3555" fill="#84BE84" rx="3" ry="3" style="stroke: #038048; stroke-width: 1.0;"/><text fill="#000000" font-family="sans-serif" font-size="11" font-weight="bold" lengthAdjust="spacingAndGlyphs" textLength="43" x="701" y="525.6636">trigger</text><text fill="#000000" font-family="sans-serif" font-size="11" lengthAdjust="spacingAndGlyphs" textLength="95" x="744" y="525.6636">(string, mixed...)</text><rect fill="#FEFECE" filter="url(#f1)" height="86.4141" style="stroke: #A80036; stroke-width: 1.5;" width="194" x="70.5" y="458.9531"/><ellipse cx="113.4" cy="474.9531" fill="#ADD1B2" rx="11" ry="11" style="stroke: #A80036; stroke-width: 1.0;"/><path d="M116.3688,480.5938 Q115.7906,480.8906 115.15,481.0391 Q114.5094,481.1875 113.8063,481.1875 Q111.3063,481.1875 109.9859,479.5391 Q108.6656,477.8906 108.6656,474.7656 Q108.6656,471.6406 109.9859,469.9844 Q111.3063,468.3281 113.8063,468.3281 Q114.5094,468.3281 115.1578,468.4844 Q115.8063,468.6406 116.3688,468.9375 L116.3688,471.6563 Q115.7438,471.0781 115.15,470.8047 Q114.5563,470.5313 113.9313,470.5313 Q112.5875,470.5313 111.9,471.6016 Q111.2125,472.6719 111.2125,474.7656 Q111.2125,476.8594 111.9,477.9297 Q112.5875,479 113.9313,479 Q114.5563,479 115.15,478.7266 Q115.7438,478.4531 116.3688,477.875 L116.3688,480.5938 Z "/><text fill="#000000" font-family="sans-serif" font-size="12" lengthAdjust="spacingAndGlyphs" textLength="100" x="133.6" y="479.1074">MacroCommand</text><line style="stroke: #A80036; stroke-width: 1.5;" x1="71.5" x2="263.5" y1="490.9531" y2="490.9531"/><line style="stroke: #A80036; stroke-width: 1.5;" x1="71.5" x2="263.5" y1="498.9531" y2="498.9531"/><ellipse cx="81.5" cy="510.8555" fill="#84BE84" rx="3" ry="3" style="stroke: #038048; stroke-width: 1.0;"/><text fill="#000000" font-family="sans-serif" font-size="11" font-weight="bold" lengthAdjust="spacingAndGlyphs" textLength="24" x="90.5" y="513.1636">add</text><text fill="#000000" font-family="sans-serif" font-size="11" lengthAdjust="spacingAndGlyphs" textLength="66" x="114.5" y="513.1636">(Command)</text><ellipse cx="81.5" cy="523.6602" fill="#84BE84" rx="3" ry="3" style="stroke: #038048; stroke-width: 1.0;"/><text fill="#000000" font-family="sans-serif" font-size="11" font-weight="bold" lengthAdjust="spacingAndGlyphs" textLength="94" x="90.5" y="525.9683">addCommands</text><text fill="#000000" font-family="sans-serif" font-size="11" lengthAdjust="spacingAndGlyphs" textLength="74" x="184.5" y="525.9683">(Command[])</text><ellipse cx="81.5" cy="536.4648" fill="#84BE84" rx="3" ry="3" style="stroke: #038048; stroke-width: 1.0;"/><text fill="#000000" font-family="sans-serif" font-size="11" font-weight="bold" lengthAdjust="spacingAndGlyphs" textLength="51" x="90.5" y="538.7729">execute</text><text fill="#000000" font-family="sans-serif" font-size="11" lengthAdjust="spacingAndGlyphs" textLength="82" x="141.5" y="538.7729">(Input, Output)</text><polygon fill="#FBFB77" filter="url(#f1)" points="38,606.9531,38,692.6172,364,692.6172,364,616.9531,354,606.9531,38,606.9531" style="stroke: #A80036; stroke-width: 1.0;"/><polygon fill="#FBFB77" points="38,606.9531,38,692.6172,364,692.6172,364,616.9531,354,606.9531,195.188,606.9531,176.834,545.1821,187.188,606.9531,38,606.9531" style="stroke: #A80036; stroke-width: 1.0;"/><line style="stroke: #A80036; stroke-width: 1.0;" x1="354" x2="354" y1="606.9531" y2="616.9531"/><line style="stroke: #A80036; stroke-width: 1.0;" x1="364" x2="354" y1="616.9531" y2="616.9531"/><text fill="#000000" font-family="sans-serif" font-size="13" lengthAdjust="spacingAndGlyphs" textLength="255" x="44" y="624.02">execute(Input $input, Output $output) {</text><text fill="#000000" font-family="sans-serif" font-size="13" lengthAdjust="spacingAndGlyphs" textLength="289" x="60" y="639.1528">foreach ($this-&gt;commands as $command) {</text><text fill="#000000" font-family="sans-serif" font-size="13" lengthAdjust="spacingAndGlyphs" textLength="252" x="76" y="654.2856">$command-&gt;execute($input, $output);</text><text fill="#000000" font-family="sans-serif" font-size="13" lengthAdjust="spacingAndGlyphs" textLength="8" x="60" y="669.4185">}</text><text fill="#000000" font-family="sans-serif" font-size="13" lengthAdjust="spacingAndGlyphs" textLength="8" x="44" y="684.5513">}</text><rect fill="#FEFECE" filter="url(#f1)" height="99.2188" style="stroke: #A80036; stroke-width: 1.5;" width="206" x="183" y="289.4531"/><ellipse cx="220.05" cy="305.4531" fill="#ADD1B2" rx="11" ry="11" style="stroke: #A80036; stroke-width: 1.0;"/><path d="M223.0188,311.0938 Q222.4406,311.3906 221.8,311.5391 Q221.1594,311.6875 220.4563,311.6875 Q217.9563,311.6875 216.6359,310.0391 Q215.3156,308.3906 215.3156,305.2656 Q215.3156,302.1406 216.6359,300.4844 Q217.9563,298.8281 220.4563,298.8281 Q221.1594,298.8281 221.8078,298.9844 Q222.4563,299.1406 223.0188,299.4375 L223.0188,302.1563 Q222.3938,301.5781 221.8,301.3047 Q221.2063,301.0313 220.5813,301.0313 Q219.2375,301.0313 218.55,302.1016 Q217.8625,303.1719 217.8625,305.2656 Q217.8625,307.3594 218.55,308.4297 Q219.2375,309.5 220.5813,309.5 Q221.2063,309.5 221.8,309.2266 Q222.3938,308.9531 223.0188,308.375 L223.0188,311.0938 Z "/><text fill="#000000" font-family="sans-serif" font-size="12" lengthAdjust="spacingAndGlyphs" textLength="125" x="238.95" y="309.6074">CommandProcessor</text><line style="stroke: #A80036; stroke-width: 1.5;" x1="184" x2="388" y1="321.4531" y2="321.4531"/><rect fill="none" height="6" style="stroke: #C82930; stroke-width: 1.0;" width="6" x="191" y="330.3555"/><text fill="#000000" font-family="sans-serif" font-size="11" lengthAdjust="spacingAndGlyphs" textLength="61" x="203" y="335.6636">Dispatcher</text><text fill="#000000" font-family="sans-serif" font-size="11" font-weight="bold" lengthAdjust="spacingAndGlyphs" textLength="68" x="268" y="335.6636">dispatcher</text><rect fill="none" height="6" style="stroke: #C82930; stroke-width: 1.0;" width="6" x="191" y="343.1602"/><text fill="#000000" font-family="sans-serif" font-size="11" lengthAdjust="spacingAndGlyphs" textLength="28" x="203" y="348.4683">Input</text><text fill="#000000" font-family="sans-serif" font-size="11" font-weight="bold" lengthAdjust="spacingAndGlyphs" textLength="33" x="235" y="348.4683">input</text><rect fill="none" height="6" style="stroke: #C82930; stroke-width: 1.0;" width="6" x="191" y="355.9648"/><text fill="#000000" font-family="sans-serif" font-size="11" lengthAdjust="spacingAndGlyphs" textLength="38" x="203" y="361.2729">Output</text><text fill="#000000" font-family="sans-serif" font-size="11" font-weight="bold" lengthAdjust="spacingAndGlyphs" textLength="42" x="245" y="361.2729">output</text><line style="stroke: #A80036; stroke-width: 1.5;" x1="184" x2="388" y1="367.8672" y2="367.8672"/><ellipse cx="194" cy="379.7695" fill="#84BE84" rx="3" ry="3" style="stroke: #038048; stroke-width: 1.0;"/><text fill="#000000" font-family="sans-serif" font-size="11" font-weight="bold" lengthAdjust="spacingAndGlyphs" textLength="114" x="203" y="382.0776">executeCommand</text><text fill="#000000" font-family="sans-serif" font-size="11" lengthAdjust="spacingAndGlyphs" textLength="66" x="317" y="382.0776">(Command)</text><polygon fill="#FBFB77" filter="url(#f1)" points="458.75,280.9531,458.75,396.8828,889.75,396.8828,889.75,290.9531,879.75,280.9531,458.75,280.9531" style="stroke: #A80036; stroke-width: 1.0;"/><polygon fill="#FBFB77" points="458.75,280.9531,458.75,334.9531,389.062,338.9531,458.75,342.9531,458.75,396.8828,889.75,396.8828,889.75,290.9531,879.75,280.9531,458.75,280.9531" style="stroke: #A80036; stroke-width: 1.0;"/><line style="stroke: #A80036; stroke-width: 1.0;" x1="879.75" x2="879.75" y1="280.9531" y2="290.9531"/><line style="stroke: #A80036; stroke-width: 1.0;" x1="889.75" x2="879.75" y1="290.9531" y2="290.9531"/><text fill="#000000" font-family="sans-serif" font-size="13" lengthAdjust="spacingAndGlyphs" textLength="284" x="464.75" y="298.02">executeCommand(Command $command) {</text><text fill="#000000" font-family="sans-serif" font-size="13" lengthAdjust="spacingAndGlyphs" textLength="394" x="480.75" y="313.1528">if ($this-&gt;dispatcher-&gt;trigger('beforeExecute', $command)) {</text><text fill="#000000" font-family="sans-serif" font-size="13" lengthAdjust="spacingAndGlyphs" textLength="306" x="496.75" y="328.2856">$command-&gt;setDispatcher($this-&gt;dispatcher);</text><text fill="#000000" font-family="sans-serif" font-size="13" lengthAdjust="spacingAndGlyphs" textLength="330" x="496.75" y="343.4185">$command-&gt;execute($this-&gt;input, $this-&gt;output);</text><text fill="#000000" font-family="sans-serif" font-size="13" lengthAdjust="spacingAndGlyphs" textLength="354" x="496.75" y="358.5513">$this-&gt;dispatcher-&gt;trigger('afterExecute', $command);</text><text fill="#000000" font-family="sans-serif" font-size="13" lengthAdjust="spacingAndGlyphs" textLength="8" x="480.75" y="373.6841">}</text><text fill="#000000" font-family="sans-serif" font-size="13" lengthAdjust="spacingAndGlyphs" textLength="8" x="464.75" y="388.8169">}</text><path d="M466.567,564.8541 C470.147,581.1871 473.893,598.2781 477.066,612.7551 " fill="none" style="stroke: #A80036; stroke-width: 1.0;"/><polygon fill="none" points="459.7,566.2171,462.256,545.1821,473.375,563.2201,459.7,566.2171" style="stroke: #A80036; stroke-width: 1.0;"/><path d="M532.43,501.9531 C576.218,501.9531 630.66,501.9531 675.645,501.9531 " fill="none" style="stroke: #A80036; stroke-width: 1.0;"/><polygon fill="#A80036" points="680.803,501.9531,671.803,497.9531,675.803,501.9531,671.803,505.9531,680.803,501.9531" style="stroke: #A80036; stroke-width: 1.0;"/><text fill="#000000" font-family="sans-serif" font-size="13" lengthAdjust="spacingAndGlyphs" textLength="67" x="572.5" y="494.02">dispatcher</text><path d="M122.869,229.1751 C109.86,244.9021 98.4003,262.3641 91,280.9531 C71.9312,328.8521 59.9835,355.7711 91,396.9531 C99.3553,408.0471 256.091,450.2291 360.559,477.3441 " fill="none" style="stroke: #A80036; stroke-width: 1.0;"/><polygon fill="#A80036" points="373.343,480.6551,365.6329,474.527,368.5026,479.4019,363.6277,482.2716,373.343,480.6551" style="stroke: #A80036; stroke-width: 1.0;"/><line style="stroke: #A80036; stroke-width: 1.0;" x1="368.5026" x2="360.7585" y1="479.4019" y2="477.3961"/><polygon fill="none" points="131.614,219.0961,124.6605,221.0063,123.7493,228.1596,130.7028,226.2494,131.614,219.0961" style="stroke: #A80036; stroke-width: 1.0;"/><text fill="#000000" font-family="sans-serif" font-size="13" lengthAdjust="spacingAndGlyphs" textLength="72" x="92" y="343.02">commands</text><text fill="#000000" font-family="sans-serif" font-size="13" lengthAdjust="spacingAndGlyphs" textLength="24" x="341.8105" y="474.617">1..n</text><path d="M263.899,504.6881 C287.694,505.0781 313.1,505.2571 336.667,504.9531 C342.161,504.8821 347.8,504.7931 353.492,504.6891 " fill="none" style="stroke: #A80036; stroke-width: 1.0; stroke-dasharray: 7.0,7.0;"/><polygon fill="none" points="353.39,497.6901,373.531,504.2751,353.679,511.6871,353.39,497.6901" style="stroke: #A80036; stroke-width: 1.0;"/><path d="M360.17,501.9531 C333.617,501.9531 304.422,501.9531 276.949,501.9531 " fill="none" style="stroke: #A80036; stroke-width: 1.0;"/><polygon fill="none" points="263.827,501.9531,269.827,505.9531,275.827,501.9531,269.827,497.9531,263.827,501.9531" style="stroke: #A80036; stroke-width: 1.0;"/><polygon fill="#A80036" points="373.381,501.9531,364.381,497.9531,368.381,501.9531,364.381,505.9531,373.381,501.9531" style="stroke: #A80036; stroke-width: 1.0;"/><line style="stroke: #A80036; stroke-width: 1.0;" x1="368.381" x2="360.381" y1="501.9531" y2="501.9531"/><text fill="#000000" font-family="sans-serif" font-size="13" lengthAdjust="spacingAndGlyphs" textLength="72" x="281.75" y="494.02">commands</text><text fill="#000000" font-family="sans-serif" font-size="13" lengthAdjust="spacingAndGlyphs" textLength="24" x="341.8511" y="514.5375">1..n</text><path d="M240.197,218.9931 C248.498,240.5531 257.552,264.0671 265.402,284.4541 " fill="none" style="stroke: #A80036; stroke-width: 1.0;"/><polygon fill="#A80036" points="267.265,289.2951,267.7627,279.4589,265.4678,284.6293,260.2974,282.3344,267.265,289.2951" style="stroke: #A80036; stroke-width: 1.0;"/><path d="M336.559,388.6951 C358.52,409.8681 384.103,434.5311 405.686,455.3391 " fill="none" style="stroke: #A80036; stroke-width: 1.0;"/><polygon fill="#A80036" points="409.39,458.9101,405.6861,449.7843,405.7901,455.4402,400.1342,455.5442,409.39,458.9101" style="stroke: #A80036; stroke-width: 1.0;"/></g></svg>