<?xml version="1.0" encoding="UTF-8" standalone="yes"?><svg xmlns="http://www.w3.org/2000/svg" xmlns:xlink="http://www.w3.org/1999/xlink" height="419px" style="width:558px;height:419px;" version="1.1" viewBox="0 0 558 419" width="558px"><defs/><g><text fill="#000000" font-family="sans-serif" font-size="18" lengthAdjust="spacingAndGlyphs" textLength="160" x="215.5" y="16.708">Content Structure</text><polygon fill="#FFFFFF" points="22,44.9531,147,44.9531,154,67.25,388,67.25,388,418.9531,22,418.9531,22,44.9531" style="stroke: #000000; stroke-width: 2.0;"/><line style="stroke: #000000; stroke-width: 2.0;" x1="22" x2="154" y1="67.25" y2="67.25"/><text fill="#000000" font-family="sans-serif" font-size="14" font-weight="bold" lengthAdjust="spacingAndGlyphs" textLength="119" x="25" y="60.9482">Joomla.Content</text><polygon fill="#FFFFFF" points="412,206.9531,546,206.9531,553,229.25,557,229.25,557,306.9531,412,306.9531,412,206.9531" style="stroke: #000000; stroke-width: 2.0;"/><line style="stroke: #000000; stroke-width: 2.0;" x1="412" x2="553" y1="229.25" y2="229.25"/><text fill="#000000" font-family="sans-serif" font-size="14" font-weight="bold" lengthAdjust="spacingAndGlyphs" textLength="128" x="415" y="222.9482">Joomla.Frontend</text><rect fill="#FFFFFF" height="60.8047" style="stroke: #000000; stroke-width: 1.5;" width="128" x="244" y="81.4531"/><ellipse cx="280.6" cy="97.4531" fill="#FFFFFF" rx="11" ry="11" style="stroke: #000000; stroke-width: 1.0;"/><path d="M276.5219,93.2188 L276.5219,91.0625 L283.9125,91.0625 L283.9125,93.2188 L281.4438,93.2188 L281.4438,101.2969 L283.9125,101.2969 L283.9125,103.4531 L276.5219,103.4531 L276.5219,101.2969 L278.9906,101.2969 L278.9906,93.2188 L276.5219,93.2188 Z "/><text fill="#000000" font-family="Verdana" font-size="12" font-style="italic" lengthAdjust="spacingAndGlyphs" textLength="48" x="299.4" y="102.2256">Content</text><line style="stroke: #000000; stroke-width: 1.5;" x1="245" x2="371" y1="113.4531" y2="113.4531"/><line style="stroke: #000000; stroke-width: 1.5;" x1="245" x2="371" y1="121.4531" y2="121.4531"/><ellipse cx="255" cy="133.3555" fill="#84BE84" rx="3" ry="3" style="stroke: #038048; stroke-width: 1.0;"/><text fill="#000000" font-family="sans-serif" font-size="11" font-style="italic" font-weight="bold" lengthAdjust="spacingAndGlyphs" textLength="41" x="264" y="135.6636">accept</text><text fill="#000000" font-family="sans-serif" font-size="11" font-style="italic" lengthAdjust="spacingAndGlyphs" textLength="61" x="305" y="135.6636">(Renderer)</text><rect fill="#FFFFFF" height="48" style="stroke: #000000; stroke-width: 1.5;" width="109" x="262.75" y="242.9531"/><ellipse cx="277.75" cy="258.9531" fill="#FFFFFF" rx="11" ry="11" style="stroke: #000000; stroke-width: 1.0;"/><path d="M273.6719,254.7188 L273.6719,252.5625 L281.0625,252.5625 L281.0625,254.7188 L278.5938,254.7188 L278.5938,262.7969 L281.0625,262.7969 L281.0625,264.9531 L273.6719,264.9531 L273.6719,262.7969 L276.1406,262.7969 L276.1406,254.7188 L273.6719,254.7188 Z "/><text fill="#000000" font-family="Verdana" font-size="12" font-style="italic" lengthAdjust="spacingAndGlyphs" textLength="77" x="291.75" y="263.7256">ContentItem</text><line style="stroke: #000000; stroke-width: 1.5;" x1="263.75" x2="370.75" y1="274.9531" y2="274.9531"/><line style="stroke: #000000; stroke-width: 1.5;" x1="263.75" x2="370.75" y1="282.9531" y2="282.9531"/><rect fill="#FFFFFF" height="48" style="stroke: #000000; stroke-width: 1.5;" width="116" x="40.5" y="87.9531"/><ellipse cx="55.5" cy="103.9531" fill="#FFFFFF" rx="11" ry="11" style="stroke: #000000; stroke-width: 1.0;"/><path d="M51.4219,99.7188 L51.4219,97.5625 L58.8125,97.5625 L58.8125,99.7188 L56.3438,99.7188 L56.3438,107.7969 L58.8125,107.7969 L58.8125,109.9531 L51.4219,109.9531 L51.4219,107.7969 L53.8906,107.7969 L53.8906,99.7188 L51.4219,99.7188 Z "/><text fill="#000000" font-family="Verdana" font-size="12" font-style="italic" lengthAdjust="spacingAndGlyphs" textLength="84" x="69.5" y="108.7256">ContentGroup</text><line style="stroke: #000000; stroke-width: 1.5;" x1="41.5" x2="155.5" y1="119.9531" y2="119.9531"/><line style="stroke: #000000; stroke-width: 1.5;" x1="41.5" x2="155.5" y1="127.9531" y2="127.9531"/><rect fill="#FFFFFF" height="48" style="stroke: #000000; stroke-width: 1.5;" width="90" x="38" y="242.9531"/><ellipse cx="53" cy="258.9531" fill="#FFFFFF" rx="11" ry="11" style="stroke: #000000; stroke-width: 1.0;"/><path d="M55.9688,264.5938 Q55.3906,264.8906 54.75,265.0391 Q54.1094,265.1875 53.4063,265.1875 Q50.9063,265.1875 49.5859,263.5391 Q48.2656,261.8906 48.2656,258.7656 Q48.2656,255.6406 49.5859,253.9844 Q50.9063,252.3281 53.4063,252.3281 Q54.1094,252.3281 54.7578,252.4844 Q55.4063,252.6406 55.9688,252.9375 L55.9688,255.6563 Q55.3438,255.0781 54.75,254.8047 Q54.1563,254.5313 53.5313,254.5313 Q52.1875,254.5313 51.5,255.6016 Q50.8125,256.6719 50.8125,258.7656 Q50.8125,260.8594 51.5,261.9297 Q52.1875,263 53.5313,263 Q54.1563,263 54.75,262.7266 Q55.3438,262.4531 55.9688,261.875 L55.9688,264.5938 Z "/><text fill="#000000" font-family="Verdana" font-size="12" lengthAdjust="spacingAndGlyphs" textLength="58" x="67" y="263.7256">Category</text><line style="stroke: #000000; stroke-width: 1.5;" x1="39" x2="127" y1="274.9531" y2="274.9531"/><line style="stroke: #000000; stroke-width: 1.5;" x1="39" x2="127" y1="282.9531" y2="282.9531"/><rect fill="#FFFFFF" height="48" style="stroke: #000000; stroke-width: 1.5;" width="64" x="163" y="242.9531"/><ellipse cx="178" cy="258.9531" fill="#FFFFFF" rx="11" ry="11" style="stroke: #000000; stroke-width: 1.0;"/><path d="M180.9688,264.5938 Q180.3906,264.8906 179.75,265.0391 Q179.1094,265.1875 178.4063,265.1875 Q175.9063,265.1875 174.5859,263.5391 Q173.2656,261.8906 173.2656,258.7656 Q173.2656,255.6406 174.5859,253.9844 Q175.9063,252.3281 178.4063,252.3281 Q179.1094,252.3281 179.7578,252.4844 Q180.4063,252.6406 180.9688,252.9375 L180.9688,255.6563 Q180.3438,255.0781 179.75,254.8047 Q179.1563,254.5313 178.5313,254.5313 Q177.1875,254.5313 176.5,255.6016 Q175.8125,256.6719 175.8125,258.7656 Q175.8125,260.8594 176.5,261.9297 Q177.1875,263 178.5313,263 Q179.1563,263 179.75,262.7266 Q180.3438,262.4531 180.9688,261.875 L180.9688,264.5938 Z "/><text fill="#000000" font-family="Verdana" font-size="12" lengthAdjust="spacingAndGlyphs" textLength="32" x="192" y="263.7256">Page</text><line style="stroke: #000000; stroke-width: 1.5;" x1="164" x2="226" y1="274.9531" y2="274.9531"/><line style="stroke: #000000; stroke-width: 1.5;" x1="164" x2="226" y1="282.9531" y2="282.9531"/><rect fill="#FFFFFF" height="48" style="stroke: #000000; stroke-width: 1.5;" width="98" x="162.5" y="354.9531"/><ellipse cx="177.5" cy="370.9531" fill="#FFFFFF" rx="11" ry="11" style="stroke: #000000; stroke-width: 1.0;"/><path d="M180.4688,376.5938 Q179.8906,376.8906 179.25,377.0391 Q178.6094,377.1875 177.9063,377.1875 Q175.4063,377.1875 174.0859,375.5391 Q172.7656,373.8906 172.7656,370.7656 Q172.7656,367.6406 174.0859,365.9844 Q175.4063,364.3281 177.9063,364.3281 Q178.6094,364.3281 179.2578,364.4844 Q179.9063,364.6406 180.4688,364.9375 L180.4688,367.6563 Q179.8438,367.0781 179.25,366.8047 Q178.6563,366.5313 178.0313,366.5313 Q176.6875,366.5313 176,367.6016 Q175.3125,368.6719 175.3125,370.7656 Q175.3125,372.8594 176,373.9297 Q176.6875,375 178.0313,375 Q178.6563,375 179.25,374.7266 Q179.8438,374.4531 180.4688,373.875 L180.4688,376.5938 Z "/><text fill="#000000" font-family="Verdana" font-size="12" lengthAdjust="spacingAndGlyphs" textLength="66" x="191.5" y="375.7256">Paragraph</text><line style="stroke: #000000; stroke-width: 1.5;" x1="163.5" x2="259.5" y1="386.9531" y2="386.9531"/><line style="stroke: #000000; stroke-width: 1.5;" x1="163.5" x2="259.5" y1="394.9531" y2="394.9531"/><rect fill="#FFFFFF" height="48" style="stroke: #000000; stroke-width: 1.5;" width="72" x="295" y="354.9531"/><ellipse cx="310" cy="370.9531" fill="#FFFFFF" rx="11" ry="11" style="stroke: #000000; stroke-width: 1.0;"/><path d="M312.9688,376.5938 Q312.3906,376.8906 311.75,377.0391 Q311.1094,377.1875 310.4063,377.1875 Q307.9063,377.1875 306.5859,375.5391 Q305.2656,373.8906 305.2656,370.7656 Q305.2656,367.6406 306.5859,365.9844 Q307.9063,364.3281 310.4063,364.3281 Q311.1094,364.3281 311.7578,364.4844 Q312.4063,364.6406 312.9688,364.9375 L312.9688,367.6563 Q312.3438,367.0781 311.75,366.8047 Q311.1563,366.5313 310.5313,366.5313 Q309.1875,366.5313 308.5,367.6016 Q307.8125,368.6719 307.8125,370.7656 Q307.8125,372.8594 308.5,373.9297 Q309.1875,375 310.5313,375 Q311.1563,375 311.75,374.7266 Q312.3438,374.4531 312.9688,373.875 L312.9688,376.5938 Z "/><text fill="#000000" font-family="Verdana" font-size="12" lengthAdjust="spacingAndGlyphs" textLength="40" x="324" y="375.7256">Image</text><line style="stroke: #000000; stroke-width: 1.5;" x1="296" x2="366" y1="386.9531" y2="386.9531"/><line style="stroke: #000000; stroke-width: 1.5;" x1="296" x2="366" y1="394.9531" y2="394.9531"/><rect fill="#FFFFFF" height="48" style="stroke: #000000; stroke-width: 1.5;" width="86" x="428" y="242.9531"/><ellipse cx="443" cy="258.9531" fill="#FFFFFF" rx="11" ry="11" style="stroke: #000000; stroke-width: 1.0;"/><path d="M443.1094,254.2969 L441.9531,259.375 L444.2813,259.375 L443.1094,254.2969 Z M441.625,252.0625 L444.6094,252.0625 L447.9688,264.4531 L445.5156,264.4531 L444.75,261.3906 L441.4688,261.3906 L440.7188,264.4531 L438.2813,264.4531 L441.625,252.0625 Z "/><text fill="#000000" font-family="Verdana" font-size="12" font-style="italic" lengthAdjust="spacingAndGlyphs" textLength="54" x="457" y="263.7256">Renderer</text><line style="stroke: #000000; stroke-width: 1.5;" x1="429" x2="513" y1="274.9531" y2="274.9531"/><line style="stroke: #000000; stroke-width: 1.5;" x1="429" x2="513" y1="282.9531" y2="282.9531"/><path d="M310.942,162.9671 C312.52,189.7921 314.389,221.5731 315.63,242.6641 " fill="none" style="stroke: #000000; stroke-width: 1.0;"/><polygon fill="none" points="303.943,163.1931,309.757,142.8161,317.919,162.3711,303.943,163.1931" style="stroke: #000000; stroke-width: 1.0;"/><path d="M223.788,114.9361 C210.692,115.1301 197.315,115.1721 184.667,114.9531 C175.334,114.7921 165.438,114.5321 155.8,114.2321 " fill="none" style="stroke: #000000; stroke-width: 1.0;"/><polygon fill="none" points="223.852,107.9331,243.991,114.5221,224.139,121.9311,223.852,107.9331" style="stroke: #000000; stroke-width: 1.0;"/><path d="M168.825,111.9531 C188.735,111.9531 210.484,111.9531 230.748,111.9531 " fill="none" style="stroke: #000000; stroke-width: 1.0;"/><polygon fill="#000000" points="243.816,111.9531,234.816,107.9531,238.816,111.9531,234.816,115.9531,243.816,111.9531" style="stroke: #000000; stroke-width: 1.0;"/><line style="stroke: #000000; stroke-width: 1.0;" x1="238.816" x2="230.816" y1="111.9531" y2="111.9531"/><polygon fill="#000000" points="155.661,111.9531,161.661,115.9531,167.661,111.9531,161.661,107.9531,155.661,111.9531" style="stroke: #000000; stroke-width: 1.0;"/><text fill="#000000" font-family="Verdana" font-size="12" lengthAdjust="spacingAndGlyphs" textLength="49" x="174.5" y="105.0176">children</text><text fill="#000000" font-family="Verdana" font-size="12" lengthAdjust="spacingAndGlyphs" textLength="8" x="228.0057" y="108.2684">n</text><path d="M93.7541,156.2621 C91.0092,184.2591 87.5431,219.6141 85.2996,242.4971 " fill="none" style="stroke: #000000; stroke-width: 1.0; stroke-dasharray: 7.0,7.0;"/><polygon fill="none" points="86.8037,155.4121,95.7218,136.1901,100.7369,156.7781,86.8037,155.4121" style="stroke: #000000; stroke-width: 1.0;"/><path d="M123.638,153.3921 C141.652,181.8061 165.121,218.8251 180.129,242.4971 " fill="none" style="stroke: #000000; stroke-width: 1.0; stroke-dasharray: 7.0,7.0;"/><polygon fill="none" points="117.529,156.8301,112.732,136.1901,129.353,149.3341,117.529,156.8301" style="stroke: #000000; stroke-width: 1.0;"/><path d="M280.798,305.5211 C264.993,321.9221 246.966,340.6298 233.192,354.9239 " fill="none" style="stroke: #000000; stroke-width: 1.0; stroke-dasharray: 7.0,7.0;"/><polygon fill="none" points="275.86,300.5571,294.779,291.0131,285.942,310.2711,275.86,300.5571" style="stroke: #000000; stroke-width: 1.0;"/><path d="M322.465,310.8921 C324.375,325.9001 326.446,342.1692 328.069,354.9239 " fill="none" style="stroke: #000000; stroke-width: 1.0; stroke-dasharray: 7.0,7.0;"/><polygon fill="none" points="315.516,311.7361,319.935,291.0131,329.404,309.9691,315.516,311.7361" style="stroke: #000000; stroke-width: 1.0;"/><path d="M343.544,146.3161 C373.218,174.1701 414.968,213.3581 442.488,239.1901 " fill="none" style="stroke: #000000; stroke-width: 1.0;"/><polygon fill="#000000" points="446.442,242.9021,442.6167,233.8265,442.7961,239.4805,437.1421,239.66,446.442,242.9021" style="stroke: #000000; stroke-width: 1.0;"/><polygon fill="#000000" points="339.815,142.8161,343.6403,151.8917,343.4609,146.2377,349.1149,146.0583,339.815,142.8161" style="stroke: #000000; stroke-width: 1.0;"/><text fill="#000000" font-family="Verdana" font-size="12" lengthAdjust="spacingAndGlyphs" textLength="46" x="390" y="186.5176">«uses»</text></g></svg>