<?xml version="1.0" encoding="UTF-8" standalone="yes"?><svg xmlns="http://www.w3.org/2000/svg" xmlns:xlink="http://www.w3.org/1999/xlink" height="347px" style="width:602px;height:347px;" version="1.1" viewBox="0 0 602 347" width="602px"><defs><filter height="300%" id="f1" width="300%" x="-1" y="-1"><feGaussianBlur result="blurOut" stdDeviation="2.0"/><feColorMatrix in="blurOut" result="blurOut2" type="matrix" values="0 0 0 0 0 0 0 0 0 0 0 0 0 0 0 0 0 0 .4 0"/><feOffset dx="4.0" dy="4.0" in="blurOut2" result="blurOut3"/><feBlend in="SourceGraphic" in2="blurOut3" mode="normal"/></filter></defs><g><text fill="#000000" font-family="sans-serif" font-size="18" lengthAdjust="spacingAndGlyphs" textLength="215" x="198" y="16.708">Undo / Redo Commands</text><rect fill="#FEFECE" filter="url(#f1)" height="86.4141" style="stroke: #A80036; stroke-width: 1.5;" width="159" x="219.75" y="28.9531"/><ellipse cx="264" cy="44.9531" fill="#B4A7E5" rx="11" ry="11" style="stroke: #A80036; stroke-width: 1.0;"/><path d="M259.9219,40.7188 L259.9219,38.5625 L267.3125,38.5625 L267.3125,40.7188 L264.8438,40.7188 L264.8438,48.7969 L267.3125,48.7969 L267.3125,50.9531 L259.9219,50.9531 L259.9219,48.7969 L262.3906,48.7969 L262.3906,40.7188 L259.9219,40.7188 Z "/><text fill="#000000" font-family="sans-serif" font-size="12" font-style="italic" lengthAdjust="spacingAndGlyphs" textLength="62" x="284.5" y="49.1074">Command</text><line style="stroke: #A80036; stroke-width: 1.5;" x1="220.75" x2="377.75" y1="60.9531" y2="60.9531"/><rect fill="none" height="6" style="stroke: #C82930; stroke-width: 1.0;" width="6" x="227.75" y="69.8555"/><text fill="#000000" font-family="sans-serif" font-size="11" lengthAdjust="spacingAndGlyphs" textLength="33" x="239.75" y="75.1636">string</text><text fill="#000000" font-family="sans-serif" font-size="11" font-weight="bold" lengthAdjust="spacingAndGlyphs" textLength="35" x="276.75" y="75.1636">name</text><rect fill="none" height="6" style="stroke: #C82930; stroke-width: 1.0;" width="6" x="227.75" y="82.6602"/><text fill="#000000" font-family="sans-serif" font-size="11" lengthAdjust="spacingAndGlyphs" textLength="33" x="239.75" y="87.9683">string</text><text fill="#000000" font-family="sans-serif" font-size="11" font-weight="bold" lengthAdjust="spacingAndGlyphs" textLength="72" x="276.75" y="87.9683">description</text><line style="stroke: #A80036; stroke-width: 1.5;" x1="220.75" x2="377.75" y1="94.5625" y2="94.5625"/><ellipse cx="230.75" cy="106.4648" fill="#84BE84" rx="3" ry="3" style="stroke: #038048; stroke-width: 1.0;"/><text fill="#000000" font-family="sans-serif" font-size="11" font-weight="bold" lengthAdjust="spacingAndGlyphs" textLength="51" x="239.75" y="108.7729">execute</text><text fill="#000000" font-family="sans-serif" font-size="11" lengthAdjust="spacingAndGlyphs" textLength="82" x="290.75" y="108.7729">(Input, Output)</text><rect fill="#FEFECE" filter="url(#f1)" height="48" style="stroke: #A80036; stroke-width: 1.5;" width="127" x="117.75" y="174.9531"/><ellipse cx="132.75" cy="190.9531" fill="#ADD1B2" rx="11" ry="11" style="stroke: #A80036; stroke-width: 1.0;"/><path d="M135.7188,196.5938 Q135.1406,196.8906 134.5,197.0391 Q133.8594,197.1875 133.1563,197.1875 Q130.6563,197.1875 129.3359,195.5391 Q128.0156,193.8906 128.0156,190.7656 Q128.0156,187.6406 129.3359,185.9844 Q130.6563,184.3281 133.1563,184.3281 Q133.8594,184.3281 134.5078,184.4844 Q135.1563,184.6406 135.7188,184.9375 L135.7188,187.6563 Q135.0938,187.0781 134.5,186.8047 Q133.9063,186.5313 133.2813,186.5313 Q131.9375,186.5313 131.25,187.6016 Q130.5625,188.6719 130.5625,190.7656 Q130.5625,192.8594 131.25,193.9297 Q131.9375,195 133.2813,195 Q133.9063,195 134.5,194.7266 Q135.0938,194.4531 135.7188,193.875 L135.7188,196.5938 Z "/><text fill="#000000" font-family="sans-serif" font-size="12" lengthAdjust="spacingAndGlyphs" textLength="95" x="146.75" y="195.1074">UndoCommand</text><line style="stroke: #A80036; stroke-width: 1.5;" x1="118.75" x2="243.75" y1="206.9531" y2="206.9531"/><line style="stroke: #A80036; stroke-width: 1.5;" x1="118.75" x2="243.75" y1="214.9531" y2="214.9531"/><polygon fill="#FBFB77" filter="url(#f1)" points="6,283.4531,6,338.8516,282,338.8516,282,293.4531,272,283.4531,6,283.4531" style="stroke: #A80036; stroke-width: 1.0;"/><polygon fill="#FBFB77" points="6,283.4531,6,338.8516,282,338.8516,282,293.4531,272,283.4531,156.917,283.4531,173.244,223.0131,148.917,283.4531,6,283.4531" style="stroke: #A80036; stroke-width: 1.0;"/><line style="stroke: #A80036; stroke-width: 1.0;" x1="272" x2="272" y1="283.4531" y2="293.4531"/><line style="stroke: #A80036; stroke-width: 1.0;" x1="282" x2="272" y1="293.4531" y2="293.4531"/><text fill="#000000" font-family="sans-serif" font-size="13" lengthAdjust="spacingAndGlyphs" textLength="255" x="12" y="300.52">execute(Input $input, Output $output) {</text><text fill="#000000" font-family="sans-serif" font-size="13" lengthAdjust="spacingAndGlyphs" textLength="224" x="28" y="315.6528">$this-&gt;dispatcher-&gt;trigger('undo');</text><text fill="#000000" font-family="sans-serif" font-size="13" lengthAdjust="spacingAndGlyphs" textLength="8" x="12" y="330.7856">}</text><rect fill="#FEFECE" filter="url(#f1)" height="48" style="stroke: #A80036; stroke-width: 1.5;" width="126" x="354" y="174.9531"/><ellipse cx="369" cy="190.9531" fill="#ADD1B2" rx="11" ry="11" style="stroke: #A80036; stroke-width: 1.0;"/><path d="M371.9688,196.5938 Q371.3906,196.8906 370.75,197.0391 Q370.1094,197.1875 369.4063,197.1875 Q366.9063,197.1875 365.5859,195.5391 Q364.2656,193.8906 364.2656,190.7656 Q364.2656,187.6406 365.5859,185.9844 Q366.9063,184.3281 369.4063,184.3281 Q370.1094,184.3281 370.7578,184.4844 Q371.4063,184.6406 371.9688,184.9375 L371.9688,187.6563 Q371.3438,187.0781 370.75,186.8047 Q370.1563,186.5313 369.5313,186.5313 Q368.1875,186.5313 367.5,187.6016 Q366.8125,188.6719 366.8125,190.7656 Q366.8125,192.8594 367.5,193.9297 Q368.1875,195 369.5313,195 Q370.1563,195 370.75,194.7266 Q371.3438,194.4531 371.9688,193.875 L371.9688,196.5938 Z "/><text fill="#000000" font-family="sans-serif" font-size="12" lengthAdjust="spacingAndGlyphs" textLength="94" x="383" y="195.1074">RedoCommand</text><line style="stroke: #A80036; stroke-width: 1.5;" x1="355" x2="479" y1="206.9531" y2="206.9531"/><line style="stroke: #A80036; stroke-width: 1.5;" x1="355" x2="479" y1="214.9531" y2="214.9531"/><polygon fill="#FBFB77" filter="url(#f1)" points="317,283.4531,317,338.8516,593,338.8516,593,293.4531,583,283.4531,317,283.4531" style="stroke: #A80036; stroke-width: 1.0;"/><polygon fill="#FBFB77" points="317,283.4531,317,338.8516,593,338.8516,593,293.4531,583,283.4531,449.842,283.4531,424.966,223.0131,441.842,283.4531,317,283.4531" style="stroke: #A80036; stroke-width: 1.0;"/><line style="stroke: #A80036; stroke-width: 1.0;" x1="583" x2="583" y1="283.4531" y2="293.4531"/><line style="stroke: #A80036; stroke-width: 1.0;" x1="593" x2="583" y1="293.4531" y2="293.4531"/><text fill="#000000" font-family="sans-serif" font-size="13" lengthAdjust="spacingAndGlyphs" textLength="255" x="323" y="300.52">execute(Input $input, Output $output) {</text><text fill="#000000" font-family="sans-serif" font-size="13" lengthAdjust="spacingAndGlyphs" textLength="221" x="339" y="315.6528">$this-&gt;dispatcher-&gt;trigger('redo');</text><text fill="#000000" font-family="sans-serif" font-size="13" lengthAdjust="spacingAndGlyphs" textLength="8" x="323" y="330.7856">}</text><path d="M245.068,130.0841 C230.217,145.8161 214.935,162.0051 203.022,174.6251 " fill="none" style="stroke: #A80036; stroke-width: 1.0; stroke-dasharray: 7.0,7.0;"/><polygon fill="none" points="240.231,125.0111,259.051,115.2721,250.412,134.6211,240.231,125.0111" style="stroke: #A80036; stroke-width: 1.0;"/><path d="M352.932,130.0841 C367.783,145.8161 383.065,162.0051 394.978,174.6251 " fill="none" style="stroke: #A80036; stroke-width: 1.0; stroke-dasharray: 7.0,7.0;"/><polygon fill="none" points="347.588,134.6211,338.949,115.2721,357.769,125.0111,347.588,134.6211" style="stroke: #A80036; stroke-width: 1.0;"/></g></svg>