<?xml version="1.0" encoding="UTF-8" standalone="yes"?><svg xmlns="http://www.w3.org/2000/svg" xmlns:xlink="http://www.w3.org/1999/xlink" height="867px" style="width:891px;height:867px;" version="1.1" viewBox="0 0 891 867" width="891px"><defs/><g><text fill="#000000" font-family="sans-serif" font-size="18" lengthAdjust="spacingAndGlyphs" textLength="179" x="372.5" y="16.708">Command Structure</text><polygon fill="#FFFFFF" points="22,44.9531,162,44.9531,169,67.25,890,67.25,890,866.9531,22,866.9531,22,44.9531" style="stroke: #000000; stroke-width: 2.0;"/><line style="stroke: #000000; stroke-width: 2.0;" x1="22" x2="169" y1="67.25" y2="67.25"/><text fill="#000000" font-family="sans-serif" font-size="14" font-weight="bold" lengthAdjust="spacingAndGlyphs" textLength="134" x="25" y="60.9482">Joomla.Command</text><rect fill="#FFFFFF" height="137.6328" style="stroke: #000000; stroke-width: 1.5;" width="209" x="107.75" y="80.9531"/><ellipse cx="179" cy="96.9531" fill="#FFFFFF" rx="11" ry="11" style="stroke: #000000; stroke-width: 1.0;"/><path d="M174.9219,92.7188 L174.9219,90.5625 L182.3125,90.5625 L182.3125,92.7188 L179.8438,92.7188 L179.8438,100.7969 L182.3125,100.7969 L182.3125,102.9531 L174.9219,102.9531 L174.9219,100.7969 L177.3906,100.7969 L177.3906,92.7188 L174.9219,92.7188 Z "/><text fill="#000000" font-family="Verdana" font-size="12" font-style="italic" lengthAdjust="spacingAndGlyphs" textLength="58" x="199.5" y="101.7256">Controller</text><line style="stroke: #000000; stroke-width: 1.5;" x1="108.75" x2="315.75" y1="112.9531" y2="112.9531"/><rect fill="none" height="6" style="stroke: #C82930; stroke-width: 1.0;" width="6" x="115.75" y="121.8555"/><text fill="#000000" font-family="sans-serif" font-size="11" lengthAdjust="spacingAndGlyphs" textLength="116" x="127.75" y="127.1636">CommandProcessor</text><text fill="#000000" font-family="sans-serif" font-size="11" font-weight="bold" lengthAdjust="spacingAndGlyphs" textLength="63" x="247.75" y="127.1636">processor</text><rect fill="none" height="6" style="stroke: #C82930; stroke-width: 1.0;" width="6" x="115.75" y="134.6602"/><text fill="#000000" font-family="sans-serif" font-size="11" lengthAdjust="spacingAndGlyphs" textLength="61" x="127.75" y="139.9683">Dispatcher</text><text fill="#000000" font-family="sans-serif" font-size="11" font-weight="bold" lengthAdjust="spacingAndGlyphs" textLength="68" x="192.75" y="139.9683">dispatcher</text><rect fill="none" height="6" style="stroke: #C82930; stroke-width: 1.0;" width="6" x="115.75" y="147.4648"/><text fill="#000000" font-family="sans-serif" font-size="11" lengthAdjust="spacingAndGlyphs" textLength="28" x="127.75" y="152.7729">Input</text><text fill="#000000" font-family="sans-serif" font-size="11" font-weight="bold" lengthAdjust="spacingAndGlyphs" textLength="33" x="159.75" y="152.7729">input</text><rect fill="none" height="6" style="stroke: #C82930; stroke-width: 1.0;" width="6" x="115.75" y="160.2695"/><text fill="#000000" font-family="sans-serif" font-size="11" lengthAdjust="spacingAndGlyphs" textLength="38" x="127.75" y="165.5776">Output</text><text fill="#000000" font-family="sans-serif" font-size="11" font-weight="bold" lengthAdjust="spacingAndGlyphs" textLength="42" x="169.75" y="165.5776">output</text><line style="stroke: #000000; stroke-width: 1.5;" x1="108.75" x2="315.75" y1="172.1719" y2="172.1719"/><polygon fill="#FFFF44" points="118.75,179.0742,122.75,183.0742,118.75,187.0742,114.75,183.0742" style="stroke: #B38D22; stroke-width: 1.0;"/><text fill="#000000" font-family="sans-serif" font-size="11" font-style="italic" font-weight="bold" lengthAdjust="spacingAndGlyphs" textLength="23" x="127.75" y="186.3823">add</text><text fill="#000000" font-family="sans-serif" font-size="11" font-style="italic" lengthAdjust="spacingAndGlyphs" textLength="66" x="150.75" y="186.3823">(Command)</text><polygon fill="#FFFF44" points="118.75,191.8789,122.75,195.8789,118.75,199.8789,114.75,195.8789" style="stroke: #B38D22; stroke-width: 1.0;"/><text fill="#000000" font-family="sans-serif" font-size="11" font-style="italic" font-weight="bold" lengthAdjust="spacingAndGlyphs" textLength="93" x="127.75" y="199.187">addCommands</text><text fill="#000000" font-family="sans-serif" font-size="11" font-style="italic" lengthAdjust="spacingAndGlyphs" textLength="74" x="220.75" y="199.187">(Command[])</text><ellipse cx="118.75" cy="209.6836" fill="#84BE84" rx="3" ry="3" style="stroke: #038048; stroke-width: 1.0;"/><text fill="#000000" font-family="sans-serif" font-size="11" font-style="italic" font-weight="bold" lengthAdjust="spacingAndGlyphs" textLength="21" x="127.75" y="211.9917">run</text><text fill="#000000" font-family="sans-serif" font-size="11" font-style="italic" lengthAdjust="spacingAndGlyphs" textLength="8" x="148.75" y="211.9917">()</text><polygon fill="#FFFFE0" points="486.75,100.9531,486.75,198.457,773.75,198.457,773.75,110.9531,763.75,100.9531,486.75,100.9531" style="stroke: #000000; stroke-width: 1.0;"/><polygon fill="#FFFFE0" points="486.75,100.9531,486.75,145.9531,316.5,149.9531,486.75,153.9531,486.75,198.457,773.75,198.457,773.75,110.9531,763.75,100.9531,486.75,100.9531" style="stroke: #000000; stroke-width: 1.0;"/><line style="stroke: #000000; stroke-width: 1.0;" x1="763.75" x2="763.75" y1="100.9531" y2="110.9531"/><line style="stroke: #000000; stroke-width: 1.0;" x1="773.75" x2="763.75" y1="110.9531" y2="110.9531"/><text fill="#000000" font-family="Verdana" font-size="12" lengthAdjust="spacingAndGlyphs" textLength="43" x="492.75" y="118.0176">run() {</text><text fill="#000000" font-family="Verdana" font-size="12" lengthAdjust="spacingAndGlyphs" textLength="250" x="508.75" y="132.6016">// Determine command name from input</text><text fill="#000000" font-family="Verdana" font-size="12" lengthAdjust="spacingAndGlyphs" textLength="239" x="508.75" y="147.1855">$this-&gt;processor-&gt;executeCommand(</text><text fill="#000000" font-family="Verdana" font-size="12" lengthAdjust="spacingAndGlyphs" textLength="226" x="524.75" y="161.7695">$this-&gt;commands[$commandName]</text><text fill="#000000" font-family="Verdana" font-size="12" lengthAdjust="spacingAndGlyphs" textLength="10" x="508.75" y="176.3535">);</text><text fill="#000000" font-family="Verdana" font-size="12" lengthAdjust="spacingAndGlyphs" textLength="8" x="492.75" y="190.9375">}</text><rect fill="#FFFFFF" height="86.4141" style="stroke: #000000; stroke-width: 1.5;" width="156" x="203" y="454.9531"/><ellipse cx="246.35" cy="470.9531" fill="#FFFFFF" rx="11" ry="11" style="stroke: #000000; stroke-width: 1.0;"/><path d="M242.2719,466.7188 L242.2719,464.5625 L249.6625,464.5625 L249.6625,466.7188 L247.1938,466.7188 L247.1938,474.7969 L249.6625,474.7969 L249.6625,476.9531 L242.2719,476.9531 L242.2719,474.7969 L244.7406,474.7969 L244.7406,466.7188 L242.2719,466.7188 Z "/><text fill="#000000" font-family="Verdana" font-size="12" font-style="italic" lengthAdjust="spacingAndGlyphs" textLength="61" x="266.65" y="475.7256">Command</text><line style="stroke: #000000; stroke-width: 1.5;" x1="204" x2="358" y1="486.9531" y2="486.9531"/><rect fill="none" height="6" style="stroke: #C82930; stroke-width: 1.0;" width="6" x="211" y="495.8555"/><text fill="#000000" font-family="sans-serif" font-size="11" lengthAdjust="spacingAndGlyphs" textLength="33" x="223" y="501.1636">string</text><text fill="#000000" font-family="sans-serif" font-size="11" font-weight="bold" lengthAdjust="spacingAndGlyphs" textLength="35" x="260" y="501.1636">name</text><rect fill="none" height="6" style="stroke: #C82930; stroke-width: 1.0;" width="6" x="211" y="508.6602"/><text fill="#000000" font-family="sans-serif" font-size="11" lengthAdjust="spacingAndGlyphs" textLength="33" x="223" y="513.9683">string</text><text fill="#000000" font-family="sans-serif" font-size="11" font-weight="bold" lengthAdjust="spacingAndGlyphs" textLength="72" x="260" y="513.9683">description</text><line style="stroke: #000000; stroke-width: 1.5;" x1="204" x2="358" y1="520.5625" y2="520.5625"/><ellipse cx="214" cy="532.4648" fill="#84BE84" rx="3" ry="3" style="stroke: #038048; stroke-width: 1.0;"/><text fill="#000000" font-family="sans-serif" font-size="11" font-style="italic" font-weight="bold" lengthAdjust="spacingAndGlyphs" textLength="48" x="223" y="534.7729">execute</text><text fill="#000000" font-family="sans-serif" font-size="11" font-style="italic" lengthAdjust="spacingAndGlyphs" textLength="82" x="271" y="534.7729">(Input, Output)</text><rect fill="#FFFFFF" height="73.6094" style="stroke: #000000; stroke-width: 1.5;" width="164" x="38" y="624.9531"/><ellipse cx="53" cy="640.9531" fill="#FFFFFF" rx="11" ry="11" style="stroke: #000000; stroke-width: 1.0;"/><path d="M48.9219,636.7188 L48.9219,634.5625 L56.3125,634.5625 L56.3125,636.7188 L53.8438,636.7188 L53.8438,644.7969 L56.3125,644.7969 L56.3125,646.9531 L48.9219,646.9531 L48.9219,644.7969 L51.3906,644.7969 L51.3906,636.7188 L48.9219,636.7188 Z "/><text fill="#000000" font-family="Verdana" font-size="12" font-style="italic" lengthAdjust="spacingAndGlyphs" textLength="132" x="67" y="645.7256">RecoverableCommand</text><line style="stroke: #000000; stroke-width: 1.5;" x1="39" x2="201" y1="656.9531" y2="656.9531"/><line style="stroke: #000000; stroke-width: 1.5;" x1="39" x2="201" y1="664.9531" y2="664.9531"/><ellipse cx="49" cy="676.8555" fill="#84BE84" rx="3" ry="3" style="stroke: #038048; stroke-width: 1.0;"/><text fill="#000000" font-family="sans-serif" font-size="11" font-style="italic" font-weight="bold" lengthAdjust="spacingAndGlyphs" textLength="32" x="58" y="679.1636">undo</text><text fill="#000000" font-family="sans-serif" font-size="11" font-style="italic" lengthAdjust="spacingAndGlyphs" textLength="8" x="90" y="679.1636">()</text><ellipse cx="49" cy="689.6602" fill="#84BE84" rx="3" ry="3" style="stroke: #038048; stroke-width: 1.0;"/><text fill="#000000" font-family="sans-serif" font-size="11" font-style="italic" font-weight="bold" lengthAdjust="spacingAndGlyphs" textLength="28" x="58" y="691.9683">redo</text><text fill="#000000" font-family="sans-serif" font-size="11" font-style="italic" lengthAdjust="spacingAndGlyphs" textLength="8" x="86" y="691.9683">()</text><rect fill="#FFFFFF" height="60.8047" style="stroke: #000000; stroke-width: 1.5;" width="163" x="586.75" y="467.4531"/><ellipse cx="632" cy="483.4531" fill="#FFFFFF" rx="11" ry="11" style="stroke: #000000; stroke-width: 1.0;"/><path d="M627.9219,479.2188 L627.9219,477.0625 L635.3125,477.0625 L635.3125,479.2188 L632.8438,479.2188 L632.8438,487.2969 L635.3125,487.2969 L635.3125,489.4531 L627.9219,489.4531 L627.9219,487.2969 L630.3906,487.2969 L630.3906,479.2188 L627.9219,479.2188 Z "/><text fill="#000000" font-family="Verdana" font-size="12" font-style="italic" lengthAdjust="spacingAndGlyphs" textLength="64" x="652.5" y="488.2256">Dispatcher</text><line style="stroke: #000000; stroke-width: 1.5;" x1="587.75" x2="748.75" y1="499.4531" y2="499.4531"/><line style="stroke: #000000; stroke-width: 1.5;" x1="587.75" x2="748.75" y1="507.4531" y2="507.4531"/><ellipse cx="597.75" cy="519.3555" fill="#84BE84" rx="3" ry="3" style="stroke: #038048; stroke-width: 1.0;"/><text fill="#000000" font-family="sans-serif" font-size="11" font-style="italic" font-weight="bold" lengthAdjust="spacingAndGlyphs" textLength="42" x="606.75" y="521.6636">trigger</text><text fill="#000000" font-family="sans-serif" font-size="11" font-style="italic" lengthAdjust="spacingAndGlyphs" textLength="95" x="648.75" y="521.6636">(string, mixed...)</text><rect fill="#FFFFFF" height="86.4141" style="stroke: #000000; stroke-width: 1.5;" width="194" x="237.5" y="618.9531"/><ellipse cx="280.4" cy="634.9531" fill="#FFFFFF" rx="11" ry="11" style="stroke: #000000; stroke-width: 1.0;"/><path d="M283.3688,640.5938 Q282.7906,640.8906 282.15,641.0391 Q281.5094,641.1875 280.8063,641.1875 Q278.3063,641.1875 276.9859,639.5391 Q275.6656,637.8906 275.6656,634.7656 Q275.6656,631.6406 276.9859,629.9844 Q278.3063,628.3281 280.8063,628.3281 Q281.5094,628.3281 282.1578,628.4844 Q282.8063,628.6406 283.3688,628.9375 L283.3688,631.6563 Q282.7438,631.0781 282.15,630.8047 Q281.5563,630.5313 280.9313,630.5313 Q279.5875,630.5313 278.9,631.6016 Q278.2125,632.6719 278.2125,634.7656 Q278.2125,636.8594 278.9,637.9297 Q279.5875,639 280.9313,639 Q281.5563,639 282.15,638.7266 Q282.7438,638.4531 283.3688,637.875 L283.3688,640.5938 Z "/><text fill="#000000" font-family="Verdana" font-size="12" lengthAdjust="spacingAndGlyphs" textLength="100" x="300.6" y="639.7256">MacroCommand</text><line style="stroke: #000000; stroke-width: 1.5;" x1="238.5" x2="430.5" y1="650.9531" y2="650.9531"/><line style="stroke: #000000; stroke-width: 1.5;" x1="238.5" x2="430.5" y1="658.9531" y2="658.9531"/><ellipse cx="248.5" cy="670.8555" fill="#84BE84" rx="3" ry="3" style="stroke: #038048; stroke-width: 1.0;"/><text fill="#000000" font-family="sans-serif" font-size="11" font-weight="bold" lengthAdjust="spacingAndGlyphs" textLength="24" x="257.5" y="673.1636">add</text><text fill="#000000" font-family="sans-serif" font-size="11" lengthAdjust="spacingAndGlyphs" textLength="66" x="281.5" y="673.1636">(Command)</text><ellipse cx="248.5" cy="683.6602" fill="#84BE84" rx="3" ry="3" style="stroke: #038048; stroke-width: 1.0;"/><text fill="#000000" font-family="sans-serif" font-size="11" font-weight="bold" lengthAdjust="spacingAndGlyphs" textLength="94" x="257.5" y="685.9683">addCommands</text><text fill="#000000" font-family="sans-serif" font-size="11" lengthAdjust="spacingAndGlyphs" textLength="74" x="351.5" y="685.9683">(Command[])</text><ellipse cx="248.5" cy="696.4648" fill="#84BE84" rx="3" ry="3" style="stroke: #038048; stroke-width: 1.0;"/><text fill="#000000" font-family="sans-serif" font-size="11" font-weight="bold" lengthAdjust="spacingAndGlyphs" textLength="51" x="257.5" y="698.7729">execute</text><text fill="#000000" font-family="sans-serif" font-size="11" lengthAdjust="spacingAndGlyphs" textLength="82" x="308.5" y="698.7729">(Input, Output)</text><polygon fill="#FFFFE0" points="177.75,767.4531,177.75,850.373,490.75,850.373,490.75,777.4531,480.75,767.4531,177.75,767.4531" style="stroke: #000000; stroke-width: 1.0;"/><polygon fill="#FFFFE0" points="177.75,767.4531,177.75,850.373,490.75,850.373,490.75,777.4531,480.75,767.4531,338,767.4531,334,705.2831,330,767.4531,177.75,767.4531" style="stroke: #000000; stroke-width: 1.0;"/><line style="stroke: #000000; stroke-width: 1.0;" x1="480.75" x2="480.75" y1="767.4531" y2="777.4531"/><line style="stroke: #000000; stroke-width: 1.0;" x1="490.75" x2="480.75" y1="777.4531" y2="777.4531"/><text fill="#000000" font-family="Verdana" font-size="12" lengthAdjust="spacingAndGlyphs" textLength="256" x="183.75" y="784.5176">execute(Input $input, Output $output) {</text><text fill="#000000" font-family="Verdana" font-size="12" lengthAdjust="spacingAndGlyphs" textLength="276" x="199.75" y="799.1016">foreach ($this-&gt;commands as $command) {</text><text fill="#000000" font-family="Verdana" font-size="12" lengthAdjust="spacingAndGlyphs" textLength="245" x="215.75" y="813.6855">$command-&gt;execute($input, $output);</text><text fill="#000000" font-family="Verdana" font-size="12" lengthAdjust="spacingAndGlyphs" textLength="8" x="199.75" y="828.2695">}</text><text fill="#000000" font-family="Verdana" font-size="12" lengthAdjust="spacingAndGlyphs" textLength="8" x="183.75" y="842.8535">}</text><rect fill="#FFFFFF" height="99.2188" style="stroke: #000000; stroke-width: 1.5;" width="206" x="178" y="287.4531"/><ellipse cx="215.05" cy="303.4531" fill="#FFFFFF" rx="11" ry="11" style="stroke: #000000; stroke-width: 1.0;"/><path d="M218.0188,309.0938 Q217.4406,309.3906 216.8,309.5391 Q216.1594,309.6875 215.4563,309.6875 Q212.9563,309.6875 211.6359,308.0391 Q210.3156,306.3906 210.3156,303.2656 Q210.3156,300.1406 211.6359,298.4844 Q212.9563,296.8281 215.4563,296.8281 Q216.1594,296.8281 216.8078,296.9844 Q217.4563,297.1406 218.0188,297.4375 L218.0188,300.1563 Q217.3938,299.5781 216.8,299.3047 Q216.2063,299.0313 215.5813,299.0313 Q214.2375,299.0313 213.55,300.1016 Q212.8625,301.1719 212.8625,303.2656 Q212.8625,305.3594 213.55,306.4297 Q214.2375,307.5 215.5813,307.5 Q216.2063,307.5 216.8,307.2266 Q217.3938,306.9531 218.0188,306.375 L218.0188,309.0938 Z "/><text fill="#000000" font-family="Verdana" font-size="12" lengthAdjust="spacingAndGlyphs" textLength="125" x="233.95" y="308.2256">CommandProcessor</text><line style="stroke: #000000; stroke-width: 1.5;" x1="179" x2="383" y1="319.4531" y2="319.4531"/><rect fill="none" height="6" style="stroke: #C82930; stroke-width: 1.0;" width="6" x="186" y="328.3555"/><text fill="#000000" font-family="sans-serif" font-size="11" lengthAdjust="spacingAndGlyphs" textLength="61" x="198" y="333.6636">Dispatcher</text><text fill="#000000" font-family="sans-serif" font-size="11" font-weight="bold" lengthAdjust="spacingAndGlyphs" textLength="68" x="263" y="333.6636">dispatcher</text><rect fill="none" height="6" style="stroke: #C82930; stroke-width: 1.0;" width="6" x="186" y="341.1602"/><text fill="#000000" font-family="sans-serif" font-size="11" lengthAdjust="spacingAndGlyphs" textLength="28" x="198" y="346.4683">Input</text><text fill="#000000" font-family="sans-serif" font-size="11" font-weight="bold" lengthAdjust="spacingAndGlyphs" textLength="33" x="230" y="346.4683">input</text><rect fill="none" height="6" style="stroke: #C82930; stroke-width: 1.0;" width="6" x="186" y="353.9648"/><text fill="#000000" font-family="sans-serif" font-size="11" lengthAdjust="spacingAndGlyphs" textLength="38" x="198" y="359.2729">Output</text><text fill="#000000" font-family="sans-serif" font-size="11" font-weight="bold" lengthAdjust="spacingAndGlyphs" textLength="42" x="240" y="359.2729">output</text><line style="stroke: #000000; stroke-width: 1.5;" x1="179" x2="383" y1="365.8672" y2="365.8672"/><ellipse cx="189" cy="377.7695" fill="#84BE84" rx="3" ry="3" style="stroke: #038048; stroke-width: 1.0;"/><text fill="#000000" font-family="sans-serif" font-size="11" font-weight="bold" lengthAdjust="spacingAndGlyphs" textLength="114" x="198" y="380.0776">executeCommand</text><text fill="#000000" font-family="sans-serif" font-size="11" lengthAdjust="spacingAndGlyphs" textLength="66" x="312" y="380.0776">(Command)</text><polygon fill="#FFFFE0" points="454,280.9531,454,393.041,874,393.041,874,290.9531,864,280.9531,454,280.9531" style="stroke: #000000; stroke-width: 1.0;"/><polygon fill="#FFFFE0" points="454,280.9531,454,332.9531,384.23,336.9531,454,340.9531,454,393.041,874,393.041,874,290.9531,864,280.9531,454,280.9531" style="stroke: #000000; stroke-width: 1.0;"/><line style="stroke: #000000; stroke-width: 1.0;" x1="864" x2="864" y1="280.9531" y2="290.9531"/><line style="stroke: #000000; stroke-width: 1.0;" x1="874" x2="864" y1="290.9531" y2="290.9531"/><text fill="#000000" font-family="Verdana" font-size="12" lengthAdjust="spacingAndGlyphs" textLength="270" x="460" y="298.0176">executeCommand(Command $command) {</text><text fill="#000000" font-family="Verdana" font-size="12" lengthAdjust="spacingAndGlyphs" textLength="383" x="476" y="312.6016">if ($this-&gt;dispatcher-&gt;trigger('beforeExecute', $command)) {</text><text fill="#000000" font-family="Verdana" font-size="12" lengthAdjust="spacingAndGlyphs" textLength="295" x="492" y="327.1855">$command-&gt;setDispatcher($this-&gt;dispatcher);</text><text fill="#000000" font-family="Verdana" font-size="12" lengthAdjust="spacingAndGlyphs" textLength="319" x="492" y="341.7695">$command-&gt;execute($this-&gt;input, $this-&gt;output);</text><text fill="#000000" font-family="Verdana" font-size="12" lengthAdjust="spacingAndGlyphs" textLength="344" x="492" y="356.3535">$this-&gt;dispatcher-&gt;trigger('afterExecute', $command);</text><text fill="#000000" font-family="Verdana" font-size="12" lengthAdjust="spacingAndGlyphs" textLength="8" x="476" y="370.9375">}</text><text fill="#000000" font-family="Verdana" font-size="12" lengthAdjust="spacingAndGlyphs" textLength="8" x="460" y="385.5215">}</text><path d="M224.948,555.3531 C202.049,578.3951 176.233,604.3701 155.937,624.7931 " fill="none" style="stroke: #000000; stroke-width: 1.0;"/><polygon fill="none" points="220.056,550.3451,239.119,541.0941,229.986,560.2141,220.056,550.3451" style="stroke: #000000; stroke-width: 1.0;"/><path d="M359.315,497.9531 C423.677,497.9531 514.77,497.9531 581.316,497.9531 " fill="none" style="stroke: #000000; stroke-width: 1.0;"/><polygon fill="#000000" points="586.467,497.9531,577.467,493.9531,581.467,497.9531,577.467,501.9531,586.467,497.9531" style="stroke: #000000; stroke-width: 1.0;"/><text fill="#000000" font-family="Verdana" font-size="12" lengthAdjust="spacingAndGlyphs" textLength="66" x="439.25" y="491.0176">dispatcher</text><path d="M282.695,561.2421 C284.047,570.6781 286.058,580.1831 289,588.9531 C292.422,599.1551 297.551,609.3931 303.136,618.8181 " fill="none" style="stroke: #000000; stroke-width: 1.0; stroke-dasharray: 7.0,7.0;"/><polygon fill="none" points="275.696,561.6021,280.678,541.0071,289.627,560.2141,275.696,561.6021" style="stroke: #000000; stroke-width: 1.0;"/><path d="M316.076,606.1661 C310.528,589.2081 304.418,570.5321 298.873,553.5851 " fill="none" style="stroke: #000000; stroke-width: 1.0;"/><polygon fill="#000000" points="294.787,541.0941,293.7842,550.8918,296.3419,545.8462,301.3875,548.4039,294.787,541.0941" style="stroke: #000000; stroke-width: 1.0;"/><line style="stroke: #000000; stroke-width: 1.0;" x1="296.3419" x2="298.8295" y1="545.8462" y2="553.4491"/><polygon fill="none" points="320.19,618.7421,322.1263,611.7958,316.459,607.3369,314.5228,614.2832,320.19,618.7421" style="stroke: #000000; stroke-width: 1.0;"/><text fill="#000000" font-family="Verdana" font-size="12" lengthAdjust="spacingAndGlyphs" textLength="67" x="310" y="584.5176">commands</text><text fill="#000000" font-family="Verdana" font-size="12" lengthAdjust="spacingAndGlyphs" textLength="24" x="269.9173" y="561.4773">1..n</text><path d="M237.399,219.0521 C245.225,240.0361 253.725,262.8231 261.123,282.6601 " fill="none" style="stroke: #000000; stroke-width: 1.0;"/><polygon fill="#000000" points="262.88,287.3711,263.4836,277.5408,261.1332,282.6862,255.9877,280.3357,262.88,287.3711" style="stroke: #000000; stroke-width: 1.0;"/><path d="M281,386.5221 C281,406.6441 281,429.8981 281,449.8621 " fill="none" style="stroke: #000000; stroke-width: 1.0;"/><polygon fill="#000000" points="281,454.8621,285,445.8621,281,449.8621,277,445.8621,281,454.8621" style="stroke: #000000; stroke-width: 1.0;"/><path d="M122.331,229.3631 C109.536,245.0701 98.2682,262.4761 91,280.9531 C72.778,327.2761 65.6218,350.1301 91,392.9531 C112.884,429.8791 153.027,454.5531 190.795,470.5581 " fill="none" style="stroke: #000000; stroke-width: 1.0;"/><polygon fill="#000000" points="202.948,475.4551,196.095,468.3815,198.3103,473.5865,193.1052,475.8018,202.948,475.4551" style="stroke: #000000; stroke-width: 1.0;"/><line style="stroke: #000000; stroke-width: 1.0;" x1="198.3103" x2="190.8905" y1="473.5865" y2="470.5966"/><polygon fill="none" points="130.933,219.2941,123.9946,221.2584,123.1392,228.4186,130.0776,226.4543,130.933,219.2941" style="stroke: #000000; stroke-width: 1.0;"/><text fill="#000000" font-family="Verdana" font-size="12" lengthAdjust="spacingAndGlyphs" textLength="67" x="92" y="341.5176">commands</text><text fill="#000000" font-family="Verdana" font-size="12" lengthAdjust="spacingAndGlyphs" textLength="24" x="170.9768" y="470.1911">1..n</text></g></svg>