<?xml version="1.0" encoding="UTF-8" standalone="yes"?><svg xmlns="http://www.w3.org/2000/svg" xmlns:xlink="http://www.w3.org/1999/xlink" height="337px" style="width:596px;height:337px;" version="1.1" viewBox="0 0 596 337" width="596px"><defs/><g><text fill="#000000" font-family="sans-serif" font-size="18" lengthAdjust="spacingAndGlyphs" textLength="215" x="198.75" y="16.708">Undo / Redo Commands</text><rect fill="#FFFFFF" height="86.4141" style="stroke: #000000; stroke-width: 1.5;" width="156" x="221.25" y="28.9531"/><ellipse cx="264.6" cy="44.9531" fill="#FFFFFF" rx="11" ry="11" style="stroke: #000000; stroke-width: 1.0;"/><path d="M260.5219,40.7188 L260.5219,38.5625 L267.9125,38.5625 L267.9125,40.7188 L265.4438,40.7188 L265.4438,48.7969 L267.9125,48.7969 L267.9125,50.9531 L260.5219,50.9531 L260.5219,48.7969 L262.9906,48.7969 L262.9906,40.7188 L260.5219,40.7188 Z "/><text fill="#000000" font-family="Verdana" font-size="12" font-style="italic" lengthAdjust="spacingAndGlyphs" textLength="61" x="284.9" y="49.7256">Command</text><line style="stroke: #000000; stroke-width: 1.5;" x1="222.25" x2="376.25" y1="60.9531" y2="60.9531"/><rect fill="none" height="6" style="stroke: #C82930; stroke-width: 1.0;" width="6" x="229.25" y="69.8555"/><text fill="#000000" font-family="sans-serif" font-size="11" lengthAdjust="spacingAndGlyphs" textLength="33" x="241.25" y="75.1636">string</text><text fill="#000000" font-family="sans-serif" font-size="11" font-weight="bold" lengthAdjust="spacingAndGlyphs" textLength="35" x="278.25" y="75.1636">name</text><rect fill="none" height="6" style="stroke: #C82930; stroke-width: 1.0;" width="6" x="229.25" y="82.6602"/><text fill="#000000" font-family="sans-serif" font-size="11" lengthAdjust="spacingAndGlyphs" textLength="33" x="241.25" y="87.9683">string</text><text fill="#000000" font-family="sans-serif" font-size="11" font-weight="bold" lengthAdjust="spacingAndGlyphs" textLength="72" x="278.25" y="87.9683">description</text><line style="stroke: #000000; stroke-width: 1.5;" x1="222.25" x2="376.25" y1="94.5625" y2="94.5625"/><ellipse cx="232.25" cy="106.4648" fill="#84BE84" rx="3" ry="3" style="stroke: #038048; stroke-width: 1.0;"/><text fill="#000000" font-family="sans-serif" font-size="11" font-style="italic" font-weight="bold" lengthAdjust="spacingAndGlyphs" textLength="48" x="241.25" y="108.7729">execute</text><text fill="#000000" font-family="sans-serif" font-size="11" font-style="italic" lengthAdjust="spacingAndGlyphs" textLength="82" x="289.25" y="108.7729">(Input, Output)</text><rect fill="#FFFFFF" height="48" style="stroke: #000000; stroke-width: 1.5;" width="128" x="117.25" y="174.9531"/><ellipse cx="132.25" cy="190.9531" fill="#FFFFFF" rx="11" ry="11" style="stroke: #000000; stroke-width: 1.0;"/><path d="M135.2188,196.5938 Q134.6406,196.8906 134,197.0391 Q133.3594,197.1875 132.6563,197.1875 Q130.1563,197.1875 128.8359,195.5391 Q127.5156,193.8906 127.5156,190.7656 Q127.5156,187.6406 128.8359,185.9844 Q130.1563,184.3281 132.6563,184.3281 Q133.3594,184.3281 134.0078,184.4844 Q134.6563,184.6406 135.2188,184.9375 L135.2188,187.6563 Q134.5938,187.0781 134,186.8047 Q133.4063,186.5313 132.7813,186.5313 Q131.4375,186.5313 130.75,187.6016 Q130.0625,188.6719 130.0625,190.7656 Q130.0625,192.8594 130.75,193.9297 Q131.4375,195 132.7813,195 Q133.4063,195 134,194.7266 Q134.5938,194.4531 135.2188,193.875 L135.2188,196.5938 Z "/><text fill="#000000" font-family="Verdana" font-size="12" lengthAdjust="spacingAndGlyphs" textLength="96" x="146.25" y="195.7256">UndoCommand</text><line style="stroke: #000000; stroke-width: 1.5;" x1="118.25" x2="244.25" y1="206.9531" y2="206.9531"/><line style="stroke: #000000; stroke-width: 1.5;" x1="118.25" x2="244.25" y1="214.9531" y2="214.9531"/><polygon fill="#FFFFE0" points="6,282.9531,6,336.7051,283,336.7051,283,292.9531,273,282.9531,6,282.9531" style="stroke: #000000; stroke-width: 1.0;"/><polygon fill="#FFFFE0" points="6,282.9531,6,336.7051,283,336.7051,283,292.9531,273,282.9531,157.124,282.9531,173.403,223.0691,149.124,282.9531,6,282.9531" style="stroke: #000000; stroke-width: 1.0;"/><line style="stroke: #000000; stroke-width: 1.0;" x1="273" x2="273" y1="282.9531" y2="292.9531"/><line style="stroke: #000000; stroke-width: 1.0;" x1="283" x2="273" y1="292.9531" y2="292.9531"/><text fill="#000000" font-family="Verdana" font-size="12" lengthAdjust="spacingAndGlyphs" textLength="256" x="12" y="300.0176">execute(Input $input, Output $output) {</text><text fill="#000000" font-family="Verdana" font-size="12" lengthAdjust="spacingAndGlyphs" textLength="220" x="28" y="314.6016">$this-&gt;dispatcher-&gt;trigger('undo');</text><text fill="#000000" font-family="Verdana" font-size="12" lengthAdjust="spacingAndGlyphs" textLength="8" x="12" y="329.1855">}</text><rect fill="#FFFFFF" height="48" style="stroke: #000000; stroke-width: 1.5;" width="127" x="355" y="174.9531"/><ellipse cx="370" cy="190.9531" fill="#FFFFFF" rx="11" ry="11" style="stroke: #000000; stroke-width: 1.0;"/><path d="M372.9688,196.5938 Q372.3906,196.8906 371.75,197.0391 Q371.1094,197.1875 370.4063,197.1875 Q367.9063,197.1875 366.5859,195.5391 Q365.2656,193.8906 365.2656,190.7656 Q365.2656,187.6406 366.5859,185.9844 Q367.9063,184.3281 370.4063,184.3281 Q371.1094,184.3281 371.7578,184.4844 Q372.4063,184.6406 372.9688,184.9375 L372.9688,187.6563 Q372.3438,187.0781 371.75,186.8047 Q371.1563,186.5313 370.5313,186.5313 Q369.1875,186.5313 368.5,187.6016 Q367.8125,188.6719 367.8125,190.7656 Q367.8125,192.8594 368.5,193.9297 Q369.1875,195 370.5313,195 Q371.1563,195 371.75,194.7266 Q372.3438,194.4531 372.9688,193.875 L372.9688,196.5938 Z "/><text fill="#000000" font-family="Verdana" font-size="12" lengthAdjust="spacingAndGlyphs" textLength="95" x="384" y="195.7256">RedoCommand</text><line style="stroke: #000000; stroke-width: 1.5;" x1="356" x2="481" y1="206.9531" y2="206.9531"/><line style="stroke: #000000; stroke-width: 1.5;" x1="356" x2="481" y1="214.9531" y2="214.9531"/><polygon fill="#FFFFE0" points="318,282.9531,318,336.7051,595,336.7051,595,292.9531,585,282.9531,318,282.9531" style="stroke: #000000; stroke-width: 1.0;"/><polygon fill="#FFFFE0" points="318,282.9531,318,336.7051,595,336.7051,595,292.9531,585,282.9531,451.136,282.9531,426.309,223.0691,443.136,282.9531,318,282.9531" style="stroke: #000000; stroke-width: 1.0;"/><line style="stroke: #000000; stroke-width: 1.0;" x1="585" x2="585" y1="282.9531" y2="292.9531"/><line style="stroke: #000000; stroke-width: 1.0;" x1="595" x2="585" y1="292.9531" y2="292.9531"/><text fill="#000000" font-family="Verdana" font-size="12" lengthAdjust="spacingAndGlyphs" textLength="256" x="324" y="300.0176">execute(Input $input, Output $output) {</text><text fill="#000000" font-family="Verdana" font-size="12" lengthAdjust="spacingAndGlyphs" textLength="217" x="340" y="314.6016">$this-&gt;dispatcher-&gt;trigger('redo');</text><text fill="#000000" font-family="Verdana" font-size="12" lengthAdjust="spacingAndGlyphs" textLength="8" x="324" y="329.1855">}</text><path d="M245.318,130.0841 C230.467,145.8161 215.185,162.0051 203.272,174.6251 " fill="none" style="stroke: #000000; stroke-width: 1.0; stroke-dasharray: 7.0,7.0;"/><polygon fill="none" points="240.481,125.0111,259.301,115.2721,250.662,134.6211,240.481,125.0111" style="stroke: #000000; stroke-width: 1.0;"/><path d="M353.639,130.0841 C368.616,145.8161 384.028,162.0051 396.041,174.6251 " fill="none" style="stroke: #000000; stroke-width: 1.0; stroke-dasharray: 7.0,7.0;"/><polygon fill="none" points="348.258,134.5841,339.538,115.2721,358.398,124.9311,348.258,134.5841" style="stroke: #000000; stroke-width: 1.0;"/></g></svg>