<?xml version="1.0" encoding="UTF-8" standalone="yes"?><svg xmlns="http://www.w3.org/2000/svg" xmlns:xlink="http://www.w3.org/1999/xlink" height="879px" style="width:913px;height:879px;" version="1.1" viewBox="0 0 913 879" width="913px"><defs><filter height="300%" id="f1" width="300%" x="-1" y="-1"><feGaussianBlur result="blurOut" stdDeviation="2.0"/><feColorMatrix in="blurOut" result="blurOut2" type="matrix" values="0 0 0 0 0 0 0 0 0 0 0 0 0 0 0 0 0 0 .4 0"/><feOffset dx="4.0" dy="4.0" in="blurOut2" result="blurOut3"/><feBlend in="SourceGraphic" in2="blurOut3" mode="normal"/></filter></defs><g><text fill="#000000" font-family="sans-serif" font-size="18" lengthAdjust="spacingAndGlyphs" textLength="179" x="380.5" y="16.708">Command Structure</text><polygon fill="#FFFFFF" filter="url(#f1)" points="22,44.9531,162,44.9531,169,67.25,906,67.25,906,872.9531,22,872.9531,22,44.9531" style="stroke: #000000; stroke-width: 2.0;"/><line style="stroke: #000000; stroke-width: 2.0;" x1="22" x2="169" y1="67.25" y2="67.25"/><text fill="#000000" font-family="sans-serif" font-size="14" font-weight="bold" lengthAdjust="spacingAndGlyphs" textLength="134" x="25" y="60.9482">Joomla.Command</text><rect fill="#FEFECE" filter="url(#f1)" height="137.6328" style="stroke: #A80036; stroke-width: 1.5;" width="209" x="109.75" y="80.9531"/><ellipse cx="179.5" cy="96.9531" fill="#B4A7E5" rx="11" ry="11" style="stroke: #A80036; stroke-width: 1.0;"/><path d="M175.4219,92.7188 L175.4219,90.5625 L182.8125,90.5625 L182.8125,92.7188 L180.3438,92.7188 L180.3438,100.7969 L182.8125,100.7969 L182.8125,102.9531 L175.4219,102.9531 L175.4219,100.7969 L177.8906,100.7969 L177.8906,92.7188 L175.4219,92.7188 Z "/><text fill="#000000" font-family="sans-serif" font-size="12" font-style="italic" lengthAdjust="spacingAndGlyphs" textLength="61" x="200" y="101.1074">Controller</text><line style="stroke: #A80036; stroke-width: 1.5;" x1="110.75" x2="317.75" y1="112.9531" y2="112.9531"/><rect fill="none" height="6" style="stroke: #C82930; stroke-width: 1.0;" width="6" x="117.75" y="121.8555"/><text fill="#000000" font-family="sans-serif" font-size="11" lengthAdjust="spacingAndGlyphs" textLength="116" x="129.75" y="127.1636">CommandProcessor</text><text fill="#000000" font-family="sans-serif" font-size="11" font-weight="bold" lengthAdjust="spacingAndGlyphs" textLength="63" x="249.75" y="127.1636">processor</text><rect fill="none" height="6" style="stroke: #C82930; stroke-width: 1.0;" width="6" x="117.75" y="134.6602"/><text fill="#000000" font-family="sans-serif" font-size="11" lengthAdjust="spacingAndGlyphs" textLength="61" x="129.75" y="139.9683">Dispatcher</text><text fill="#000000" font-family="sans-serif" font-size="11" font-weight="bold" lengthAdjust="spacingAndGlyphs" textLength="68" x="194.75" y="139.9683">dispatcher</text><rect fill="none" height="6" style="stroke: #C82930; stroke-width: 1.0;" width="6" x="117.75" y="147.4648"/><text fill="#000000" font-family="sans-serif" font-size="11" lengthAdjust="spacingAndGlyphs" textLength="28" x="129.75" y="152.7729">Input</text><text fill="#000000" font-family="sans-serif" font-size="11" font-weight="bold" lengthAdjust="spacingAndGlyphs" textLength="33" x="161.75" y="152.7729">input</text><rect fill="none" height="6" style="stroke: #C82930; stroke-width: 1.0;" width="6" x="117.75" y="160.2695"/><text fill="#000000" font-family="sans-serif" font-size="11" lengthAdjust="spacingAndGlyphs" textLength="38" x="129.75" y="165.5776">Output</text><text fill="#000000" font-family="sans-serif" font-size="11" font-weight="bold" lengthAdjust="spacingAndGlyphs" textLength="42" x="171.75" y="165.5776">output</text><line style="stroke: #A80036; stroke-width: 1.5;" x1="110.75" x2="317.75" y1="172.1719" y2="172.1719"/><polygon fill="#FFFF44" points="120.75,179.0742,124.75,183.0742,120.75,187.0742,116.75,183.0742" style="stroke: #B38D22; stroke-width: 1.0;"/><text fill="#000000" font-family="sans-serif" font-size="11" font-style="italic" font-weight="bold" lengthAdjust="spacingAndGlyphs" textLength="23" x="129.75" y="186.3823">add</text><text fill="#000000" font-family="sans-serif" font-size="11" font-style="italic" lengthAdjust="spacingAndGlyphs" textLength="66" x="152.75" y="186.3823">(Command)</text><polygon fill="#FFFF44" points="120.75,191.8789,124.75,195.8789,120.75,199.8789,116.75,195.8789" style="stroke: #B38D22; stroke-width: 1.0;"/><text fill="#000000" font-family="sans-serif" font-size="11" font-style="italic" font-weight="bold" lengthAdjust="spacingAndGlyphs" textLength="93" x="129.75" y="199.187">addCommands</text><text fill="#000000" font-family="sans-serif" font-size="11" font-style="italic" lengthAdjust="spacingAndGlyphs" textLength="74" x="222.75" y="199.187">(Command[])</text><ellipse cx="120.75" cy="209.6836" fill="#84BE84" rx="3" ry="3" style="stroke: #038048; stroke-width: 1.0;"/><text fill="#000000" font-family="sans-serif" font-size="11" font-style="italic" font-weight="bold" lengthAdjust="spacingAndGlyphs" textLength="21" x="129.75" y="211.9917">run</text><text fill="#000000" font-family="sans-serif" font-size="11" font-style="italic" lengthAdjust="spacingAndGlyphs" textLength="8" x="150.75" y="211.9917">()</text><polygon fill="#FBFB77" filter="url(#f1)" points="490.75,99.4531,490.75,200.25,787.75,200.25,787.75,109.4531,777.75,99.4531,490.75,99.4531" style="stroke: #A80036; stroke-width: 1.0;"/><polygon fill="#FBFB77" points="490.75,99.4531,490.75,145.9531,318.59,149.9531,490.75,153.9531,490.75,200.25,787.75,200.25,787.75,109.4531,777.75,99.4531,490.75,99.4531" style="stroke: #A80036; stroke-width: 1.0;"/><line style="stroke: #A80036; stroke-width: 1.0;" x1="777.75" x2="777.75" y1="99.4531" y2="109.4531"/><line style="stroke: #A80036; stroke-width: 1.0;" x1="787.75" x2="777.75" y1="109.4531" y2="109.4531"/><text fill="#000000" font-family="sans-serif" font-size="13" lengthAdjust="spacingAndGlyphs" textLength="43" x="496.75" y="116.52">run() {</text><text fill="#000000" font-family="sans-serif" font-size="13" lengthAdjust="spacingAndGlyphs" textLength="260" x="512.75" y="131.6528">// Determine command name from input</text><text fill="#000000" font-family="sans-serif" font-size="13" lengthAdjust="spacingAndGlyphs" textLength="249" x="512.75" y="146.7856">$this-&gt;processor-&gt;executeCommand(</text><text fill="#000000" font-family="sans-serif" font-size="13" lengthAdjust="spacingAndGlyphs" textLength="241" x="528.75" y="161.9185">$this-&gt;commands[$commandName]</text><text fill="#000000" font-family="sans-serif" font-size="13" lengthAdjust="spacingAndGlyphs" textLength="9" x="512.75" y="177.0513">);</text><text fill="#000000" font-family="sans-serif" font-size="13" lengthAdjust="spacingAndGlyphs" textLength="8" x="496.75" y="192.1841">}</text><rect fill="#FEFECE" filter="url(#f1)" height="86.4141" style="stroke: #A80036; stroke-width: 1.5;" width="156" x="208" y="458.9531"/><ellipse cx="250.9" cy="474.9531" fill="#B4A7E5" rx="11" ry="11" style="stroke: #A80036; stroke-width: 1.0;"/><path d="M246.8219,470.7188 L246.8219,468.5625 L254.2125,468.5625 L254.2125,470.7188 L251.7438,470.7188 L251.7438,478.7969 L254.2125,478.7969 L254.2125,480.9531 L246.8219,480.9531 L246.8219,478.7969 L249.2906,478.7969 L249.2906,470.7188 L246.8219,470.7188 Z "/><text fill="#000000" font-family="sans-serif" font-size="12" font-style="italic" lengthAdjust="spacingAndGlyphs" textLength="62" x="271.1" y="479.1074">Command</text><line style="stroke: #A80036; stroke-width: 1.5;" x1="209" x2="363" y1="490.9531" y2="490.9531"/><rect fill="none" height="6" style="stroke: #C82930; stroke-width: 1.0;" width="6" x="216" y="499.8555"/><text fill="#000000" font-family="sans-serif" font-size="11" lengthAdjust="spacingAndGlyphs" textLength="33" x="228" y="505.1636">string</text><text fill="#000000" font-family="sans-serif" font-size="11" font-weight="bold" lengthAdjust="spacingAndGlyphs" textLength="35" x="265" y="505.1636">name</text><rect fill="none" height="6" style="stroke: #C82930; stroke-width: 1.0;" width="6" x="216" y="512.6602"/><text fill="#000000" font-family="sans-serif" font-size="11" lengthAdjust="spacingAndGlyphs" textLength="33" x="228" y="517.9683">string</text><text fill="#000000" font-family="sans-serif" font-size="11" font-weight="bold" lengthAdjust="spacingAndGlyphs" textLength="72" x="265" y="517.9683">description</text><line style="stroke: #A80036; stroke-width: 1.5;" x1="209" x2="363" y1="524.5625" y2="524.5625"/><ellipse cx="219" cy="536.4648" fill="#84BE84" rx="3" ry="3" style="stroke: #038048; stroke-width: 1.0;"/><text fill="#000000" font-family="sans-serif" font-size="11" font-style="italic" font-weight="bold" lengthAdjust="spacingAndGlyphs" textLength="48" x="228" y="538.7729">execute</text><text fill="#000000" font-family="sans-serif" font-size="11" font-style="italic" lengthAdjust="spacingAndGlyphs" textLength="82" x="276" y="538.7729">(Input, Output)</text><rect fill="#FEFECE" filter="url(#f1)" height="73.6094" style="stroke: #A80036; stroke-width: 1.5;" width="171" x="38.75" y="628.9531"/><ellipse cx="53.75" cy="644.9531" fill="#B4A7E5" rx="11" ry="11" style="stroke: #A80036; stroke-width: 1.0;"/><path d="M49.6719,640.7188 L49.6719,638.5625 L57.0625,638.5625 L57.0625,640.7188 L54.5938,640.7188 L54.5938,648.7969 L57.0625,648.7969 L57.0625,650.9531 L49.6719,650.9531 L49.6719,648.7969 L52.1406,648.7969 L52.1406,640.7188 L49.6719,640.7188 Z "/><text fill="#000000" font-family="sans-serif" font-size="12" font-style="italic" lengthAdjust="spacingAndGlyphs" textLength="139" x="67.75" y="649.1074">RecoverableCommand</text><line style="stroke: #A80036; stroke-width: 1.5;" x1="39.75" x2="208.75" y1="660.9531" y2="660.9531"/><line style="stroke: #A80036; stroke-width: 1.5;" x1="39.75" x2="208.75" y1="668.9531" y2="668.9531"/><ellipse cx="49.75" cy="680.8555" fill="#84BE84" rx="3" ry="3" style="stroke: #038048; stroke-width: 1.0;"/><text fill="#000000" font-family="sans-serif" font-size="11" font-style="italic" font-weight="bold" lengthAdjust="spacingAndGlyphs" textLength="32" x="58.75" y="683.1636">undo</text><text fill="#000000" font-family="sans-serif" font-size="11" font-style="italic" lengthAdjust="spacingAndGlyphs" textLength="8" x="90.75" y="683.1636">()</text><ellipse cx="49.75" cy="693.6602" fill="#84BE84" rx="3" ry="3" style="stroke: #038048; stroke-width: 1.0;"/><text fill="#000000" font-family="sans-serif" font-size="11" font-style="italic" font-weight="bold" lengthAdjust="spacingAndGlyphs" textLength="28" x="58.75" y="695.9683">redo</text><text fill="#000000" font-family="sans-serif" font-size="11" font-style="italic" lengthAdjust="spacingAndGlyphs" textLength="8" x="86.75" y="695.9683">()</text><rect fill="#FEFECE" filter="url(#f1)" height="60.8047" style="stroke: #A80036; stroke-width: 1.5;" width="163" x="597.75" y="471.4531"/><ellipse cx="641.55" cy="487.4531" fill="#B4A7E5" rx="11" ry="11" style="stroke: #A80036; stroke-width: 1.0;"/><path d="M637.4719,483.2188 L637.4719,481.0625 L644.8625,481.0625 L644.8625,483.2188 L642.3938,483.2188 L642.3938,491.2969 L644.8625,491.2969 L644.8625,493.4531 L637.4719,493.4531 L637.4719,491.2969 L639.9406,491.2969 L639.9406,483.2188 L637.4719,483.2188 Z "/><text fill="#000000" font-family="sans-serif" font-size="12" font-style="italic" lengthAdjust="spacingAndGlyphs" textLength="67" x="661.95" y="491.6074">Dispatcher</text><line style="stroke: #A80036; stroke-width: 1.5;" x1="598.75" x2="759.75" y1="503.4531" y2="503.4531"/><line style="stroke: #A80036; stroke-width: 1.5;" x1="598.75" x2="759.75" y1="511.4531" y2="511.4531"/><ellipse cx="608.75" cy="523.3555" fill="#84BE84" rx="3" ry="3" style="stroke: #038048; stroke-width: 1.0;"/><text fill="#000000" font-family="sans-serif" font-size="11" font-style="italic" font-weight="bold" lengthAdjust="spacingAndGlyphs" textLength="42" x="617.75" y="525.6636">trigger</text><text fill="#000000" font-family="sans-serif" font-size="11" font-style="italic" lengthAdjust="spacingAndGlyphs" textLength="95" x="659.75" y="525.6636">(string, mixed...)</text><rect fill="#FEFECE" filter="url(#f1)" height="86.4141" style="stroke: #A80036; stroke-width: 1.5;" width="194" x="245.5" y="622.9531"/><ellipse cx="288.4" cy="638.9531" fill="#ADD1B2" rx="11" ry="11" style="stroke: #A80036; stroke-width: 1.0;"/><path d="M291.3688,644.5938 Q290.7906,644.8906 290.15,645.0391 Q289.5094,645.1875 288.8063,645.1875 Q286.3063,645.1875 284.9859,643.5391 Q283.6656,641.8906 283.6656,638.7656 Q283.6656,635.6406 284.9859,633.9844 Q286.3063,632.3281 288.8063,632.3281 Q289.5094,632.3281 290.1578,632.4844 Q290.8063,632.6406 291.3688,632.9375 L291.3688,635.6563 Q290.7438,635.0781 290.15,634.8047 Q289.5563,634.5313 288.9313,634.5313 Q287.5875,634.5313 286.9,635.6016 Q286.2125,636.6719 286.2125,638.7656 Q286.2125,640.8594 286.9,641.9297 Q287.5875,643 288.9313,643 Q289.5563,643 290.15,642.7266 Q290.7438,642.4531 291.3688,641.875 L291.3688,644.5938 Z "/><text fill="#000000" font-family="sans-serif" font-size="12" lengthAdjust="spacingAndGlyphs" textLength="100" x="308.6" y="643.1074">MacroCommand</text><line style="stroke: #A80036; stroke-width: 1.5;" x1="246.5" x2="438.5" y1="654.9531" y2="654.9531"/><line style="stroke: #A80036; stroke-width: 1.5;" x1="246.5" x2="438.5" y1="662.9531" y2="662.9531"/><ellipse cx="256.5" cy="674.8555" fill="#84BE84" rx="3" ry="3" style="stroke: #038048; stroke-width: 1.0;"/><text fill="#000000" font-family="sans-serif" font-size="11" font-weight="bold" lengthAdjust="spacingAndGlyphs" textLength="24" x="265.5" y="677.1636">add</text><text fill="#000000" font-family="sans-serif" font-size="11" lengthAdjust="spacingAndGlyphs" textLength="66" x="289.5" y="677.1636">(Command)</text><ellipse cx="256.5" cy="687.6602" fill="#84BE84" rx="3" ry="3" style="stroke: #038048; stroke-width: 1.0;"/><text fill="#000000" font-family="sans-serif" font-size="11" font-weight="bold" lengthAdjust="spacingAndGlyphs" textLength="94" x="265.5" y="689.9683">addCommands</text><text fill="#000000" font-family="sans-serif" font-size="11" lengthAdjust="spacingAndGlyphs" textLength="74" x="359.5" y="689.9683">(Command[])</text><ellipse cx="256.5" cy="700.4648" fill="#84BE84" rx="3" ry="3" style="stroke: #038048; stroke-width: 1.0;"/><text fill="#000000" font-family="sans-serif" font-size="11" font-weight="bold" lengthAdjust="spacingAndGlyphs" textLength="51" x="265.5" y="702.7729">execute</text><text fill="#000000" font-family="sans-serif" font-size="11" lengthAdjust="spacingAndGlyphs" textLength="82" x="316.5" y="702.7729">(Input, Output)</text><polygon fill="#FBFB77" filter="url(#f1)" points="179,770.9531,179,856.6172,505,856.6172,505,780.9531,495,770.9531,179,770.9531" style="stroke: #A80036; stroke-width: 1.0;"/><polygon fill="#FBFB77" points="179,770.9531,179,856.6172,505,856.6172,505,780.9531,495,770.9531,346,770.9531,342,709.1821,338,770.9531,179,770.9531" style="stroke: #A80036; stroke-width: 1.0;"/><line style="stroke: #A80036; stroke-width: 1.0;" x1="495" x2="495" y1="770.9531" y2="780.9531"/><line style="stroke: #A80036; stroke-width: 1.0;" x1="505" x2="495" y1="780.9531" y2="780.9531"/><text fill="#000000" font-family="sans-serif" font-size="13" lengthAdjust="spacingAndGlyphs" textLength="255" x="185" y="788.02">execute(Input $input, Output $output) {</text><text fill="#000000" font-family="sans-serif" font-size="13" lengthAdjust="spacingAndGlyphs" textLength="289" x="201" y="803.1528">foreach ($this-&gt;commands as $command) {</text><text fill="#000000" font-family="sans-serif" font-size="13" lengthAdjust="spacingAndGlyphs" textLength="252" x="217" y="818.2856">$command-&gt;execute($input, $output);</text><text fill="#000000" font-family="sans-serif" font-size="13" lengthAdjust="spacingAndGlyphs" textLength="8" x="201" y="833.4185">}</text><text fill="#000000" font-family="sans-serif" font-size="13" lengthAdjust="spacingAndGlyphs" textLength="8" x="185" y="848.5513">}</text><rect fill="#FEFECE" filter="url(#f1)" height="99.2188" style="stroke: #A80036; stroke-width: 1.5;" width="206" x="183" y="289.4531"/><ellipse cx="220.05" cy="305.4531" fill="#ADD1B2" rx="11" ry="11" style="stroke: #A80036; stroke-width: 1.0;"/><path d="M223.0188,311.0938 Q222.4406,311.3906 221.8,311.5391 Q221.1594,311.6875 220.4563,311.6875 Q217.9563,311.6875 216.6359,310.0391 Q215.3156,308.3906 215.3156,305.2656 Q215.3156,302.1406 216.6359,300.4844 Q217.9563,298.8281 220.4563,298.8281 Q221.1594,298.8281 221.8078,298.9844 Q222.4563,299.1406 223.0188,299.4375 L223.0188,302.1563 Q222.3938,301.5781 221.8,301.3047 Q221.2063,301.0313 220.5813,301.0313 Q219.2375,301.0313 218.55,302.1016 Q217.8625,303.1719 217.8625,305.2656 Q217.8625,307.3594 218.55,308.4297 Q219.2375,309.5 220.5813,309.5 Q221.2063,309.5 221.8,309.2266 Q222.3938,308.9531 223.0188,308.375 L223.0188,311.0938 Z "/><text fill="#000000" font-family="sans-serif" font-size="12" lengthAdjust="spacingAndGlyphs" textLength="125" x="238.95" y="309.6074">CommandProcessor</text><line style="stroke: #A80036; stroke-width: 1.5;" x1="184" x2="388" y1="321.4531" y2="321.4531"/><rect fill="none" height="6" style="stroke: #C82930; stroke-width: 1.0;" width="6" x="191" y="330.3555"/><text fill="#000000" font-family="sans-serif" font-size="11" lengthAdjust="spacingAndGlyphs" textLength="61" x="203" y="335.6636">Dispatcher</text><text fill="#000000" font-family="sans-serif" font-size="11" font-weight="bold" lengthAdjust="spacingAndGlyphs" textLength="68" x="268" y="335.6636">dispatcher</text><rect fill="none" height="6" style="stroke: #C82930; stroke-width: 1.0;" width="6" x="191" y="343.1602"/><text fill="#000000" font-family="sans-serif" font-size="11" lengthAdjust="spacingAndGlyphs" textLength="28" x="203" y="348.4683">Input</text><text fill="#000000" font-family="sans-serif" font-size="11" font-weight="bold" lengthAdjust="spacingAndGlyphs" textLength="33" x="235" y="348.4683">input</text><rect fill="none" height="6" style="stroke: #C82930; stroke-width: 1.0;" width="6" x="191" y="355.9648"/><text fill="#000000" font-family="sans-serif" font-size="11" lengthAdjust="spacingAndGlyphs" textLength="38" x="203" y="361.2729">Output</text><text fill="#000000" font-family="sans-serif" font-size="11" font-weight="bold" lengthAdjust="spacingAndGlyphs" textLength="42" x="245" y="361.2729">output</text><line style="stroke: #A80036; stroke-width: 1.5;" x1="184" x2="388" y1="367.8672" y2="367.8672"/><ellipse cx="194" cy="379.7695" fill="#84BE84" rx="3" ry="3" style="stroke: #038048; stroke-width: 1.0;"/><text fill="#000000" font-family="sans-serif" font-size="11" font-weight="bold" lengthAdjust="spacingAndGlyphs" textLength="114" x="203" y="382.0776">executeCommand</text><text fill="#000000" font-family="sans-serif" font-size="11" lengthAdjust="spacingAndGlyphs" textLength="66" x="317" y="382.0776">(Command)</text><polygon fill="#FBFB77" filter="url(#f1)" points="458.75,280.9531,458.75,396.8828,889.75,396.8828,889.75,290.9531,879.75,280.9531,458.75,280.9531" style="stroke: #A80036; stroke-width: 1.0;"/><polygon fill="#FBFB77" points="458.75,280.9531,458.75,334.9531,389.062,338.9531,458.75,342.9531,458.75,396.8828,889.75,396.8828,889.75,290.9531,879.75,280.9531,458.75,280.9531" style="stroke: #A80036; stroke-width: 1.0;"/><line style="stroke: #A80036; stroke-width: 1.0;" x1="879.75" x2="879.75" y1="280.9531" y2="290.9531"/><line style="stroke: #A80036; stroke-width: 1.0;" x1="889.75" x2="879.75" y1="290.9531" y2="290.9531"/><text fill="#000000" font-family="sans-serif" font-size="13" lengthAdjust="spacingAndGlyphs" textLength="284" x="464.75" y="298.02">executeCommand(Command $command) {</text><text fill="#000000" font-family="sans-serif" font-size="13" lengthAdjust="spacingAndGlyphs" textLength="394" x="480.75" y="313.1528">if ($this-&gt;dispatcher-&gt;trigger('beforeExecute', $command)) {</text><text fill="#000000" font-family="sans-serif" font-size="13" lengthAdjust="spacingAndGlyphs" textLength="306" x="496.75" y="328.2856">$command-&gt;setDispatcher($this-&gt;dispatcher);</text><text fill="#000000" font-family="sans-serif" font-size="13" lengthAdjust="spacingAndGlyphs" textLength="330" x="496.75" y="343.4185">$command-&gt;execute($this-&gt;input, $this-&gt;output);</text><text fill="#000000" font-family="sans-serif" font-size="13" lengthAdjust="spacingAndGlyphs" textLength="354" x="496.75" y="358.5513">$this-&gt;dispatcher-&gt;trigger('afterExecute', $command);</text><text fill="#000000" font-family="sans-serif" font-size="13" lengthAdjust="spacingAndGlyphs" textLength="8" x="480.75" y="373.6841">}</text><text fill="#000000" font-family="sans-serif" font-size="13" lengthAdjust="spacingAndGlyphs" textLength="8" x="464.75" y="388.8169">}</text><path d="M229.6,559.3531 C206.558,582.3951 180.583,608.3701 160.16,628.7931 " fill="none" style="stroke: #A80036; stroke-width: 1.0;"/><polygon fill="none" points="224.767,554.2861,243.859,545.0941,234.667,564.1861,224.767,554.2861" style="stroke: #A80036; stroke-width: 1.0;"/><path d="M364.114,501.9531 C430,501.9531 524.196,501.9531 592.379,501.9531 " fill="none" style="stroke: #A80036; stroke-width: 1.0;"/><polygon fill="#A80036" points="597.654,501.9531,588.654,497.9531,592.654,501.9531,588.654,505.9531,597.654,501.9531" style="stroke: #A80036; stroke-width: 1.0;"/><text fill="#000000" font-family="sans-serif" font-size="13" lengthAdjust="spacingAndGlyphs" textLength="67" x="446.75" y="494.02">dispatcher</text><path d="M288.315,565.3081 C289.783,574.7351 291.921,584.2201 295,592.9531 C298.624,603.2301 304.003,613.5001 309.841,622.9321 " fill="none" style="stroke: #A80036; stroke-width: 1.0; stroke-dasharray: 7.0,7.0;"/><polygon fill="none" points="281.319,565.7271,286.07,545.0761,295.233,564.1821,281.319,565.7271" style="stroke: #A80036; stroke-width: 1.0;"/><path d="M323.061,610.1661 C317.199,593.2081 310.744,574.5321 304.885,557.5851 " fill="none" style="stroke: #A80036; stroke-width: 1.0;"/><polygon fill="#A80036" points="300.567,545.0941,299.7267,554.9071,302.2005,549.8198,307.2877,552.2935,300.567,545.0941" style="stroke: #A80036; stroke-width: 1.0;"/><line style="stroke: #A80036; stroke-width: 1.0;" x1="302.2005" x2="304.8145" y1="549.8198" y2="557.3806"/><polygon fill="none" points="327.409,622.7421,329.2294,615.7646,323.4887,611.4006,321.6683,618.3781,327.409,622.7421" style="stroke: #A80036; stroke-width: 1.0;"/><text fill="#000000" font-family="sans-serif" font-size="13" lengthAdjust="spacingAndGlyphs" textLength="72" x="316" y="588.02">commands</text><text fill="#000000" font-family="sans-serif" font-size="13" lengthAdjust="spacingAndGlyphs" textLength="24" x="275.8265" y="565.5251">1..n</text><path d="M240.197,218.9931 C248.498,240.5531 257.552,264.0671 265.402,284.4541 " fill="none" style="stroke: #A80036; stroke-width: 1.0;"/><polygon fill="#A80036" points="267.265,289.2951,267.7627,279.4589,265.4678,284.6293,260.2974,282.3344,267.265,289.2951" style="stroke: #A80036; stroke-width: 1.0;"/><path d="M286,388.6951 C286,409.3431 286,433.3101 286,453.7841 " fill="none" style="stroke: #A80036; stroke-width: 1.0;"/><polygon fill="#A80036" points="286,458.9101,290,449.9101,286,453.9101,282,449.9101,286,458.9101" style="stroke: #A80036; stroke-width: 1.0;"/><path d="M122.869,229.1751 C109.86,244.9021 98.4003,262.3641 91,280.9531 C71.9312,328.8521 64.4749,352.7441 91,396.9531 C113.939,435.1841 156.23,460.1361 195.58,475.9861 " fill="none" style="stroke: #A80036; stroke-width: 1.0;"/><polygon fill="#A80036" points="207.948,480.7181,200.9715,473.7662,203.2781,478.9315,198.1129,481.2381,207.948,480.7181" style="stroke: #A80036; stroke-width: 1.0;"/><line style="stroke: #A80036; stroke-width: 1.0;" x1="203.2781" x2="195.806" y1="478.9315" y2="476.0731"/><polygon fill="none" points="131.614,219.0961,124.6605,221.0063,123.7493,228.1596,130.7028,226.2494,131.614,219.0961" style="stroke: #A80036; stroke-width: 1.0;"/><text fill="#000000" font-family="sans-serif" font-size="13" lengthAdjust="spacingAndGlyphs" textLength="72" x="92" y="343.02">commands</text><text fill="#000000" font-family="sans-serif" font-size="13" lengthAdjust="spacingAndGlyphs" textLength="24" x="175.9768" y="474.4977">1..n</text></g></svg>