<?xml version="1.0" encoding="UTF-8" standalone="yes"?><svg xmlns="http://www.w3.org/2000/svg" xmlns:xlink="http://www.w3.org/1999/xlink" height="433px" style="width:558px;height:433px;" version="1.1" viewBox="0 0 558 433" width="558px"><defs/><g><text fill="#000000" font-family="sans-serif" font-size="18" lengthAdjust="spacingAndGlyphs" textLength="160" x="215.5" y="16.708">Content Structure</text><polygon fill="#FFFFFF" points="22,44.9531,147,44.9531,154,67.25,388,67.25,388,432.9531,22,432.9531,22,44.9531" style="stroke: #000000; stroke-width: 2.0;"/><line style="stroke: #000000; stroke-width: 2.0;" x1="22" x2="154" y1="67.25" y2="67.25"/><text fill="#000000" font-family="sans-serif" font-size="14" font-weight="bold" lengthAdjust="spacingAndGlyphs" textLength="119" x="25" y="60.9482">Joomla.Content</text><polygon fill="#FFFFFF" points="412,206.9531,546,206.9531,553,229.25,557,229.25,557,320.9531,412,320.9531,412,206.9531" style="stroke: #000000; stroke-width: 2.0;"/><line style="stroke: #000000; stroke-width: 2.0;" x1="412" x2="553" y1="229.25" y2="229.25"/><text fill="#000000" font-family="sans-serif" font-size="14" font-weight="bold" lengthAdjust="spacingAndGlyphs" textLength="128" x="415" y="222.9482">Joomla.Frontend</text><rect fill="#FFFFFF" height="60.8047" style="stroke: #000000; stroke-width: 1.5;" width="128" x="244" y="81.4531"/><ellipse cx="280.6" cy="97.4531" fill="#FFFFFF" rx="11" ry="11" style="stroke: #000000; stroke-width: 1.0;"/><path d="M276.5219,93.2188 L276.5219,91.0625 L283.9125,91.0625 L283.9125,93.2188 L281.4438,93.2188 L281.4438,101.2969 L283.9125,101.2969 L283.9125,103.4531 L276.5219,103.4531 L276.5219,101.2969 L278.9906,101.2969 L278.9906,93.2188 L276.5219,93.2188 Z "/><text fill="#000000" font-family="Verdana" font-size="12" font-style="italic" lengthAdjust="spacingAndGlyphs" textLength="48" x="299.4" y="102.2256">Content</text><line style="stroke: #000000; stroke-width: 1.5;" x1="245" x2="371" y1="113.4531" y2="113.4531"/><line style="stroke: #000000; stroke-width: 1.5;" x1="245" x2="371" y1="121.4531" y2="121.4531"/><ellipse cx="255" cy="133.3555" fill="#84BE84" rx="3" ry="3" style="stroke: #038048; stroke-width: 1.0;"/><text fill="#000000" font-family="sans-serif" font-size="11" font-style="italic" font-weight="bold" lengthAdjust="spacingAndGlyphs" textLength="41" x="264" y="135.6636">accept</text><text fill="#000000" font-family="sans-serif" font-size="11" font-style="italic" lengthAdjust="spacingAndGlyphs" textLength="61" x="305" y="135.6636">(Renderer)</text><rect fill="#FFFFFF" height="48" style="stroke: #000000; stroke-width: 1.5;" width="109" x="262.75" y="249.9531"/><ellipse cx="277.75" cy="265.9531" fill="#FFFFFF" rx="11" ry="11" style="stroke: #000000; stroke-width: 1.0;"/><path d="M273.6719,261.7188 L273.6719,259.5625 L281.0625,259.5625 L281.0625,261.7188 L278.5938,261.7188 L278.5938,269.7969 L281.0625,269.7969 L281.0625,271.9531 L273.6719,271.9531 L273.6719,269.7969 L276.1406,269.7969 L276.1406,261.7188 L273.6719,261.7188 Z "/><text fill="#000000" font-family="Verdana" font-size="12" font-style="italic" lengthAdjust="spacingAndGlyphs" textLength="77" x="291.75" y="270.7256">ContentItem</text><line style="stroke: #000000; stroke-width: 1.5;" x1="263.75" x2="370.75" y1="281.9531" y2="281.9531"/><line style="stroke: #000000; stroke-width: 1.5;" x1="263.75" x2="370.75" y1="289.9531" y2="289.9531"/><rect fill="#FFFFFF" height="48" style="stroke: #000000; stroke-width: 1.5;" width="116" x="40.5" y="87.9531"/><ellipse cx="55.5" cy="103.9531" fill="#FFFFFF" rx="11" ry="11" style="stroke: #000000; stroke-width: 1.0;"/><path d="M51.4219,99.7188 L51.4219,97.5625 L58.8125,97.5625 L58.8125,99.7188 L56.3438,99.7188 L56.3438,107.7969 L58.8125,107.7969 L58.8125,109.9531 L51.4219,109.9531 L51.4219,107.7969 L53.8906,107.7969 L53.8906,99.7188 L51.4219,99.7188 Z "/><text fill="#000000" font-family="Verdana" font-size="12" font-style="italic" lengthAdjust="spacingAndGlyphs" textLength="84" x="69.5" y="108.7256">ContentGroup</text><line style="stroke: #000000; stroke-width: 1.5;" x1="41.5" x2="155.5" y1="119.9531" y2="119.9531"/><line style="stroke: #000000; stroke-width: 1.5;" x1="41.5" x2="155.5" y1="127.9531" y2="127.9531"/><rect fill="#FFFFFF" height="48" style="stroke: #000000; stroke-width: 1.5;" width="90" x="38" y="249.9531"/><ellipse cx="53" cy="265.9531" fill="#FFFFFF" rx="11" ry="11" style="stroke: #000000; stroke-width: 1.0;"/><path d="M55.9688,271.5938 Q55.3906,271.8906 54.75,272.0391 Q54.1094,272.1875 53.4063,272.1875 Q50.9063,272.1875 49.5859,270.5391 Q48.2656,268.8906 48.2656,265.7656 Q48.2656,262.6406 49.5859,260.9844 Q50.9063,259.3281 53.4063,259.3281 Q54.1094,259.3281 54.7578,259.4844 Q55.4063,259.6406 55.9688,259.9375 L55.9688,262.6563 Q55.3438,262.0781 54.75,261.8047 Q54.1563,261.5313 53.5313,261.5313 Q52.1875,261.5313 51.5,262.6016 Q50.8125,263.6719 50.8125,265.7656 Q50.8125,267.8594 51.5,268.9297 Q52.1875,270 53.5313,270 Q54.1563,270 54.75,269.7266 Q55.3438,269.4531 55.9688,268.875 L55.9688,271.5938 Z "/><text fill="#000000" font-family="Verdana" font-size="12" lengthAdjust="spacingAndGlyphs" textLength="58" x="67" y="270.7256">Category</text><line style="stroke: #000000; stroke-width: 1.5;" x1="39" x2="127" y1="281.9531" y2="281.9531"/><line style="stroke: #000000; stroke-width: 1.5;" x1="39" x2="127" y1="289.9531" y2="289.9531"/><rect fill="#FFFFFF" height="48" style="stroke: #000000; stroke-width: 1.5;" width="64" x="163" y="249.9531"/><ellipse cx="178" cy="265.9531" fill="#FFFFFF" rx="11" ry="11" style="stroke: #000000; stroke-width: 1.0;"/><path d="M180.9688,271.5938 Q180.3906,271.8906 179.75,272.0391 Q179.1094,272.1875 178.4063,272.1875 Q175.9063,272.1875 174.5859,270.5391 Q173.2656,268.8906 173.2656,265.7656 Q173.2656,262.6406 174.5859,260.9844 Q175.9063,259.3281 178.4063,259.3281 Q179.1094,259.3281 179.7578,259.4844 Q180.4063,259.6406 180.9688,259.9375 L180.9688,262.6563 Q180.3438,262.0781 179.75,261.8047 Q179.1563,261.5313 178.5313,261.5313 Q177.1875,261.5313 176.5,262.6016 Q175.8125,263.6719 175.8125,265.7656 Q175.8125,267.8594 176.5,268.9297 Q177.1875,270 178.5313,270 Q179.1563,270 179.75,269.7266 Q180.3438,269.4531 180.9688,268.875 L180.9688,271.5938 Z "/><text fill="#000000" font-family="Verdana" font-size="12" lengthAdjust="spacingAndGlyphs" textLength="32" x="192" y="270.7256">Page</text><line style="stroke: #000000; stroke-width: 1.5;" x1="164" x2="226" y1="281.9531" y2="281.9531"/><line style="stroke: #000000; stroke-width: 1.5;" x1="164" x2="226" y1="289.9531" y2="289.9531"/><rect fill="#FFFFFF" height="48" style="stroke: #000000; stroke-width: 1.5;" width="98" x="162.5" y="368.9531"/><ellipse cx="177.5" cy="384.9531" fill="#FFFFFF" rx="11" ry="11" style="stroke: #000000; stroke-width: 1.0;"/><path d="M180.4688,390.5938 Q179.8906,390.8906 179.25,391.0391 Q178.6094,391.1875 177.9063,391.1875 Q175.4063,391.1875 174.0859,389.5391 Q172.7656,387.8906 172.7656,384.7656 Q172.7656,381.6406 174.0859,379.9844 Q175.4063,378.3281 177.9063,378.3281 Q178.6094,378.3281 179.2578,378.4844 Q179.9063,378.6406 180.4688,378.9375 L180.4688,381.6563 Q179.8438,381.0781 179.25,380.8047 Q178.6563,380.5313 178.0313,380.5313 Q176.6875,380.5313 176,381.6016 Q175.3125,382.6719 175.3125,384.7656 Q175.3125,386.8594 176,387.9297 Q176.6875,389 178.0313,389 Q178.6563,389 179.25,388.7266 Q179.8438,388.4531 180.4688,387.875 L180.4688,390.5938 Z "/><text fill="#000000" font-family="Verdana" font-size="12" lengthAdjust="spacingAndGlyphs" textLength="66" x="191.5" y="389.7256">Paragraph</text><line style="stroke: #000000; stroke-width: 1.5;" x1="163.5" x2="259.5" y1="400.9531" y2="400.9531"/><line style="stroke: #000000; stroke-width: 1.5;" x1="163.5" x2="259.5" y1="408.9531" y2="408.9531"/><rect fill="#FFFFFF" height="48" style="stroke: #000000; stroke-width: 1.5;" width="72" x="295" y="368.9531"/><ellipse cx="310" cy="384.9531" fill="#FFFFFF" rx="11" ry="11" style="stroke: #000000; stroke-width: 1.0;"/><path d="M312.9688,390.5938 Q312.3906,390.8906 311.75,391.0391 Q311.1094,391.1875 310.4063,391.1875 Q307.9063,391.1875 306.5859,389.5391 Q305.2656,387.8906 305.2656,384.7656 Q305.2656,381.6406 306.5859,379.9844 Q307.9063,378.3281 310.4063,378.3281 Q311.1094,378.3281 311.7578,378.4844 Q312.4063,378.6406 312.9688,378.9375 L312.9688,381.6563 Q312.3438,381.0781 311.75,380.8047 Q311.1563,380.5313 310.5313,380.5313 Q309.1875,380.5313 308.5,381.6016 Q307.8125,382.6719 307.8125,384.7656 Q307.8125,386.8594 308.5,387.9297 Q309.1875,389 310.5313,389 Q311.1563,389 311.75,388.7266 Q312.3438,388.4531 312.9688,387.875 L312.9688,390.5938 Z "/><text fill="#000000" font-family="Verdana" font-size="12" lengthAdjust="spacingAndGlyphs" textLength="40" x="324" y="389.7256">Image</text><line style="stroke: #000000; stroke-width: 1.5;" x1="296" x2="366" y1="400.9531" y2="400.9531"/><line style="stroke: #000000; stroke-width: 1.5;" x1="296" x2="366" y1="408.9531" y2="408.9531"/><rect fill="#FFFFFF" height="60.8047" style="stroke: #000000; stroke-width: 1.5;" width="105" x="428.75" y="243.4531"/><ellipse cx="452.3" cy="259.4531" fill="#FFFFFF" rx="11" ry="11" style="stroke: #000000; stroke-width: 1.0;"/><path d="M448.2219,255.2188 L448.2219,253.0625 L455.6125,253.0625 L455.6125,255.2188 L453.1438,255.2188 L453.1438,263.2969 L455.6125,263.2969 L455.6125,265.4531 L448.2219,265.4531 L448.2219,263.2969 L450.6906,263.2969 L450.6906,255.2188 L448.2219,255.2188 Z "/><text fill="#000000" font-family="Verdana" font-size="12" font-style="italic" lengthAdjust="spacingAndGlyphs" textLength="54" x="468.2" y="264.2256">Renderer</text><line style="stroke: #000000; stroke-width: 1.5;" x1="429.75" x2="532.75" y1="275.4531" y2="275.4531"/><line style="stroke: #000000; stroke-width: 1.5;" x1="429.75" x2="532.75" y1="283.4531" y2="283.4531"/><ellipse cx="439.75" cy="295.3555" fill="#84BE84" rx="3" ry="3" style="stroke: #038048; stroke-width: 1.0;"/><text fill="#000000" font-family="sans-serif" font-size="11" font-style="italic" font-weight="bold" lengthAdjust="spacingAndGlyphs" textLength="27" x="448.75" y="297.6636">visit</text><text fill="#000000" font-family="sans-serif" font-size="11" font-style="italic" lengthAdjust="spacingAndGlyphs" textLength="52" x="475.75" y="297.6636">(Content)</text><path d="M310.807,162.8631 C312.437,191.8321 314.413,226.9641 315.688,249.6251 " fill="none" style="stroke: #000000; stroke-width: 1.0;"/><polygon fill="none" points="303.806,163.0341,309.672,142.6731,317.784,162.2481,303.806,163.0341" style="stroke: #000000; stroke-width: 1.0;"/><path d="M223.788,114.9361 C210.692,115.1301 197.315,115.1721 184.667,114.9531 C175.334,114.7921 165.438,114.5321 155.8,114.2321 " fill="none" style="stroke: #000000; stroke-width: 1.0;"/><polygon fill="none" points="223.852,107.9331,243.991,114.5221,224.139,121.9311,223.852,107.9331" style="stroke: #000000; stroke-width: 1.0;"/><path d="M168.825,111.9531 C188.735,111.9531 210.484,111.9531 230.748,111.9531 " fill="none" style="stroke: #000000; stroke-width: 1.0;"/><polygon fill="#000000" points="243.816,111.9531,234.816,107.9531,238.816,111.9531,234.816,115.9531,243.816,111.9531" style="stroke: #000000; stroke-width: 1.0;"/><line style="stroke: #000000; stroke-width: 1.0;" x1="238.816" x2="230.816" y1="111.9531" y2="111.9531"/><polygon fill="#000000" points="155.661,111.9531,161.661,115.9531,167.661,111.9531,161.661,107.9531,155.661,111.9531" style="stroke: #000000; stroke-width: 1.0;"/><text fill="#000000" font-family="Verdana" font-size="12" lengthAdjust="spacingAndGlyphs" textLength="49" x="174.5" y="105.0176">children</text><text fill="#000000" font-family="Verdana" font-size="12" lengthAdjust="spacingAndGlyphs" textLength="8" x="228.0057" y="108.2684">n</text><path d="M93.9374,156.2871 C91.108,186.4681 87.4457,225.5321 85.1594,249.9191 " fill="none" style="stroke: #000000; stroke-width: 1.0; stroke-dasharray: 7.0,7.0;"/><polygon fill="none" points="86.9825,155.4781,95.8189,136.2181,100.9214,156.7841,86.9825,155.4781" style="stroke: #000000; stroke-width: 1.0;"/><path d="M122.687,153.6731 C141.181,184.1801 165.82,224.8211 181.036,249.9191 " fill="none" style="stroke: #000000; stroke-width: 1.0; stroke-dasharray: 7.0,7.0;"/><polygon fill="none" points="116.487,156.9501,112.105,136.2181,128.459,149.6921,116.487,156.9501" style="stroke: #000000; stroke-width: 1.0;"/><path d="M282.578,312.9471 C265.867,331.3931 246.334,352.9523 231.899,368.8857 " fill="none" style="stroke: #000000; stroke-width: 1.0; stroke-dasharray: 7.0,7.0;"/><polygon fill="none" points="277.442,308.1901,296.058,298.0681,287.817,317.5901,277.442,308.1901" style="stroke: #000000; stroke-width: 1.0;"/><path d="M322.154,318.0221 C324.215,335.2471 326.506,354.3935 328.24,368.8857 " fill="none" style="stroke: #000000; stroke-width: 1.0; stroke-dasharray: 7.0,7.0;"/><polygon fill="none" points="315.192,318.7581,319.766,298.0681,329.093,317.0951,315.192,318.7581" style="stroke: #000000; stroke-width: 1.0;"/><path d="M343.846,146.1051 C373.509,173.5401 415.444,212.3231 445.117,239.7661 " fill="none" style="stroke: #000000; stroke-width: 1.0;"/><polygon fill="#000000" points="449.038,243.3921,445.1467,234.3446,445.3673,239.9972,439.7147,240.2178,449.038,243.3921" style="stroke: #000000; stroke-width: 1.0;"/><polygon fill="#000000" points="340.135,142.6731,344.0262,151.7207,343.8057,146.0681,349.4582,145.8476,340.135,142.6731" style="stroke: #000000; stroke-width: 1.0;"/><text fill="#000000" font-family="Verdana" font-size="12" lengthAdjust="spacingAndGlyphs" textLength="46" x="390" y="186.5176">«uses»</text></g></svg>