<?xml version="1.0" encoding="UTF-8" standalone="yes"?><svg xmlns="http://www.w3.org/2000/svg" xmlns:xlink="http://www.w3.org/1999/xlink" height="1092px" style="width:932px;height:1092px;" version="1.1" viewBox="0 0 932 1092" width="932px"><defs><filter height="300%" id="f1" width="300%" x="-1" y="-1"><feGaussianBlur result="blurOut" stdDeviation="2.0"/><feColorMatrix in="blurOut" result="blurOut2" type="matrix" values="0 0 0 0 0 0 0 0 0 0 0 0 0 0 0 0 0 0 .4 0"/><feOffset dx="4.0" dy="4.0" in="blurOut2" result="blurOut3"/><feBlend in="SourceGraphic" in2="blurOut3" mode="normal"/></filter></defs><g><rect fill="#FFFFFF" filter="url(#f1)" height="912.5234" style="stroke: #A80036; stroke-width: 1.0;" width="10" x="79" y="123.5625"/><rect fill="#FFC0CB" filter="url(#f1)" height="54.2656" style="stroke: #A80036; stroke-width: 1.0;" width="10" x="84" y="160.6953"/><rect fill="#FFFFFF" filter="url(#f1)" height="996.7891" style="stroke: #A80036; stroke-width: 1.0;" width="10" x="158" y="48.2969"/><rect fill="#FFFFFF" filter="url(#f1)" height="996.7891" style="stroke: #A80036; stroke-width: 1.0;" width="10" x="227.5" y="48.2969"/><rect fill="#FFFFFF" filter="url(#f1)" height="724.9922" style="stroke: #A80036; stroke-width: 1.0;" width="10" x="350" y="280.0938"/><rect fill="#FFC0CB" filter="url(#f1)" height="645.125" style="stroke: #A80036; stroke-width: 1.0;" width="10" x="529" y="194.8281"/><rect fill="#FFC0CB" filter="url(#f1)" height="83.2656" style="stroke: #A80036; stroke-width: 1.0;" width="10" x="654" y="656.4219"/><rect fill="#FFFFFF" filter="url(#f1)" height="996.7891" style="stroke: #A80036; stroke-width: 1.0;" width="10" x="842" y="48.2969"/><rect fill="#FFFFFF" filter="url(#f1)" height="702.8594" style="stroke: #000000; stroke-width: 2.0;" width="892" x="31.5" y="295.2266"/><rect fill="#FFFFFF" filter="url(#f1)" height="445.3281" style="stroke: #000000; stroke-width: 2.0;" width="797" x="116.5" y="481.7578"/><rect fill="#FFFFFF" filter="url(#f1)" height="266.9297" style="stroke: #000000; stroke-width: 2.0;" width="777" x="126.5" y="535.0234"/><line style="stroke: #A80036; stroke-width: 1.0; stroke-dasharray: 5.0,5.0;" x1="83.5" x2="83.5" y1="38.2969" y2="1054.0859"/><line style="stroke: #A80036; stroke-width: 1.0; stroke-dasharray: 5.0,5.0;" x1="162.5" x2="162.5" y1="38.2969" y2="1054.0859"/><line style="stroke: #A80036; stroke-width: 1.0; stroke-dasharray: 5.0,5.0;" x1="232.5" x2="232.5" y1="38.2969" y2="1054.0859"/><line style="stroke: #A80036; stroke-width: 1.0; stroke-dasharray: 5.0,5.0;" x1="354.5" x2="354.5" y1="38.2969" y2="1054.0859"/><line style="stroke: #A80036; stroke-width: 1.0; stroke-dasharray: 5.0,5.0;" x1="533.5" x2="533.5" y1="38.2969" y2="1054.0859"/><line style="stroke: #A80036; stroke-width: 1.0; stroke-dasharray: 5.0,5.0;" x1="659" x2="659" y1="38.2969" y2="1054.0859"/><line style="stroke: #A80036; stroke-width: 1.0; stroke-dasharray: 5.0,5.0;" x1="846.5" x2="846.5" y1="38.2969" y2="1054.0859"/><rect fill="#FEFECE" filter="url(#f1)" height="30.2969" style="stroke: #A80036; stroke-width: 1.5;" width="81" x="41.5" y="3"/><text fill="#000000" font-family="sans-serif" font-size="14" lengthAdjust="spacingAndGlyphs" textLength="67" x="48.5" y="22.9951">Controller</text><rect fill="#FEFECE" filter="url(#f1)" height="30.2969" style="stroke: #A80036; stroke-width: 1.5;" width="81" x="41.5" y="1053.0859"/><text fill="#000000" font-family="sans-serif" font-size="14" lengthAdjust="spacingAndGlyphs" textLength="67" x="48.5" y="1073.0811">Controller</text><rect fill="#FEFECE" filter="url(#f1)" height="30.2969" style="stroke: #A80036; stroke-width: 1.5;" width="49" x="136.5" y="3"/><text fill="#000000" font-family="sans-serif" font-size="14" lengthAdjust="spacingAndGlyphs" textLength="35" x="143.5" y="22.9951">Input</text><rect fill="#FEFECE" filter="url(#f1)" height="30.2969" style="stroke: #A80036; stroke-width: 1.5;" width="49" x="136.5" y="1053.0859"/><text fill="#000000" font-family="sans-serif" font-size="14" lengthAdjust="spacingAndGlyphs" textLength="35" x="143.5" y="1073.0811">Input</text><rect fill="#FEFECE" filter="url(#f1)" height="30.2969" style="stroke: #A80036; stroke-width: 1.5;" width="62" x="199.5" y="3"/><text fill="#000000" font-family="sans-serif" font-size="14" lengthAdjust="spacingAndGlyphs" textLength="48" x="206.5" y="22.9951">Output</text><rect fill="#FEFECE" filter="url(#f1)" height="30.2969" style="stroke: #A80036; stroke-width: 1.5;" width="62" x="199.5" y="1053.0859"/><text fill="#000000" font-family="sans-serif" font-size="14" lengthAdjust="spacingAndGlyphs" textLength="48" x="206.5" y="1073.0811">Output</text><rect fill="#FEFECE" filter="url(#f1)" height="30.2969" style="stroke: #A80036; stroke-width: 1.5;" width="155" x="275.5" y="3"/><text fill="#000000" font-family="sans-serif" font-size="14" lengthAdjust="spacingAndGlyphs" textLength="141" x="282.5" y="22.9951">CommandProcessor</text><rect fill="#FEFECE" filter="url(#f1)" height="30.2969" style="stroke: #A80036; stroke-width: 1.5;" width="155" x="275.5" y="1053.0859"/><text fill="#000000" font-family="sans-serif" font-size="14" lengthAdjust="spacingAndGlyphs" textLength="141" x="282.5" y="1073.0811">CommandProcessor</text><rect fill="#FEFECE" filter="url(#f1)" height="30.2969" style="stroke: #A80036; stroke-width: 1.5;" width="85" x="489.5" y="3"/><text fill="#000000" font-family="sans-serif" font-size="14" lengthAdjust="spacingAndGlyphs" textLength="71" x="496.5" y="22.9951">Command</text><rect fill="#FEFECE" filter="url(#f1)" height="30.2969" style="stroke: #A80036; stroke-width: 1.5;" width="85" x="489.5" y="1053.0859"/><text fill="#000000" font-family="sans-serif" font-size="14" lengthAdjust="spacingAndGlyphs" textLength="71" x="496.5" y="1073.0811">Command</text><rect fill="#FEFECE" filter="url(#f1)" height="30.2969" style="stroke: #A80036; stroke-width: 1.5;" width="82" x="616" y="3"/><text fill="#000000" font-family="sans-serif" font-size="14" lengthAdjust="spacingAndGlyphs" textLength="68" x="623" y="22.9951">ArbObject</text><rect fill="#FEFECE" filter="url(#f1)" height="30.2969" style="stroke: #A80036; stroke-width: 1.5;" width="82" x="616" y="1053.0859"/><text fill="#000000" font-family="sans-serif" font-size="14" lengthAdjust="spacingAndGlyphs" textLength="68" x="623" y="1073.0811">ArbObject</text><rect fill="#FEFECE" filter="url(#f1)" height="30.2969" style="stroke: #A80036; stroke-width: 1.5;" width="89" x="800.5" y="3"/><text fill="#000000" font-family="sans-serif" font-size="14" lengthAdjust="spacingAndGlyphs" textLength="75" x="807.5" y="22.9951">Dispatcher</text><rect fill="#FEFECE" filter="url(#f1)" height="30.2969" style="stroke: #A80036; stroke-width: 1.5;" width="89" x="800.5" y="1053.0859"/><text fill="#000000" font-family="sans-serif" font-size="14" lengthAdjust="spacingAndGlyphs" textLength="75" x="807.5" y="1073.0811">Dispatcher</text><rect fill="#FFFFFF" filter="url(#f1)" height="912.5234" style="stroke: #A80036; stroke-width: 1.0;" width="10" x="79" y="123.5625"/><rect fill="#FFC0CB" filter="url(#f1)" height="54.2656" style="stroke: #A80036; stroke-width: 1.0;" width="10" x="84" y="160.6953"/><rect fill="#FFFFFF" filter="url(#f1)" height="996.7891" style="stroke: #A80036; stroke-width: 1.0;" width="10" x="158" y="48.2969"/><rect fill="#FFFFFF" filter="url(#f1)" height="996.7891" style="stroke: #A80036; stroke-width: 1.0;" width="10" x="227.5" y="48.2969"/><rect fill="#FFFFFF" filter="url(#f1)" height="724.9922" style="stroke: #A80036; stroke-width: 1.0;" width="10" x="350" y="280.0938"/><rect fill="#FFC0CB" filter="url(#f1)" height="645.125" style="stroke: #A80036; stroke-width: 1.0;" width="10" x="529" y="194.8281"/><rect fill="#FFC0CB" filter="url(#f1)" height="83.2656" style="stroke: #A80036; stroke-width: 1.0;" width="10" x="654" y="656.4219"/><rect fill="#FFFFFF" filter="url(#f1)" height="996.7891" style="stroke: #A80036; stroke-width: 1.0;" width="10" x="842" y="48.2969"/><polygon fill="#FBFB77" filter="url(#f1)" points="610,53.2969,610,93.2969,704,93.2969,704,63.2969,694,53.2969,610,53.2969" style="stroke: #A80036; stroke-width: 1.0;"/><line style="stroke: #A80036; stroke-width: 1.0;" x1="694" x2="694" y1="53.2969" y2="63.2969"/><line style="stroke: #A80036; stroke-width: 1.0;" x1="704" x2="694" y1="63.2969" y2="63.2969"/><text fill="#000000" font-family="sans-serif" font-size="13" lengthAdjust="spacingAndGlyphs" textLength="73" x="616" y="70.3638">This usually</text><text fill="#000000" font-family="sans-serif" font-size="13" lengthAdjust="spacingAndGlyphs" textLength="70" x="616" y="85.4966">is a model.</text><polygon fill="#A80036" points="67,119.5625,77,123.5625,67,127.5625,71,123.5625" style="stroke: #A80036; stroke-width: 1.0;"/><line style="stroke: #A80036; stroke-width: 1.0; stroke-dasharray: 2.0,2.0;" x1="3" x2="73" y1="123.5625" y2="123.5625"/><text fill="#000000" font-family="sans-serif" font-size="13" lengthAdjust="spacingAndGlyphs" textLength="57" x="10" y="118.6294">«create»</text><line style="stroke: #A80036; stroke-width: 1.0; stroke-dasharray: 2.0,2.0;" x1="89" x2="136" y1="147.8281" y2="147.8281"/><line style="stroke: #A80036; stroke-width: 1.0; stroke-dasharray: 2.0,2.0;" x1="136" x2="136" y1="147.8281" y2="160.8281"/><line style="stroke: #A80036; stroke-width: 1.0; stroke-dasharray: 2.0,2.0;" x1="95" x2="136" y1="160.8281" y2="160.8281"/><polygon fill="#A80036" points="105,156.8281,95,160.8281,105,164.8281,101,160.8281" style="stroke: #A80036; stroke-width: 1.0;"/><text fill="#000000" font-family="sans-serif" font-size="13" lengthAdjust="spacingAndGlyphs" textLength="29" x="101" y="142.7622">init()</text><polygon fill="#A80036" points="517,190.8281,527,194.8281,517,198.8281,521,194.8281" style="stroke: #A80036; stroke-width: 1.0;"/><line style="stroke: #A80036; stroke-width: 1.0; stroke-dasharray: 2.0,2.0;" x1="94" x2="523" y1="194.8281" y2="194.8281"/><text fill="#000000" font-family="sans-serif" font-size="13" lengthAdjust="spacingAndGlyphs" textLength="57" x="101" y="189.895">«create»</text><line style="stroke: #A80036; stroke-width: 1.0; stroke-dasharray: 2.0,2.0;" x1="94" x2="136" y1="213.9609" y2="213.9609"/><line style="stroke: #A80036; stroke-width: 1.0; stroke-dasharray: 2.0,2.0;" x1="136" x2="136" y1="213.9609" y2="226.9609"/><line style="stroke: #A80036; stroke-width: 1.0; stroke-dasharray: 2.0,2.0;" x1="89" x2="136" y1="226.9609" y2="226.9609"/><polygon fill="#A80036" points="99,222.9609,89,226.9609,99,230.9609,95,226.9609" style="stroke: #A80036; stroke-width: 1.0;"/><polygon fill="#A80036" points="67,246.9609,77,250.9609,67,254.9609,71,250.9609" style="stroke: #A80036; stroke-width: 1.0;"/><line style="stroke: #A80036; stroke-width: 1.0;" x1="3" x2="73" y1="250.9609" y2="250.9609"/><text fill="#000000" font-family="sans-serif" font-size="13" lengthAdjust="spacingAndGlyphs" textLength="31" x="10" y="246.0278">run()</text><polygon fill="#A80036" points="338,276.0938,348,280.0938,338,284.0938,342,280.0938" style="stroke: #A80036; stroke-width: 1.0;"/><line style="stroke: #A80036; stroke-width: 1.0; stroke-dasharray: 2.0,2.0;" x1="89" x2="344" y1="280.0938" y2="280.0938"/><text fill="#000000" font-family="sans-serif" font-size="13" lengthAdjust="spacingAndGlyphs" textLength="57" x="96" y="275.1606">«create»</text><rect fill="none" height="702.8594" style="stroke: #000000; stroke-width: 2.0;" width="892" x="31.5" y="295.2266"/><polygon fill="#EEEEEE" points="31.5,295.2266,506.5,295.2266,506.5,302.2266,496.5,312.2266,31.5,312.2266,31.5,295.2266" style="stroke: #000000; stroke-width: 2.0;"/><text fill="#000000" font-family="sans-serif" font-size="13" font-weight="bold" lengthAdjust="spacingAndGlyphs" textLength="430" x="46.5" y="308.2935">May be executed multiple times with different commands</text><polygon fill="#A80036" points="338,354.3594,348,358.3594,338,362.3594,342,358.3594" style="stroke: #A80036; stroke-width: 1.0;"/><line style="stroke: #A80036; stroke-width: 1.0;" x1="89" x2="344" y1="358.3594" y2="358.3594"/><text fill="#000000" font-family="sans-serif" font-size="13" lengthAdjust="spacingAndGlyphs" textLength="195" x="96" y="353.4263">executeCommand(Command)</text><polygon fill="#A80036" points="830,408.4922,840,412.4922,830,416.4922,834,412.4922" style="stroke: #A80036; stroke-width: 1.0;"/><line style="stroke: #A80036; stroke-width: 1.0;" x1="360" x2="836" y1="412.4922" y2="412.4922"/><text fill="#000000" font-family="sans-serif" font-size="13" lengthAdjust="spacingAndGlyphs" textLength="225" x="367" y="407.5591">trigger('beforeExecute', Command)</text><polygon fill="#A80036" points="371,437.625,361,441.625,371,445.625,367,441.625" style="stroke: #A80036; stroke-width: 1.0;"/><line style="stroke: #A80036; stroke-width: 1.0;" x1="365" x2="841" y1="441.625" y2="441.625"/><text fill="#000000" font-family="sans-serif" font-size="13" lengthAdjust="spacingAndGlyphs" textLength="51" x="377" y="436.6919">success</text><rect fill="none" height="445.3281" style="stroke: #000000; stroke-width: 2.0;" width="797" x="116.5" y="481.7578"/><polygon fill="#EEEEEE" points="116.5,481.7578,234.5,481.7578,234.5,488.7578,224.5,498.7578,116.5,498.7578,116.5,481.7578" style="stroke: #000000; stroke-width: 2.0;"/><text fill="#000000" font-family="sans-serif" font-size="13" font-weight="bold" lengthAdjust="spacingAndGlyphs" textLength="73" x="131.5" y="494.8247">If success</text><polygon fill="#A80036" points="517,515.8906,527,519.8906,517,523.8906,521,519.8906" style="stroke: #A80036; stroke-width: 1.0;"/><line style="stroke: #A80036; stroke-width: 1.0;" x1="360" x2="523" y1="519.8906" y2="519.8906"/><text fill="#000000" font-family="sans-serif" font-size="13" lengthAdjust="spacingAndGlyphs" textLength="145" x="367" y="514.9575">execute(Input, Output)</text><rect fill="none" height="266.9297" style="stroke: #000000; stroke-width: 2.0;" width="777" x="126.5" y="535.0234"/><polygon fill="#EEEEEE" points="126.5,535.0234,388.5,535.0234,388.5,542.0234,378.5,552.0234,126.5,552.0234,126.5,535.0234" style="stroke: #000000; stroke-width: 2.0;"/><text fill="#000000" font-family="sans-serif" font-size="13" font-weight="bold" lengthAdjust="spacingAndGlyphs" textLength="217" x="141.5" y="548.0903">Command specific (example)</text><polygon fill="#A80036" points="179,569.1563,169,573.1563,179,577.1563,175,573.1563" style="stroke: #A80036; stroke-width: 1.0;"/><line style="stroke: #A80036; stroke-width: 1.0;" x1="173" x2="528" y1="573.1563" y2="573.1563"/><text fill="#000000" font-family="sans-serif" font-size="13" lengthAdjust="spacingAndGlyphs" textLength="62" x="185" y="568.2231">getData()</text><polygon fill="#A80036" points="517,598.2891,527,602.2891,517,606.2891,521,602.2891" style="stroke: #A80036; stroke-width: 1.0;"/><line style="stroke: #A80036; stroke-width: 1.0;" x1="168" x2="523" y1="602.2891" y2="602.2891"/><text fill="#000000" font-family="sans-serif" font-size="13" lengthAdjust="spacingAndGlyphs" textLength="75" x="175" y="597.356">parameters</text><polygon fill="#A80036" points="642,652.4219,652,656.4219,642,660.4219,646,656.4219" style="stroke: #A80036; stroke-width: 1.0;"/><line style="stroke: #A80036; stroke-width: 1.0;" x1="539" x2="648" y1="656.4219" y2="656.4219"/><text fill="#000000" font-family="sans-serif" font-size="13" lengthAdjust="spacingAndGlyphs" textLength="96" x="546" y="651.4888">doSomething()</text><polygon fill="#A80036" points="830,681.5547,840,685.5547,830,689.5547,834,685.5547" style="stroke: #A80036; stroke-width: 1.0;"/><line style="stroke: #A80036; stroke-width: 1.0; stroke-dasharray: 2.0,2.0;" x1="664" x2="836" y1="685.5547" y2="685.5547"/><text fill="#000000" font-family="sans-serif" font-size="13" lengthAdjust="spacingAndGlyphs" textLength="154" x="671" y="680.6216">trigger($signal, $data...)</text><polygon fill="#A80036" points="550,735.6875,540,739.6875,550,743.6875,546,739.6875" style="stroke: #A80036; stroke-width: 1.0;"/><line style="stroke: #A80036; stroke-width: 1.0;" x1="544" x2="658" y1="739.6875" y2="739.6875"/><text fill="#000000" font-family="sans-serif" font-size="13" lengthAdjust="spacingAndGlyphs" textLength="43" x="556" y="734.7544">results</text><polygon fill="#A80036" points="248.5,764.8203,238.5,768.8203,248.5,772.8203,244.5,768.8203" style="stroke: #A80036; stroke-width: 1.0;"/><line style="stroke: #A80036; stroke-width: 1.0; stroke-dasharray: 2.0,2.0;" x1="242.5" x2="528" y1="768.8203" y2="768.8203"/><text fill="#000000" font-family="sans-serif" font-size="13" lengthAdjust="spacingAndGlyphs" textLength="76" x="254.5" y="763.8872">setResults()</text><polygon fill="#A80036" points="371,835.9531,361,839.9531,371,843.9531,367,839.9531" style="stroke: #A80036; stroke-width: 1.0;"/><line style="stroke: #A80036; stroke-width: 1.0; stroke-dasharray: 2.0,2.0;" x1="365" x2="533" y1="839.9531" y2="839.9531"/><polygon fill="#A80036" points="830,889.9531,840,893.9531,830,897.9531,834,893.9531" style="stroke: #A80036; stroke-width: 1.0;"/><line style="stroke: #A80036; stroke-width: 1.0; stroke-dasharray: 2.0,2.0;" x1="360" x2="836" y1="893.9531" y2="893.9531"/><text fill="#000000" font-family="sans-serif" font-size="13" lengthAdjust="spacingAndGlyphs" textLength="214" x="367" y="889.02">trigger('afterExecute', Command)</text><polygon fill="#A80036" points="100,961.0859,90,965.0859,100,969.0859,96,965.0859" style="stroke: #A80036; stroke-width: 1.0;"/><line style="stroke: #A80036; stroke-width: 1.0; stroke-dasharray: 2.0,2.0;" x1="94" x2="349" y1="965.0859" y2="965.0859"/><polygon fill="#A80036" points="14,1032.0859,4,1036.0859,14,1040.0859,10,1036.0859" style="stroke: #A80036; stroke-width: 1.0;"/><line style="stroke: #A80036; stroke-width: 1.0; stroke-dasharray: 2.0,2.0;" x1="8" x2="83" y1="1036.0859" y2="1036.0859"/></g></svg>