<?xml version="1.0" encoding="UTF-8" standalone="yes"?><svg xmlns="http://www.w3.org/2000/svg" xmlns:xlink="http://www.w3.org/1999/xlink" height="1063px" style="width:888px;height:1063px;" version="1.1" viewBox="0 0 888 1063" width="888px"><defs/><g><rect fill="#FFFFFF" height="904.7422" style="stroke: #000000; stroke-width: 1.0;" width="10" x="78" y="111.752"/><rect fill="#FFC0CB" height="54.168" style="stroke: #000000; stroke-width: 1.0;" width="10" x="83" y="148.3359"/><rect fill="#FFFFFF" height="982.9102" style="stroke: #000000; stroke-width: 1.0;" width="10" x="150" y="42.584"/><rect fill="#FFFFFF" height="982.9102" style="stroke: #000000; stroke-width: 1.0;" width="10" x="213" y="42.584"/><rect fill="#FFFFFF" height="719.4063" style="stroke: #000000; stroke-width: 1.0;" width="10" x="321.5" y="266.0879"/><rect fill="#FFC0CB" height="638.9902" style="stroke: #000000; stroke-width: 1.0;" width="10" x="501.5" y="181.9199"/><rect fill="#FFC0CB" height="82.168" style="stroke: #000000; stroke-width: 1.0;" width="10" x="623.5" y="638.5742"/><rect fill="#FFFFFF" height="982.9102" style="stroke: #000000; stroke-width: 1.0;" width="10" x="811.5" y="42.584"/><rect fill="#FFFFFF" height="696.8223" style="stroke: #000000; stroke-width: 2.0;" width="852" x="35" y="281.6719"/><rect fill="#FFFFFF" height="440.9375" style="stroke: #000000; stroke-width: 2.0;" width="766" x="111" y="466.5566"/><rect fill="#FFFFFF" height="263.6367" style="stroke: #000000; stroke-width: 2.0;" width="746" x="121" y="519.2734"/><line style="stroke: #000000; stroke-width: 1.0; stroke-dasharray: 5.0,5.0;" x1="83" x2="83" y1="32.584" y2="1034.4941"/><line style="stroke: #000000; stroke-width: 1.0; stroke-dasharray: 5.0,5.0;" x1="155" x2="155" y1="32.584" y2="1034.4941"/><line style="stroke: #000000; stroke-width: 1.0; stroke-dasharray: 5.0,5.0;" x1="218" x2="218" y1="32.584" y2="1034.4941"/><line style="stroke: #000000; stroke-width: 1.0; stroke-dasharray: 5.0,5.0;" x1="326" x2="326" y1="32.584" y2="1034.4941"/><line style="stroke: #000000; stroke-width: 1.0; stroke-dasharray: 5.0,5.0;" x1="506" x2="506" y1="32.584" y2="1034.4941"/><line style="stroke: #000000; stroke-width: 1.0; stroke-dasharray: 5.0,5.0;" x1="628.5" x2="628.5" y1="32.584" y2="1034.4941"/><line style="stroke: #000000; stroke-width: 1.0; stroke-dasharray: 5.0,5.0;" x1="816" x2="816" y1="32.584" y2="1034.4941"/><rect fill="#FFFFFF" height="28.584" style="stroke: #000000; stroke-width: 1.5;" width="76" x="45" y="3"/><text fill="#000000" font-family="Verdana" font-size="12" lengthAdjust="spacingAndGlyphs" textLength="62" x="52" y="22.0645">Controller</text><rect fill="#FFFFFF" height="28.584" style="stroke: #000000; stroke-width: 1.5;" width="76" x="45" y="1033.4941"/><text fill="#000000" font-family="Verdana" font-size="12" lengthAdjust="spacingAndGlyphs" textLength="62" x="52" y="1052.5586">Controller</text><rect fill="#FFFFFF" height="28.584" style="stroke: #000000; stroke-width: 1.5;" width="48" x="131" y="3"/><text fill="#000000" font-family="Verdana" font-size="12" lengthAdjust="spacingAndGlyphs" textLength="34" x="138" y="22.0645">Input</text><rect fill="#FFFFFF" height="28.584" style="stroke: #000000; stroke-width: 1.5;" width="48" x="131" y="1033.4941"/><text fill="#000000" font-family="Verdana" font-size="12" lengthAdjust="spacingAndGlyphs" textLength="34" x="138" y="1052.5586">Input</text><rect fill="#FFFFFF" height="28.584" style="stroke: #000000; stroke-width: 1.5;" width="58" x="189" y="3"/><text fill="#000000" font-family="Verdana" font-size="12" lengthAdjust="spacingAndGlyphs" textLength="44" x="196" y="22.0645">Output</text><rect fill="#FFFFFF" height="28.584" style="stroke: #000000; stroke-width: 1.5;" width="58" x="189" y="1033.4941"/><text fill="#000000" font-family="Verdana" font-size="12" lengthAdjust="spacingAndGlyphs" textLength="44" x="196" y="1052.5586">Output</text><rect fill="#FFFFFF" height="28.584" style="stroke: #000000; stroke-width: 1.5;" width="139" x="257" y="3"/><text fill="#000000" font-family="Verdana" font-size="12" lengthAdjust="spacingAndGlyphs" textLength="125" x="264" y="22.0645">CommandProcessor</text><rect fill="#FFFFFF" height="28.584" style="stroke: #000000; stroke-width: 1.5;" width="139" x="257" y="1033.4941"/><text fill="#000000" font-family="Verdana" font-size="12" lengthAdjust="spacingAndGlyphs" textLength="125" x="264" y="1052.5586">CommandProcessor</text><rect fill="#FFFFFF" height="28.584" style="stroke: #000000; stroke-width: 1.5;" width="77" x="468" y="3"/><text fill="#000000" font-family="Verdana" font-size="12" lengthAdjust="spacingAndGlyphs" textLength="63" x="475" y="22.0645">Command</text><rect fill="#FFFFFF" height="28.584" style="stroke: #000000; stroke-width: 1.5;" width="77" x="468" y="1033.4941"/><text fill="#000000" font-family="Verdana" font-size="12" lengthAdjust="spacingAndGlyphs" textLength="63" x="475" y="1052.5586">Command</text><rect fill="#FFFFFF" height="28.584" style="stroke: #000000; stroke-width: 1.5;" width="76" x="590.5" y="3"/><text fill="#000000" font-family="Verdana" font-size="12" lengthAdjust="spacingAndGlyphs" textLength="62" x="597.5" y="22.0645">ArbObject</text><rect fill="#FFFFFF" height="28.584" style="stroke: #000000; stroke-width: 1.5;" width="76" x="590.5" y="1033.4941"/><text fill="#000000" font-family="Verdana" font-size="12" lengthAdjust="spacingAndGlyphs" textLength="62" x="597.5" y="1052.5586">ArbObject</text><rect fill="#FFFFFF" height="28.584" style="stroke: #000000; stroke-width: 1.5;" width="81" x="776" y="3"/><text fill="#000000" font-family="Verdana" font-size="12" lengthAdjust="spacingAndGlyphs" textLength="67" x="783" y="22.0645">Dispatcher</text><rect fill="#FFFFFF" height="28.584" style="stroke: #000000; stroke-width: 1.5;" width="81" x="776" y="1033.4941"/><text fill="#000000" font-family="Verdana" font-size="12" lengthAdjust="spacingAndGlyphs" textLength="67" x="783" y="1052.5586">Dispatcher</text><rect fill="#FFFFFF" height="904.7422" style="stroke: #000000; stroke-width: 1.0;" width="10" x="78" y="111.752"/><rect fill="#FFC0CB" height="54.168" style="stroke: #000000; stroke-width: 1.0;" width="10" x="83" y="148.3359"/><rect fill="#FFFFFF" height="982.9102" style="stroke: #000000; stroke-width: 1.0;" width="10" x="150" y="42.584"/><rect fill="#FFFFFF" height="982.9102" style="stroke: #000000; stroke-width: 1.0;" width="10" x="213" y="42.584"/><rect fill="#FFFFFF" height="719.4063" style="stroke: #000000; stroke-width: 1.0;" width="10" x="321.5" y="266.0879"/><rect fill="#FFC0CB" height="638.9902" style="stroke: #000000; stroke-width: 1.0;" width="10" x="501.5" y="181.9199"/><rect fill="#FFC0CB" height="82.168" style="stroke: #000000; stroke-width: 1.0;" width="10" x="623.5" y="638.5742"/><rect fill="#FFFFFF" height="982.9102" style="stroke: #000000; stroke-width: 1.0;" width="10" x="811.5" y="42.584"/><polygon fill="#FFFFE0" points="581,47.584,581,86.584,675,86.584,675,57.584,665,47.584,581,47.584" style="stroke: #000000; stroke-width: 1.0;"/><line style="stroke: #000000; stroke-width: 1.0;" x1="665" x2="665" y1="47.584" y2="57.584"/><line style="stroke: #000000; stroke-width: 1.0;" x1="675" x2="665" y1="57.584" y2="57.584"/><text fill="#000000" font-family="Verdana" font-size="12" lengthAdjust="spacingAndGlyphs" textLength="73" x="587" y="64.6484">This usually</text><text fill="#000000" font-family="Verdana" font-size="12" lengthAdjust="spacingAndGlyphs" textLength="68" x="587" y="79.2324">is a model.</text><polygon fill="#000000" points="66,107.752,76,111.752,66,115.752,70,111.752" style="stroke: #000000; stroke-width: 1.0;"/><line style="stroke: #000000; stroke-width: 1.0; stroke-dasharray: 2.0,2.0;" x1="3" x2="72" y1="111.752" y2="111.752"/><text fill="#000000" font-family="Verdana" font-size="12" lengthAdjust="spacingAndGlyphs" textLength="56" x="10" y="107.8164">«create»</text><line style="stroke: #000000; stroke-width: 1.0; stroke-dasharray: 2.0,2.0;" x1="88" x2="135" y1="135.9199" y2="135.9199"/><line style="stroke: #000000; stroke-width: 1.0; stroke-dasharray: 2.0,2.0;" x1="135" x2="135" y1="135.9199" y2="148.9199"/><line style="stroke: #000000; stroke-width: 1.0; stroke-dasharray: 2.0,2.0;" x1="94" x2="135" y1="148.9199" y2="148.9199"/><polygon fill="#000000" points="104,144.9199,94,148.9199,104,152.9199,100,148.9199" style="stroke: #000000; stroke-width: 1.0;"/><text fill="#000000" font-family="Verdana" font-size="12" lengthAdjust="spacingAndGlyphs" textLength="29" x="100" y="131.4004">init()</text><polygon fill="#000000" points="489.5,177.9199,499.5,181.9199,489.5,185.9199,493.5,181.9199" style="stroke: #000000; stroke-width: 1.0;"/><line style="stroke: #000000; stroke-width: 1.0; stroke-dasharray: 2.0,2.0;" x1="93" x2="495.5" y1="181.9199" y2="181.9199"/><text fill="#000000" font-family="Verdana" font-size="12" lengthAdjust="spacingAndGlyphs" textLength="56" x="100" y="177.9844">«create»</text><line style="stroke: #000000; stroke-width: 1.0; stroke-dasharray: 2.0,2.0;" x1="93" x2="135" y1="201.5039" y2="201.5039"/><line style="stroke: #000000; stroke-width: 1.0; stroke-dasharray: 2.0,2.0;" x1="135" x2="135" y1="201.5039" y2="214.5039"/><line style="stroke: #000000; stroke-width: 1.0; stroke-dasharray: 2.0,2.0;" x1="88" x2="135" y1="214.5039" y2="214.5039"/><polygon fill="#000000" points="98,210.5039,88,214.5039,98,218.5039,94,214.5039" style="stroke: #000000; stroke-width: 1.0;"/><polygon fill="#000000" points="66,233.5039,76,237.5039,66,241.5039,70,237.5039" style="stroke: #000000; stroke-width: 1.0;"/><line style="stroke: #000000; stroke-width: 1.0;" x1="3" x2="72" y1="237.5039" y2="237.5039"/><text fill="#000000" font-family="Verdana" font-size="12" lengthAdjust="spacingAndGlyphs" textLength="31" x="10" y="233.5684">run()</text><polygon fill="#000000" points="309.5,262.0879,319.5,266.0879,309.5,270.0879,313.5,266.0879" style="stroke: #000000; stroke-width: 1.0;"/><line style="stroke: #000000; stroke-width: 1.0; stroke-dasharray: 2.0,2.0;" x1="88" x2="315.5" y1="266.0879" y2="266.0879"/><text fill="#000000" font-family="Verdana" font-size="12" lengthAdjust="spacingAndGlyphs" textLength="56" x="95" y="262.1523">«create»</text><rect fill="none" height="696.8223" style="stroke: #000000; stroke-width: 2.0;" width="852" x="35" y="281.6719"/><polygon fill="#EEEEEE" points="35,281.6719,510,281.6719,510,288.6719,500,298.6719,35,298.6719,35,281.6719" style="stroke: #000000; stroke-width: 2.0;"/><text fill="#000000" font-family="sans-serif" font-size="13" font-weight="bold" lengthAdjust="spacingAndGlyphs" textLength="430" x="50" y="294.7388">May be executed multiple times with different commands</text><polygon fill="#000000" points="309.5,339.8047,319.5,343.8047,309.5,347.8047,313.5,343.8047" style="stroke: #000000; stroke-width: 1.0;"/><line style="stroke: #000000; stroke-width: 1.0;" x1="88" x2="315.5" y1="343.8047" y2="343.8047"/><text fill="#000000" font-family="Verdana" font-size="12" lengthAdjust="spacingAndGlyphs" textLength="186" x="95" y="339.8691">executeCommand(Command)</text><polygon fill="#000000" points="799.5,393.3887,809.5,397.3887,799.5,401.3887,803.5,397.3887" style="stroke: #000000; stroke-width: 1.0;"/><line style="stroke: #000000; stroke-width: 1.0;" x1="331.5" x2="805.5" y1="397.3887" y2="397.3887"/><text fill="#000000" font-family="Verdana" font-size="12" lengthAdjust="spacingAndGlyphs" textLength="220" x="338.5" y="393.4531">trigger('beforeExecute', Command)</text><polygon fill="#000000" points="342.5,421.9727,332.5,425.9727,342.5,429.9727,338.5,425.9727" style="stroke: #000000; stroke-width: 1.0;"/><line style="stroke: #000000; stroke-width: 1.0;" x1="336.5" x2="810.5" y1="425.9727" y2="425.9727"/><text fill="#000000" font-family="Verdana" font-size="12" lengthAdjust="spacingAndGlyphs" textLength="49" x="348.5" y="422.0371">success</text><rect fill="none" height="440.9375" style="stroke: #000000; stroke-width: 2.0;" width="766" x="111" y="466.5566"/><polygon fill="#EEEEEE" points="111,466.5566,229,466.5566,229,473.5566,219,483.5566,111,483.5566,111,466.5566" style="stroke: #000000; stroke-width: 2.0;"/><text fill="#000000" font-family="sans-serif" font-size="13" font-weight="bold" lengthAdjust="spacingAndGlyphs" textLength="73" x="126" y="479.6235">If success</text><polygon fill="#000000" points="489.5,499.6895,499.5,503.6895,489.5,507.6895,493.5,503.6895" style="stroke: #000000; stroke-width: 1.0;"/><line style="stroke: #000000; stroke-width: 1.0;" x1="331.5" x2="495.5" y1="503.6895" y2="503.6895"/><text fill="#000000" font-family="Verdana" font-size="12" lengthAdjust="spacingAndGlyphs" textLength="146" x="338.5" y="499.7539">execute(Input, Output)</text><rect fill="none" height="263.6367" style="stroke: #000000; stroke-width: 2.0;" width="746" x="121" y="519.2734"/><polygon fill="#EEEEEE" points="121,519.2734,383,519.2734,383,526.2734,373,536.2734,121,536.2734,121,519.2734" style="stroke: #000000; stroke-width: 2.0;"/><text fill="#000000" font-family="sans-serif" font-size="13" font-weight="bold" lengthAdjust="spacingAndGlyphs" textLength="217" x="136" y="532.3403">Command specific (example)</text><polygon fill="#000000" points="171,552.4063,161,556.4063,171,560.4063,167,556.4063" style="stroke: #000000; stroke-width: 1.0;"/><line style="stroke: #000000; stroke-width: 1.0;" x1="165" x2="500.5" y1="556.4063" y2="556.4063"/><text fill="#000000" font-family="Verdana" font-size="12" lengthAdjust="spacingAndGlyphs" textLength="61" x="177" y="552.4707">getData()</text><polygon fill="#000000" points="489.5,580.9902,499.5,584.9902,489.5,588.9902,493.5,584.9902" style="stroke: #000000; stroke-width: 1.0;"/><line style="stroke: #000000; stroke-width: 1.0;" x1="160" x2="495.5" y1="584.9902" y2="584.9902"/><text fill="#000000" font-family="Verdana" font-size="12" lengthAdjust="spacingAndGlyphs" textLength="73" x="167" y="581.0547">parameters</text><polygon fill="#000000" points="611.5,634.5742,621.5,638.5742,611.5,642.5742,615.5,638.5742" style="stroke: #000000; stroke-width: 1.0;"/><line style="stroke: #000000; stroke-width: 1.0;" x1="511.5" x2="617.5" y1="638.5742" y2="638.5742"/><text fill="#000000" font-family="Verdana" font-size="12" lengthAdjust="spacingAndGlyphs" textLength="93" x="518.5" y="634.6387">doSomething()</text><polygon fill="#000000" points="799.5,663.1582,809.5,667.1582,799.5,671.1582,803.5,667.1582" style="stroke: #000000; stroke-width: 1.0;"/><line style="stroke: #000000; stroke-width: 1.0; stroke-dasharray: 2.0,2.0;" x1="633.5" x2="805.5" y1="667.1582" y2="667.1582"/><text fill="#000000" font-family="Verdana" font-size="12" lengthAdjust="spacingAndGlyphs" textLength="154" x="640.5" y="663.2227">trigger($signal, $data...)</text><polygon fill="#000000" points="522.5,716.7422,512.5,720.7422,522.5,724.7422,518.5,720.7422" style="stroke: #000000; stroke-width: 1.0;"/><line style="stroke: #000000; stroke-width: 1.0;" x1="516.5" x2="627.5" y1="720.7422" y2="720.7422"/><text fill="#000000" font-family="Verdana" font-size="12" lengthAdjust="spacingAndGlyphs" textLength="43" x="528.5" y="716.8066">results</text><polygon fill="#000000" points="234,745.3262,224,749.3262,234,753.3262,230,749.3262" style="stroke: #000000; stroke-width: 1.0;"/><line style="stroke: #000000; stroke-width: 1.0; stroke-dasharray: 2.0,2.0;" x1="228" x2="500.5" y1="749.3262" y2="749.3262"/><text fill="#000000" font-family="Verdana" font-size="12" lengthAdjust="spacingAndGlyphs" textLength="76" x="240" y="745.3906">setResults()</text><polygon fill="#000000" points="342.5,816.9102,332.5,820.9102,342.5,824.9102,338.5,820.9102" style="stroke: #000000; stroke-width: 1.0;"/><line style="stroke: #000000; stroke-width: 1.0; stroke-dasharray: 2.0,2.0;" x1="336.5" x2="505.5" y1="820.9102" y2="820.9102"/><polygon fill="#000000" points="799.5,869.9102,809.5,873.9102,799.5,877.9102,803.5,873.9102" style="stroke: #000000; stroke-width: 1.0;"/><line style="stroke: #000000; stroke-width: 1.0; stroke-dasharray: 2.0,2.0;" x1="331.5" x2="805.5" y1="873.9102" y2="873.9102"/><text fill="#000000" font-family="Verdana" font-size="12" lengthAdjust="spacingAndGlyphs" textLength="209" x="338.5" y="869.9746">trigger('afterExecute', Command)</text><polygon fill="#000000" points="99,941.4941,89,945.4941,99,949.4941,95,945.4941" style="stroke: #000000; stroke-width: 1.0;"/><line style="stroke: #000000; stroke-width: 1.0; stroke-dasharray: 2.0,2.0;" x1="93" x2="320.5" y1="945.4941" y2="945.4941"/><polygon fill="#000000" points="14,1012.4941,4,1016.4941,14,1020.4941,10,1016.4941" style="stroke: #000000; stroke-width: 1.0;"/><line style="stroke: #000000; stroke-width: 1.0; stroke-dasharray: 2.0,2.0;" x1="8" x2="82" y1="1016.4941" y2="1016.4941"/></g></svg>